<svg width="500" height="206" viewBox="0 0 500 206" fill="none" xmlns="http://www.w3.org/2000/svg">
<mask id="mask0_23_527" style="mask-type:luminance" maskUnits="userSpaceOnUse" x="173" y="26" width="154" height="153">
<path d="M173.651 26.9271H326.651V178.927H173.651V26.9271Z" fill="white"/>
</mask>
<g mask="url(#mask0_23_527)">
<path d="M326.328 101.995C326.328 98.7604 326.125 95.5729 325.734 92.4479L316.365 89.6875C315.26 83.8177 313.401 78.2188 310.885 72.9896L316.885 65.1927C313.792 59.5781 310.005 54.3906 305.646 49.7552L296.302 53.0781C292.078 49.099 287.339 45.6563 282.198 42.8594L282.474 32.8958C276.776 30.2083 270.688 28.2135 264.323 27L258.672 35.2552C255.828 34.8906 252.932 34.7031 249.99 34.7031C247.047 34.7031 244.151 34.8906 241.307 35.2552L235.656 27C229.292 28.2135 223.203 30.2083 217.505 32.8958L217.781 42.8594C212.641 45.6563 207.906 49.099 203.682 53.0781L194.333 49.7552C189.974 54.3906 186.193 59.5781 183.099 65.1927L189.099 72.9896C186.578 78.2135 184.719 83.8177 183.615 89.6875L174.245 92.4479C173.854 95.5729 173.651 98.7604 173.651 101.995C173.651 102.333 173.656 102.672 173.662 103.005C173.656 103.344 173.651 103.682 173.651 104.021C173.651 107.25 173.854 110.438 174.245 113.568L183.615 116.328C184.719 122.193 186.583 127.797 189.099 133.026L183.094 140.823C186.193 146.438 189.974 151.625 194.333 156.26L203.682 152.932C207.906 156.911 212.641 160.354 217.781 163.151L217.505 173.12C223.203 175.802 229.292 177.802 235.656 179.01L241.307 170.76C244.151 171.12 247.047 171.312 249.99 171.312C252.932 171.312 255.828 171.12 258.672 170.76L264.323 179.01C270.688 177.802 276.776 175.802 282.474 173.12L282.198 163.151C287.339 160.354 292.073 156.911 296.297 152.932L305.646 156.26C310.005 151.625 313.787 146.438 316.88 140.823L310.88 133.026C313.401 127.797 315.26 122.198 316.365 116.328L325.734 113.568C326.125 110.438 326.328 107.25 326.328 104.021C326.328 103.682 326.323 103.344 326.318 103.005C326.323 102.672 326.328 102.333 326.328 101.995ZM249.99 166.141C215.849 166.141 188.115 138.703 187.63 104.677C187.641 104.677 187.656 104.677 187.667 104.672C187.646 104.12 187.641 103.562 187.635 103.005C187.641 102.448 187.646 101.891 187.667 101.339C187.656 101.339 187.641 101.339 187.63 101.333C188.115 67.3073 215.849 39.875 249.99 39.875C284.13 39.875 311.865 67.3073 312.349 101.333C312.339 101.339 312.323 101.339 312.313 101.339C312.333 101.891 312.339 102.448 312.344 103.005C312.339 103.562 312.333 104.12 312.313 104.672C312.323 104.677 312.339 104.677 312.349 104.677C311.865 138.703 284.13 166.141 249.99 166.141Z" fill="#004AAD"/>
</g>
<mask id="mask1_23_527" style="mask-type:luminance" maskUnits="userSpaceOnUse" x="326" y="44" width="118" height="118">
<path d="M326.349 44.724H443.349V161.724H326.349V44.724Z" fill="white"/>
</mask>
<g mask="url(#mask1_23_527)">
<path d="M443.307 102.224C443.307 99.75 443.156 97.3073 442.854 94.9115L435.677 92.7969C434.828 88.3021 433.401 84.0104 431.474 80.0052L436.073 74.0313C433.703 69.7292 430.802 65.7552 427.463 62.2031L420.302 64.7552C417.068 61.7031 413.443 59.0677 409.5 56.9271L409.713 49.2917C405.349 47.2344 400.687 45.7031 395.807 44.776L391.479 51.099C389.302 50.8177 387.078 50.6771 384.828 50.6771C382.578 50.6771 380.354 50.8177 378.177 51.099L373.844 44.776C368.969 45.7031 364.307 47.2344 359.943 49.2917L360.156 56.9271C356.213 59.0677 352.588 61.7031 349.354 64.7552L342.193 62.2031C338.854 65.7552 335.953 69.7292 333.583 74.0313L338.182 80.0052C336.25 84.0104 334.828 88.3021 333.979 92.7969L326.802 94.9115C326.5 97.3073 326.349 99.75 326.349 102.224C326.349 102.484 326.354 102.74 326.354 103C326.354 103.26 326.349 103.516 326.349 103.776C326.349 106.25 326.5 108.693 326.802 111.089L333.979 113.203C334.828 117.698 336.25 121.99 338.182 125.995L333.583 131.969C335.953 136.271 338.854 140.245 342.193 143.797L349.354 141.245C352.588 144.297 356.213 146.932 360.156 149.073L359.943 156.714C364.307 158.766 368.969 160.297 373.849 161.224L378.177 154.901C380.354 155.182 382.578 155.328 384.828 155.328C387.078 155.328 389.302 155.182 391.479 154.901L395.812 161.224C400.687 160.297 405.349 158.766 409.713 156.714L409.5 149.073C413.437 146.932 417.068 144.297 420.302 141.245L427.463 143.797C430.802 140.245 433.703 136.271 436.073 131.969L431.474 125.995C433.401 121.99 434.828 117.703 435.677 113.203L442.854 111.089C443.151 108.693 443.307 106.25 443.307 103.776C443.307 103.516 443.302 103.26 443.302 103C443.302 102.74 443.307 102.484 443.307 102.224ZM384.828 151.365C358.677 151.365 337.427 130.349 337.057 104.281C337.068 104.281 337.073 104.276 337.083 104.276C337.068 103.854 337.068 103.427 337.062 103C337.068 102.573 337.068 102.146 337.083 101.724C337.073 101.724 337.068 101.719 337.057 101.719C337.427 75.6563 358.677 54.6354 384.828 54.6354C410.979 54.6354 432.229 75.651 432.599 101.719C432.588 101.719 432.583 101.724 432.573 101.724C432.588 102.146 432.588 102.573 432.594 103C432.588 103.427 432.588 103.854 432.573 104.276C432.583 104.276 432.588 104.281 432.599 104.281C432.229 130.349 410.979 151.365 384.828 151.365Z" fill="#004AAD"/>
</g>
<mask id="mask2_23_527" style="mask-type:luminance" maskUnits="userSpaceOnUse" x="56" y="44" width="118" height="118">
<path d="M56.6719 44.724H173.672V161.724H56.6719V44.724Z" fill="white"/>
</mask>
<g mask="url(#mask2_23_527)">
<path d="M173.63 102.224C173.63 99.75 173.474 97.3073 173.177 94.9115L165.995 92.7969C165.151 88.3021 163.724 84.0104 161.797 80.0052L166.396 74.0313C164.026 69.7292 161.125 65.7552 157.786 62.2031L150.625 64.7552C147.391 61.7031 143.76 59.0677 139.823 56.9271L140.036 49.2917C135.672 47.2344 131.005 45.7031 126.13 44.776L121.797 51.099C119.62 50.8177 117.401 50.6771 115.151 50.6771C112.896 50.6771 110.677 50.8177 108.5 51.099L104.167 44.776C99.2917 45.7031 94.6302 47.2344 90.2656 49.2917L90.474 56.9271C86.5365 59.0677 82.9115 61.7031 79.6719 64.7552L72.5104 62.2031C69.1771 65.7552 66.276 69.7292 63.9062 74.0313L68.5 80.0052C66.5729 84.0104 65.1458 88.3021 64.3021 92.7969L57.125 94.9115C56.8229 97.3073 56.6719 99.75 56.6719 102.224C56.6719 102.484 56.6719 102.74 56.6771 103C56.6719 103.26 56.6719 103.516 56.6719 103.776C56.6719 106.25 56.8229 108.693 57.125 111.089L64.3021 113.203C65.1458 117.698 66.5729 121.99 68.5 125.995L63.901 131.969C66.276 136.271 69.1771 140.245 72.5104 143.797L79.6719 141.245C82.9115 144.297 86.5365 146.932 90.474 149.073L90.2656 156.714C94.6302 158.766 99.2917 160.297 104.167 161.224L108.5 154.901C110.677 155.182 112.896 155.328 115.151 155.328C117.401 155.328 119.62 155.182 121.797 154.901L126.13 161.224C131.005 160.297 135.672 158.766 140.031 156.714L139.823 149.073C143.76 146.932 147.391 144.297 150.625 141.245L157.786 143.797C161.125 140.245 164.026 136.271 166.391 131.969L161.797 125.995C163.724 121.99 165.151 117.703 165.995 113.203L173.177 111.089C173.474 108.693 173.63 106.25 173.63 103.776C173.63 103.516 173.625 103.26 173.62 103C173.625 102.74 173.63 102.484 173.63 102.224ZM115.151 151.365C88.9948 151.365 67.75 130.349 67.375 104.281C67.3854 104.281 67.3958 104.276 67.4062 104.276C67.3906 103.854 67.3854 103.427 67.3802 103C67.3854 102.573 67.3906 102.146 67.4062 101.724C67.3958 101.724 67.3854 101.719 67.375 101.719C67.75 75.6563 88.9948 54.6354 115.151 54.6354C141.302 54.6354 162.547 75.651 162.922 101.719C162.911 101.719 162.901 101.724 162.891 101.724C162.906 102.146 162.911 102.573 162.917 103C162.911 103.427 162.906 103.854 162.891 104.276C162.901 104.276 162.911 104.281 162.922 104.281C162.547 130.349 141.302 151.365 115.151 151.365Z" fill="#004AAD"/>
</g>
<mask id="mask3_23_527" style="mask-type:luminance" maskUnits="userSpaceOnUse" x="28" y="71" width="444" height="64">
<path d="M28.7136 71.3333H471.307V134.667H28.7136V71.3333Z" fill="white"/>
</mask>
<g mask="url(#mask3_23_527)">
<mask id="mask4_23_527" style="mask-type:luminance" maskUnits="userSpaceOnUse" x="28" y="71" width="444" height="64">
<path d="M44.7136 71.3333H455.287C464.12 71.3333 471.287 78.4948 471.287 87.3333V118.667C471.287 127.505 464.12 134.667 455.287 134.667H44.7136C35.8803 134.667 28.7136 127.505 28.7136 118.667V87.3333C28.7136 78.4948 35.8803 71.3333 44.7136 71.3333Z" fill="white"/>
</mask>
<g mask="url(#mask4_23_527)">
<path d="M28.7136 71.3333H471.307V134.667H28.7136V71.3333Z" fill="white"/>
</g>
</g>
<mask id="mask5_23_527" style="mask-type:luminance" maskUnits="userSpaceOnUse" x="28" y="71" width="444" height="64">
<path d="M28.7292 71.3333H471.662V134.333H28.7292V71.3333Z" fill="white"/>
</mask>
<g mask="url(#mask5_23_527)">
<mask id="mask6_23_527" style="mask-type:luminance" maskUnits="userSpaceOnUse" x="28" y="71" width="444" height="64">
<path d="M44.7292 71.3333H455.266C464.099 71.3333 471.266 78.4948 471.266 87.3333V118.661C471.266 127.5 464.099 134.661 455.266 134.661H44.7292C35.8907 134.661 28.7292 127.5 28.7292 118.661V87.3333C28.7292 78.4948 35.8907 71.3333 44.7292 71.3333Z" fill="white"/>
</mask>
<g mask="url(#mask6_23_527)">
<path d="M44.7292 71.3333H455.266C464.099 71.3333 471.266 78.4948 471.266 87.3333V118.661C471.266 127.5 464.099 134.661 455.266 134.661H44.7292C35.8907 134.661 28.7292 127.5 28.7292 118.661V87.3333C28.7292 78.4948 35.8907 71.3333 44.7292 71.3333Z" stroke="#004AAD" stroke-width="8"/>
</g>
</g>
<path d="M83.6042 81.3333V89.875H49.4792V98.3958H75.0833C76.6354 98.3958 78.0625 98.7812 79.3542 99.5416C80.6562 100.307 81.6927 101.344 82.4583 102.646C83.2188 103.937 83.6042 105.37 83.6042 106.937V115.458C83.6042 117.031 83.2188 118.469 82.4583 119.771C81.6927 121.062 80.6562 122.094 79.3542 122.854C78.0625 123.62 76.6354 124 75.0833 124H40.9375V115.458H75.0833V106.937H49.4792C47.9062 106.937 46.4688 106.557 45.1667 105.792C43.875 105.031 42.8438 104 42.0833 102.708C41.3177 101.406 40.9375 99.9687 40.9375 98.3958V89.875C40.9375 88.3073 41.3177 86.875 42.0833 85.5833C42.8438 84.2812 43.875 83.2448 45.1667 82.4791C46.4688 81.7187 47.9062 81.3333 49.4792 81.3333H83.6042Z" fill="#004AAD"/>
<path d="M122.012 98.3958V81.3333H130.533V115.458C130.533 117.031 130.147 118.469 129.387 119.771C128.621 121.062 127.585 122.094 126.283 122.854C124.991 123.62 123.564 124 122.012 124H87.8662V115.458H122.012V106.937H96.4079C94.835 106.937 93.3975 106.557 92.0954 105.792C90.8037 105.031 89.7725 104 89.012 102.708C88.2464 101.406 87.8662 99.9687 87.8662 98.3958V81.3333H96.4079V98.3958H122.012Z" fill="#004AAD"/>
<path d="M143.337 81.3333H168.941C170.493 81.3333 171.92 81.7187 173.212 82.4791C174.514 83.2448 175.55 84.2812 176.316 85.5833C177.076 86.875 177.462 88.3073 177.462 89.875V124H168.941V89.875H160.399V124H151.878V89.875H143.337V124H134.795V89.875C134.795 88.3073 135.175 86.875 135.941 85.5833C136.701 84.2812 137.732 83.2448 139.024 82.4791C140.326 81.7187 141.764 81.3333 143.337 81.3333Z" fill="#004AAD"/>
<path d="M224.39 89.875V98.3958C224.39 99.5781 223.974 100.583 223.14 101.417C222.307 102.25 221.307 102.667 220.14 102.667C221.307 102.667 222.307 103.083 223.14 103.917C223.974 104.75 224.39 105.76 224.39 106.937V115.458C224.39 116.99 224.005 118.406 223.244 119.708C222.479 121 221.458 122.042 220.182 122.833C218.901 123.615 217.463 124 215.869 124H181.724V81.3333H215.869C217.463 81.3333 218.901 81.7291 220.182 82.5208C221.458 83.3021 222.479 84.3281 223.244 85.6041C224.005 86.8854 224.39 88.3073 224.39 89.875ZM215.869 89.875H190.265V98.3958H215.869V89.875ZM190.265 115.458H215.869V106.937H190.265V115.458Z" fill="#004AAD"/>
<path d="M271.319 124H228.652V115.458H245.735V89.875H228.652V81.3333H271.319V89.875H254.256V115.458H271.319V124Z" fill="#004AAD"/>
<path d="M309.727 124H284.122C282.55 124 281.112 123.62 279.81 122.854C278.518 122.094 277.487 121.062 276.727 119.771C275.961 118.469 275.581 117.031 275.581 115.458V89.875C275.581 88.3073 275.961 86.875 276.727 85.5833C277.487 84.2812 278.518 83.2448 279.81 82.4791C281.112 81.7187 282.55 81.3333 284.122 81.3333H309.727C311.279 81.3333 312.706 81.7187 313.997 82.4791C315.3 83.2448 316.336 84.2812 317.102 85.5833C317.862 86.875 318.247 88.3073 318.247 89.875V115.458C318.247 116.99 317.862 118.406 317.102 119.708C316.336 121 315.315 122.042 314.039 122.833C312.758 123.615 311.32 124 309.727 124ZM284.122 89.875V115.458H309.727V89.875H284.122Z" fill="#004AAD"/>
<path d="M365.176 124H331.051C329.478 124 328.041 123.62 326.739 122.854C325.447 122.094 324.416 121.062 323.655 119.771C322.89 118.469 322.51 117.031 322.51 115.458V89.875C322.51 88.3073 322.89 86.875 323.655 85.5833C324.416 84.2812 325.447 83.2448 326.739 82.4791C328.041 81.7187 329.478 81.3333 331.051 81.3333H365.176V89.875H331.051V115.458H365.176V124Z" fill="#004AAD"/>
<path d="M403.584 124H377.98C376.407 124 374.969 123.62 373.667 122.854C372.376 122.094 371.344 121.062 370.584 119.771C369.818 118.469 369.438 117.031 369.438 115.458V89.875C369.438 88.3073 369.818 86.875 370.584 85.5833C371.344 84.2812 372.376 83.2448 373.667 82.4791C374.969 81.7187 376.407 81.3333 377.98 81.3333H403.584C405.136 81.3333 406.563 81.7187 407.855 82.4791C409.157 83.2448 410.193 84.2812 410.959 85.5833C411.719 86.875 412.105 88.3073 412.105 89.875V115.458C412.105 116.99 411.719 118.406 410.959 119.708C410.193 121 409.173 122.042 407.897 122.833C406.615 123.615 405.178 124 403.584 124ZM377.98 89.875V115.458H403.584V89.875H377.98Z" fill="#004AAD"/>
<path d="M424.909 124H416.367V85.6041C416.367 84.4271 416.784 83.4166 417.617 82.5833C418.461 81.75 419.471 81.3333 420.638 81.3333C421.815 81.3333 422.83 81.7604 423.679 82.6041L450.513 109.437V81.3333H459.034V119.729C459.034 120.911 458.617 121.917 457.784 122.75C456.95 123.583 455.95 124 454.784 124C453.601 124 452.586 123.578 451.742 122.729L424.909 95.8958V124Z" fill="#004AAD"/>
</svg>
