<svg width="71" height="72" viewBox="0 0 71 72" fill="none" xmlns="http://www.w3.org/2000/svg">
<g clip-path="url(#clip0_21_319)">
<path d="M26.8707 1.38054C13.1077 3.67439 2.64882 14.2152 0.409592 28.0602C-0.87387 35.9794 1.20152 44.7725 5.95305 51.4628C7.67344 53.8659 11.4692 57.6071 13.7904 59.1363C24.7681 66.4002 37.9031 66.7005 48.9081 59.9282L50.1642 59.1636L56.1446 65.144C62.7531 71.7525 63.3265 72.1621 65.8661 71.8617C68.515 71.534 70.5904 69.4586 70.9181 66.8098C71.2184 64.2702 70.8088 63.6967 64.2004 57.0882L58.22 51.1078L58.9846 49.8517C65.7569 38.874 65.4565 25.6298 58.22 14.7613C56.6634 12.4128 52.9223 8.61707 50.4919 6.86938C43.8015 2.11784 34.8173 0.0424576 26.8707 1.38054ZM38.1761 4.05669C43.9381 5.31284 48.2527 7.71592 52.7038 12.1398C57.3461 16.7821 59.6127 20.9328 60.8961 27.1863C61.7154 31.1186 61.5515 36.7167 60.4865 40.5398C58.22 48.7594 52.8404 55.4498 45.5219 59.109C40.8796 61.4575 37.0019 62.3859 31.8681 62.3859C18.9515 62.3859 7.29113 53.6475 3.71382 41.3317C0.709977 30.9548 3.2769 20.3321 10.6773 12.5494C15.3196 7.66131 21.3819 4.63015 28.5365 3.56516C30.1477 3.31938 36.2373 3.64707 38.1761 4.05669ZM62.6438 58.8086C68.0781 64.2428 68.3238 64.5432 68.4604 65.7175C68.7881 68.5302 66.1392 70.3871 63.6815 69.1036C63.2719 68.8852 60.5138 66.2636 57.5373 63.2598L52.1031 57.8255L54.3969 55.5044C55.6257 54.2209 56.7181 53.1559 56.8 53.1286C56.8819 53.1013 59.5034 55.6682 62.6438 58.8086Z" fill="#004AAD"/>
<path d="M26.7616 6.24129C21.2727 7.38821 16.7397 9.8459 12.8074 13.7509C9.36659 17.219 6.99082 21.3151 5.68006 26.0667C5.1339 28.0874 5.05198 28.9886 5.07929 33.0301C5.10659 38.5463 5.51621 40.5124 7.6189 44.7724C11.9335 53.5382 19.7435 58.9178 29.5197 59.9282C35.4181 60.5563 41.8901 58.9451 46.8874 55.6409C48.9628 54.2755 52.1851 51.2171 53.8508 49.0051C57.6739 43.9805 59.722 36.6348 59.012 30.354C58.2474 23.6909 55.7897 18.4478 51.2293 13.8874C47.6793 10.3647 43.4466 7.85244 38.9135 6.6509C36.1281 5.91359 29.4651 5.69513 26.7616 6.24129ZM37.9031 8.86282C48.4439 11.4024 56.1174 20.6871 56.7181 31.6648C57.1004 38.7921 54.6154 45.1821 49.427 50.3705C44.2385 55.559 37.8485 58.044 30.7212 57.6617C14.3093 56.7605 3.33159 40.649 8.49275 25.1109C10.4589 19.1851 14.5551 14.2424 20.0166 11.2113C22.1739 10.0098 26.1335 8.67167 28.5639 8.34398C31.1581 7.98898 35.1724 8.20744 37.9031 8.86282Z" fill="#004AAD"/>
<path d="M27.6353 14.5974C24.3857 15.4713 21.9826 16.8913 19.5249 19.349C18.2688 20.6324 16.9853 22.2163 16.5211 23.1174C15.8111 24.4828 15.5653 24.7013 14.5549 25.0017C13.1076 25.384 11.1142 27.1044 10.2949 28.6336C9.36648 30.3813 9.4484 33.4124 10.4315 35.1328C11.4146 36.744 12.9165 38.0274 14.4184 38.4371C15.4015 38.7101 15.7019 38.9559 16.5484 40.4032C17.0946 41.3044 17.7226 42.779 17.9411 43.6528C19.2792 49.3055 24.6861 52.8828 31.9499 52.9374C34.9811 52.9374 36.8107 52.5551 39.5415 51.299C43.0915 49.6878 46.1499 45.8921 46.1499 43.1067C46.1499 42.7244 46.3684 42.069 46.6688 41.6867C46.9419 41.2771 47.4334 40.4305 47.7611 39.7751C48.1707 39.0105 48.5257 38.6282 48.908 38.6282C50.5465 38.6282 53.4138 36.034 54.0145 34.0405C55.1888 30.1082 53.2499 26.2305 49.5088 25.0563C48.7169 24.8105 48.0615 24.4828 48.0615 24.3463C48.0615 24.2097 47.6245 23.3632 47.0784 22.4894C45.0576 19.1305 41.2619 16.154 37.4115 14.8705C34.7899 13.9967 30.2842 13.8601 27.6353 14.5974ZM36.0188 16.9732C40.0057 18.0655 43.8288 21.2059 45.6857 24.8924C46.6688 26.804 46.6961 26.8313 48.0888 27.1317C49.8911 27.5413 51.0107 28.3332 51.6388 29.7259C52.5946 31.8286 52.1576 33.7401 50.4372 35.2694C49.8638 35.7609 48.9899 36.2251 48.4165 36.3071C46.9692 36.5255 46.6142 36.7713 46.1226 37.7817C45.9042 38.2732 45.5765 38.6282 45.4399 38.5736C45.3034 38.5463 44.8119 37.9455 44.3476 37.2901L43.5284 36.0613L44.1292 34.5594C45.3034 31.6921 45.2215 28.5517 43.9107 25.9847C43.1734 24.5101 41.3438 22.5713 40.0057 21.8886C38.3126 20.9601 34.9811 21.0421 33.2607 22.0251L31.9499 22.7624L30.7211 22.0524C26.898 19.9224 22.0372 21.7794 20.0438 26.1213C18.8969 28.6609 18.7876 31.8286 19.7707 34.3409L20.508 36.1159L19.4703 37.5086L18.4326 38.9013L17.9138 37.809C17.3676 36.6894 17.2311 36.6074 15.4834 36.3071C13.1622 35.9247 11.4146 33.0847 12.0153 30.6544C12.5342 28.7155 13.7084 27.6505 16.0022 27.0771C17.2584 26.7767 17.3676 26.6674 18.2961 24.8924C21.7369 18.284 29.028 15.0344 36.0188 16.9732ZM30.3115 24.5647C31.1034 25.0836 31.8953 25.5205 32.0865 25.5205C32.3049 25.5205 32.8238 25.2201 33.2607 24.8378C34.3257 23.9367 35.2815 23.609 36.7561 23.609C38.4492 23.609 39.5961 24.1551 40.7703 25.5478C41.8899 26.8313 42.5999 28.7974 42.5999 30.5724C42.5999 31.6101 41.8899 34.5321 41.6442 34.5321C41.5896 34.5321 41.098 34.2863 40.5792 33.9586C39.7326 33.4671 39.6507 33.3305 39.8965 32.7297C40.2515 31.7194 40.1969 29.1797 39.7599 28.1694C39.1319 26.6947 38.0942 25.9301 36.6742 25.9301C35.6365 25.9301 35.3361 26.0667 34.5442 26.9132C33.5884 27.9509 32.933 30.1082 33.2334 31.2005C33.3699 31.7467 33.288 31.8013 32.0319 31.8013C30.7211 31.8013 30.6665 31.774 30.7757 31.1186C31.0215 29.9717 30.3388 27.8144 29.4376 26.9132C27.7446 25.1928 25.5599 25.6571 24.3584 27.9782C23.7576 29.1524 23.6484 30.709 24.0853 32.9755C24.1399 33.2759 23.8396 33.6582 23.2661 34.0132L22.3922 34.5867L21.928 33.549C21.2453 31.9924 21.3272 29.0159 22.0919 27.2682C23.1569 24.8378 24.8772 23.6363 27.3349 23.609C28.673 23.609 29.0826 23.7455 30.3115 24.5647ZM27.963 28.8521C28.4819 29.5894 28.5365 31.5555 28.0722 32.0197C27.6626 32.4294 26.5703 32.4567 26.3246 32.0471C26.0242 31.5282 26.1061 29.6167 26.4884 28.9067C26.9526 28.0874 27.4169 28.0601 27.963 28.8521ZM37.5753 29.2071C38.2853 30.9001 37.8484 32.6751 36.7561 32.4294C35.4999 32.129 35.1176 30.5997 35.9096 29.0705C36.483 27.9782 37.0838 28.0328 37.5753 29.2071ZM36.1553 34.6959C39.2684 35.4605 42.1357 37.5359 43.1734 39.8024C43.7742 41.1678 43.8561 43.4617 43.3099 44.7451C41.4803 49.169 34.3257 51.7086 28.1542 50.1247C24.4949 49.2236 22.1192 47.5578 20.9176 45.1274C19.5796 42.4513 20.0711 40.1028 22.5288 37.6451C23.8122 36.3617 24.6042 35.8155 26.0788 35.2421C29.383 33.9586 32.5234 33.7947 36.1553 34.6959Z" fill="#004AAD"/>
<path d="M28.6459 37.8636C28.2635 38.5736 28.7824 39.3655 29.902 39.7205L30.8578 40.0482V42.3694V44.7178L29.7382 44.5267C28.5912 44.3355 26.1062 43.2159 25.8059 42.7244C25.5601 42.3148 24.4132 42.3967 24.0309 42.8609C23.512 43.489 23.8124 44.1444 25.0685 45.1001C26.9528 46.5201 29.5743 47.2028 32.742 47.039C35.5274 46.9024 37.0839 46.4109 39.132 44.9909C40.0059 44.3901 40.1697 44.1444 40.0878 43.4344C39.9785 42.2601 39.1047 42.2055 37.4662 43.2159C36.2101 44.0078 34.4897 44.6359 33.5339 44.6359C33.097 44.6359 33.0424 44.3355 33.0424 42.3694V40.0755L34.1347 39.6386C35.3089 39.1744 35.7459 38.519 35.3089 37.8636C35.0905 37.5086 34.4624 37.4267 31.9774 37.3994C29.3012 37.3994 28.8643 37.454 28.6459 37.8636Z" fill="#004AAD"/>
</g>
<defs>
<clipPath id="clip0_21_319">
<rect width="71" height="71" fill="white" transform="translate(0 0.943604)"/>
</clipPath>
</defs>
</svg>
