<svg width="71" height="72" viewBox="0 0 71 72" fill="none" xmlns="http://www.w3.org/2000/svg">
<g clip-path="url(#clip0_21_270)">
<path d="M32.223 27.5686V44.0898H33.3153H34.4076V28.5244V12.959H35.4999H36.5923V36.4436V59.9282H35.4999H34.4076V53.2379V46.5475H33.3153H32.223V54.1936V61.8398H35.4999H38.7769V36.4436V11.0475H35.4999H32.223V27.5686Z" fill="#004AAD"/>
<path d="M52.1577 14.6794V17.6013H46.5596H40.9615V18.6936V19.7859H47.6519H54.3423V18.3659V16.9459L56.3904 18.9667L58.4384 21.0148L56.4723 23.0082L54.4788 25.0017L54.3423 23.5544L54.2057 22.1071H47.6519H41.0981L41.0161 23.1175L40.9342 24.1552H46.5323H52.1577V27.0771V30.0263L56.7181 25.4386L61.3057 20.8782L56.7181 16.3178L52.1577 11.7302V14.6794Z" fill="#004AAD"/>
<path d="M21.0269 13.314C21.0269 14.4063 20.9723 14.5156 20.0438 14.8433C19.1153 15.1709 19.0334 15.1709 18.1869 14.3517L17.313 13.5052L16.5757 14.2425L15.8384 14.9798L16.6849 15.8536C17.5042 16.7002 17.5042 16.7821 17.1765 17.7106C16.8488 18.639 16.7396 18.6936 15.6473 18.6936H14.473V19.7859V20.8783H15.6473C16.7396 20.8783 16.8488 20.9329 17.1765 21.8613C17.5042 22.7898 17.5042 22.8717 16.6849 23.7183L15.8384 24.5921L16.5757 25.3294L17.313 26.0667L18.1596 25.2475C18.9242 24.5102 19.0334 24.4829 19.9892 24.7833C20.9449 25.0836 20.9996 25.1656 21.0815 26.3398C21.1634 27.5413 21.1907 27.5686 22.2011 27.6506L23.2115 27.7325V26.5036C23.2115 25.3294 23.2661 25.2202 24.2219 24.8379C25.2049 24.4283 25.2323 24.4283 26.0788 25.2475L26.9253 26.0667L27.6626 25.3294L28.3999 24.5921L27.5534 23.7183L26.7342 22.8717L27.1984 21.8613C27.6353 20.9602 27.7719 20.8783 28.8642 20.8783H30.0384V19.7859V18.6936H28.8642C27.7719 18.6936 27.6353 18.6117 27.1984 17.7106L26.7342 16.7002L27.5534 15.8536L28.3999 14.9798L27.6626 14.2425L26.9253 13.5052L26.0788 14.3244C25.2323 15.1436 25.2049 15.1436 24.2219 14.734C23.2934 14.3517 23.2115 14.2152 23.2115 13.2321C23.2115 12.1398 23.2115 12.1398 22.1192 12.1398H21.0269V13.314ZM24.2765 17.1917C26.7342 19.2671 25.3688 23.0629 22.1465 23.0629C21.4365 23.0629 20.6173 22.8717 20.2623 22.6259C18.9242 21.6975 18.4599 19.6494 19.2519 18.1475C20.1257 16.4544 22.7746 15.9356 24.2765 17.1917Z" fill="#004AAD"/>
<path d="M21.027 19.7859V20.8782H22.1193H23.2116V19.7859V18.6936H22.1193H21.027V19.7859Z" fill="#004AAD"/>
<path d="M6.55396 20.8782V21.9979L7.72819 21.9159C8.8478 21.834 8.87511 21.8067 8.87511 20.8782C8.87511 19.9498 8.8478 19.9225 7.72819 19.8406L6.55396 19.7586V20.8782Z" fill="#004AAD"/>
<path d="M63.3539 20.8783V21.9706H64.4462H65.5385V20.8783V19.786H64.4462H63.3539V20.8783Z" fill="#004AAD"/>
<path d="M57.8923 30.2448V33.1667H55.025H52.1577V34.259V35.3513H55.9808H59.8039V33.7948V32.2109L61.9065 34.3409L64.0366 36.4436L61.9065 38.5463L59.8039 40.6763V39.0924V37.5359H50.3827H40.9615V38.6282V39.7205H49.4269H57.8923V42.6424V45.5917L62.4527 41.004L67.0404 36.4436L62.4527 31.8832L57.8923 27.2955V30.2448Z" fill="#004AAD"/>
<path d="M6.77231 29.9171C6.69038 30.9548 6.58115 31.0913 5.65269 31.4736C4.615 31.8832 4.58769 31.8559 3.71385 31.0094L2.84 30.1629L2.18462 30.8456L1.52923 31.5556L2.37577 32.3748C3.195 33.2213 3.195 33.2213 2.78538 34.2863C2.40308 35.2967 2.32115 35.3513 1.17423 35.3513H0V36.4436V37.5359H1.17423C2.32115 37.5359 2.40308 37.5906 2.78538 38.6009C3.195 39.6659 3.195 39.6659 2.37577 40.5125L1.52923 41.3317L2.18462 42.0417L2.84 42.7244L3.71385 41.8779C4.58769 41.0313 4.615 41.004 5.65269 41.4136C6.58115 41.7959 6.69038 41.9325 6.77231 42.9702C6.85423 44.0352 6.90885 44.0898 7.78269 44.0898C8.65654 44.0898 8.71115 44.0352 8.79308 42.9702C8.875 41.9325 8.98423 41.7959 9.91269 41.4136C10.9504 41.004 10.9777 41.0313 11.8515 41.8779L12.7254 42.7244L13.3808 42.0417L14.0362 41.3317L13.1896 40.5125C12.3704 39.6659 12.3704 39.6659 12.78 38.6009C13.1623 37.5906 13.2442 37.5359 14.3912 37.5359H15.5654V36.4436V35.3513H14.3912C13.2442 35.3513 13.1623 35.2967 12.78 34.2863C12.3704 33.2213 12.3704 33.2213 13.1896 32.3748L14.0362 31.5556L13.3808 30.8456L12.7254 30.1629L11.8515 31.0094C10.9777 31.8559 10.9504 31.8832 9.91269 31.4736C8.98423 31.0913 8.875 30.9548 8.79308 29.9171C8.71115 28.8521 8.65654 28.7975 7.78269 28.7975C6.90885 28.7975 6.85423 28.8521 6.77231 29.9171ZM9.53039 33.5763C10.3496 33.9859 11.1962 35.4606 11.1962 36.4436C11.1962 36.7713 11.005 37.4267 10.7865 37.9182C9.63962 40.294 5.92577 40.3486 4.80615 37.9729C4.28731 36.8806 4.26 36.2798 4.66962 35.1056C5.27038 33.4125 7.75538 32.6479 9.53039 33.5763Z" fill="#004AAD"/>
<path d="M6.55396 36.4436V37.5632L7.72819 37.4813C8.8478 37.3994 8.87511 37.3721 8.87511 36.4436C8.87511 35.5152 8.8478 35.4878 7.72819 35.4059L6.55396 35.324V36.4436Z" fill="#004AAD"/>
<path d="M25.3961 29.7532C25.3961 30.709 25.3961 30.709 26.625 30.709C27.8538 30.709 27.8538 30.709 27.8538 29.7532C27.8538 28.7974 27.8538 28.7974 26.625 28.7974C25.3961 28.7974 25.3961 28.7974 25.3961 29.7532Z" fill="#004AAD"/>
<path d="M40.9615 34.259V35.3513H45.4673H49.9731V34.259V33.1667H45.4673H40.9615V34.259Z" fill="#004AAD"/>
<path d="M68.8154 36.4436V37.5359H69.9077H71V36.4436V35.3513H69.9077H68.8154V36.4436Z" fill="#004AAD"/>
<path d="M19.9346 38.6282V39.7205H21.0269H22.1192V38.6282V37.5359H21.0269H19.9346V38.6282Z" fill="#004AAD"/>
<path d="M52.1577 45.8102V48.7321H46.5596H40.9615V49.8244V50.9167L47.5973 50.8621L54.2058 50.7802L54.3423 49.3329L54.4789 47.8856L56.4723 49.879L58.4385 51.8725L56.3904 53.9206L54.3423 55.9413V54.5213V53.1013H47.6519H40.9615V54.1936V55.286H46.5596H52.1577V58.2079V61.1571L56.7181 56.5694L61.3058 52.009L56.7181 47.4486L52.1577 42.8609V45.8102Z" fill="#004AAD"/>
<path d="M21.0269 46.6294C21.0269 47.7217 20.9723 47.8036 20.0165 48.104C19.0334 48.4044 18.9242 48.3771 18.1596 47.6398L17.313 46.8206L16.5757 47.5579L15.8384 48.2952L16.6849 49.169C17.5042 50.0156 17.5042 50.0975 17.1765 51.026C16.8488 51.9544 16.7396 52.009 15.6473 52.009H14.473V53.1013V54.1937H15.6473C16.7396 54.1937 16.8488 54.2483 17.1765 55.1767C17.5042 56.1052 17.5042 56.1871 16.6849 57.0337L15.8384 57.9075L16.5757 58.6448L17.313 59.3821L18.1869 58.5356C19.0334 57.7163 19.1153 57.7163 20.0438 58.044C20.9723 58.3717 21.0269 58.481 21.0269 59.5733V60.7475H22.1192C23.2115 60.7475 23.2115 60.7475 23.2115 59.6552C23.2115 58.6721 23.2934 58.5356 24.2219 58.1533C25.2049 57.7437 25.2323 57.7437 26.0788 58.5629L26.9253 59.3821L27.6626 58.6448L28.3999 57.9075L27.5534 57.0337L26.7342 56.1871L27.1984 55.1767C27.6353 54.2756 27.7719 54.1937 28.8642 54.1937H30.0384V53.1013V52.009H28.8642C27.7719 52.009 27.6353 51.9271 27.1984 51.026L26.7342 50.0156L27.5534 49.169L28.3999 48.2952L27.6626 47.5579L26.9253 46.8206L26.0788 47.6398C25.2323 48.459 25.2049 48.459 24.2219 48.0494C23.2934 47.6671 23.2115 47.5306 23.2115 46.5475C23.2115 45.4552 23.2115 45.4552 22.1192 45.4552H21.0269V46.6294ZM24.2765 50.5071C25.9696 51.9544 25.9696 54.2483 24.2765 55.6956C22.7746 56.9244 20.1257 56.4329 19.2519 54.7398C18.4599 53.2379 18.9242 51.1898 20.2623 50.2613C21.2453 49.5513 23.2934 49.6879 24.2765 50.5071Z" fill="#004AAD"/>
<path d="M21.027 53.1013V54.1936H22.1193H23.2116V53.1013V52.009H22.1193H21.027V53.1013Z" fill="#004AAD"/>
<path d="M10.1038 48.5956C10.1038 49.524 10.1311 49.5513 11.1961 49.5513C12.2611 49.5513 12.2884 49.524 12.2884 48.5956C12.2884 47.6671 12.2611 47.6398 11.1961 47.6398C10.1311 47.6398 10.1038 47.6671 10.1038 48.5956Z" fill="#004AAD"/>
<path d="M63.3539 52.009V53.1013H64.4462H65.5385V52.009V50.9167H64.4462H63.3539V52.009Z" fill="#004AAD"/>
</g>
<defs>
<clipPath id="clip0_21_270">
<rect width="71" height="71" fill="white" transform="translate(0 0.943604)"/>
</clipPath>
</defs>
</svg>
