<svg width="71" height="72" viewBox="0 0 71 72" fill="none" xmlns="http://www.w3.org/2000/svg">
<g clip-path="url(#clip0_21_244)">
<path d="M32.5508 1.9267C28.4 4.00209 27.7173 9.79132 31.2127 12.8771C32.0592 13.6144 32.2231 13.9421 32.2231 14.8706C32.2231 15.4713 32.1139 15.9629 31.9773 15.9629C31.595 15.9629 30.5027 14.5429 29.0554 12.2217C27.0619 8.9994 25.8058 7.41555 24.5223 6.5144C22.2285 4.87594 21.0816 4.71209 16.5758 5.31286C13.3262 5.72247 12.5342 6.15939 13.1077 7.19709C13.4627 7.87978 13.5173 7.87978 17.5042 7.30632L20.6719 6.84209L22.2012 7.6067C23.9762 8.45324 24.9046 9.51824 27.1712 13.2048C28.9189 16.0448 30.4754 17.7652 31.5404 18.0382C32.2231 18.2021 32.2231 18.2567 32.2231 20.9056V23.609L31.3493 24.1552L30.4481 24.7013L30.1477 23.0082C29.7654 20.9875 28.8369 20.0044 26.7069 19.4856C22.8566 18.5844 18.1323 20.8509 16.5485 24.4009C15.9477 25.6844 15.62 25.7663 13.4354 25.1109L11.9881 24.674L13.2989 23.6363C14.7462 22.5167 16.9308 20.1956 16.9308 19.8406C16.9308 19.7313 16.7669 19.3763 16.5485 19.1032C16.1662 18.5844 16.1116 18.5844 14.3912 19.0486C13.4081 19.2944 11.7423 19.5129 10.7046 19.5129C9.06617 19.5129 8.52002 19.3763 7.07271 18.6117C6.11694 18.1475 5.40694 17.6013 5.46156 17.4648C5.51617 17.3009 6.19886 17.0279 6.93617 16.8367C9.63963 16.154 12.8346 14.3517 12.8346 13.5325C12.8346 12.7679 11.9062 12.4129 9.99463 12.4129C7.29117 12.4129 5.65271 11.8121 4.04155 10.2009C1.99348 8.15286 2.10271 8.04363 6.22617 8.23478C9.39386 8.37132 9.74886 8.34401 10.3496 7.85247C10.8958 7.41555 10.9504 7.2244 10.7046 6.76016C10.4316 6.24132 10.0492 6.18671 6.63579 6.02286C4.5604 5.94093 2.29386 5.77709 1.58386 5.69517C0.464247 5.55862 0.300401 5.61324 0.136555 6.10478C-0.136522 6.97863 0.710016 9.49094 1.7204 10.829C2.81271 12.249 4.80617 13.6417 6.52656 14.1606L7.78271 14.5156L6.28079 14.8159C5.46156 14.9798 4.2054 15.1982 3.4954 15.2802C1.80232 15.4986 1.58386 16.1267 2.62156 17.6286C4.23271 19.9771 7.70079 21.6975 10.8685 21.6975C12.3158 21.7248 12.3977 21.7521 11.8789 22.1344C11.5785 22.3802 10.7592 22.8717 10.0492 23.2267C8.16502 24.1825 8.24694 24.9198 10.3223 25.9848C11.7969 26.7767 12.9166 27.1863 14.5004 27.5413C15.2377 27.7052 15.2377 27.7325 15.3469 30.6271C15.4289 33.0575 15.5654 33.8221 16.1116 34.9417C16.9581 36.6621 19.0608 38.7921 21.1089 39.9663L22.6927 40.8675L21.4366 42.0963C20.7266 42.7517 19.8527 43.9806 19.4704 44.8271C18.8696 46.1379 18.7877 46.6021 18.8969 48.5683C18.9789 50.3979 19.1427 51.0806 19.7435 52.0909C20.6992 53.7021 22.8566 55.5863 25.1777 56.8152L27.0346 57.7709L26.3792 58.9179C25.4235 60.5563 25.2323 62.2767 25.8058 64.1883C26.1608 65.4171 26.5704 66.0725 27.8539 67.3559C29.5196 69.0217 30.3662 69.3221 30.8577 68.3936C31.0762 67.984 31.0489 67.6563 30.7212 67.0556C30.0112 65.6629 30.175 64.434 31.2673 63.2598L32.1958 62.2494L32.2231 65.8267C32.2231 69.1036 32.2777 69.4859 32.8512 70.3325C33.6704 71.5613 34.5716 71.9983 35.9916 71.8617C38.3946 71.6159 39.05 70.2779 39.05 65.6083V62.2494L39.8693 63.0959C40.9616 64.1609 41.2073 65.5809 40.5519 67.0283C40.1423 67.9021 40.1423 68.1752 40.4154 68.5302C40.9616 69.1856 41.6169 69.0217 42.9823 67.8202C45.7131 65.4171 46.5596 61.7306 44.9758 59.0544L44.2385 57.7983L46.2319 56.7059C48.6623 55.3406 49.4816 54.6033 49.3723 53.8386C49.2358 52.8556 48.1981 52.9375 46.5596 54.0571C45.7131 54.6033 44.4023 55.3406 43.6104 55.6683L42.1904 56.3236L40.5793 55.5044L38.9681 54.6852L41.2346 53.784C45.9316 51.8998 47.7885 49.0871 46.0681 46.5202C45.085 45.0183 42.7093 43.9533 37.9577 42.8336C35.6366 42.2875 32.1958 41.4956 30.3662 41.0586C21.1089 38.874 17.3404 35.7882 17.395 30.4086C17.4496 25.3294 19.9073 21.9432 23.8669 21.5063C26.5977 21.1786 28.1269 22.0252 28.1269 23.8002C28.0996 26.1213 26.4612 28.1421 24.0308 28.8248C22.5016 29.2344 21.8462 29.9444 21.8462 31.1732C21.8462 32.3748 22.3923 33.4125 23.6212 34.5048C25.7512 36.3617 29.1373 37.5633 36.4285 39.0379C41.8354 40.1302 44.8939 41.1406 47.0512 42.5606C49.7 44.3083 50.8196 46.7933 50.2189 49.5513C49.8639 51.2444 50.0277 51.7359 50.9289 51.7359C51.8846 51.7359 52.4308 50.3979 52.4308 47.9948C52.4308 45.6463 51.6662 43.8986 49.8639 42.1509L48.5804 40.8675L50.1643 39.9663C52.2123 38.7921 54.315 36.6621 55.1616 34.9417C55.735 33.7675 55.8169 33.194 55.8443 30.6271C55.8443 27.7052 55.8442 27.6779 56.5269 27.5413C58.0835 27.1863 59.2031 26.7767 60.705 25.9848C62.7531 24.9198 62.835 24.1825 60.9781 23.2267C60.2408 22.8717 59.4216 22.3802 59.1212 22.1344C58.6023 21.7521 58.6842 21.7248 60.1316 21.6975C63.2993 21.6975 66.7673 19.9771 68.3785 17.6286C69.4162 16.1267 69.1977 15.4986 67.5046 15.2802C66.7946 15.1982 65.5385 14.9798 64.7193 14.8159L63.2173 14.5156L64.4735 14.1606C66.1939 13.6417 68.1873 12.249 69.2796 10.829C70.29 9.49094 71.1366 6.97863 70.8635 6.10478C70.6723 5.55862 70.5631 5.53132 68.8427 5.74978C65.8662 6.15939 58.8754 5.99555 55.4346 5.47671C50.2189 4.65747 48.8808 4.82132 46.4777 6.5144C45.1943 7.41555 43.9381 8.9994 41.9173 12.2763C41.18 13.4506 40.2243 14.8159 39.8146 15.2802L39.0773 16.0994L39.05 14.9252C39.05 13.9148 39.1866 13.6417 40.0604 12.8771C42.0266 11.1567 42.8458 8.01632 41.9446 5.55862C40.6066 1.81747 36.1827 0.097084 32.5508 1.9267ZM38.2581 4.08401C40.1423 5.31286 40.7704 8.39863 39.5416 10.2282C38.4493 11.8121 37.5754 12.2763 35.6366 12.2763C33.6977 12.2763 32.8239 11.8121 31.7589 10.2282C30.9943 9.13594 30.9123 7.06055 31.5677 5.69517C32.7146 3.29209 35.9096 2.52747 38.2581 4.08401ZM55.025 7.55209C57.7285 7.9617 60.2408 8.12555 63.545 8.15286C66.7127 8.18016 68.2692 8.2894 68.2692 8.48055C68.2692 9.05401 66.2758 11.0748 65.1562 11.6482C64.3643 12.0579 63.3812 12.249 61.8519 12.3309C60.6504 12.3856 59.3942 12.4948 59.0939 12.5494C58.3566 12.7132 58.0835 13.3686 58.4385 14.0513C58.7935 14.7067 62.1796 16.3725 64.1185 16.864C64.9104 17.0552 65.5931 17.3282 65.6204 17.4648C65.6477 17.6013 64.8831 18.1202 63.9546 18.6117C62.48 19.3763 61.9339 19.5129 60.2954 19.5129C59.2577 19.5129 57.5919 19.2944 56.6089 19.0486C54.8885 18.5844 54.8339 18.5844 54.4516 19.1032C54.2331 19.3763 54.0693 19.7313 54.0693 19.8406C54.0693 20.1956 56.2539 22.5167 57.7012 23.6363L59.0119 24.674L57.5646 25.1109C55.5166 25.7117 55.2981 25.6571 54.7246 24.4009C54.0146 22.7898 52.2669 21.0967 50.3827 20.1682C48.99 19.5129 48.4166 19.3763 46.5596 19.3763C43.0369 19.3763 41.3712 20.5506 41.0435 23.2813C40.9616 24.0459 40.825 24.7013 40.7704 24.7013C40.7158 24.7013 40.3062 24.5102 39.8693 24.2917L39.05 23.8548V21.0694L39.0773 18.284L40.2516 17.574C41.1254 17.0279 41.8627 16.1813 43.0369 14.3244C45.9862 9.76401 46.9966 8.53517 48.5804 7.71593C50.3281 6.78748 50.2189 6.81478 55.025 7.55209ZM36.8654 25.7936V36.9898L36.1281 36.8259C34.2439 36.4163 34.4077 37.5633 34.4077 25.4932V14.5975H35.6366H36.8654V25.7936ZM48.9627 21.8613C50.4919 22.3802 52.2943 24.0732 53.0043 25.6298C53.7416 27.3229 54.1239 30.3813 53.7962 32.1017C53.25 34.9144 51.2566 37.1809 47.8704 38.7648L46.3412 39.5021L43.6377 38.6009L40.9342 37.6998L42.9277 36.9898C45.4946 36.034 46.4777 35.5425 47.6519 34.4775C48.8808 33.4125 49.4269 32.3748 49.4269 31.1732C49.4269 29.9444 48.7716 29.2344 47.2423 28.8248C46.5596 28.6336 45.6039 28.1694 45.085 27.7871C43.6104 26.6675 42.7639 24.1279 43.31 22.6532C43.7743 21.5063 46.6962 21.0967 48.9627 21.8613ZM32.1139 35.8156C31.95 35.9794 29.0827 35.1056 27.4443 34.3956C25.7512 33.6309 24.0308 32.2109 24.0308 31.5556C24.0308 31.2552 24.495 30.9275 25.4235 30.5998C26.3519 30.2721 27.3077 29.644 28.2362 28.7156C29.0008 27.9236 30.175 27.0498 30.8577 26.7221L32.0866 26.1486L32.1685 30.9275C32.1958 33.549 32.1958 35.7609 32.1139 35.8156ZM40.825 26.9952C41.2893 27.159 42.2723 27.9236 43.0369 28.7156C43.9654 29.644 44.9212 30.2721 45.8496 30.5998C47.57 31.2279 47.6246 31.6921 46.1227 33.0029C45.1396 33.8494 41.9719 35.2148 39.7327 35.7882L39.05 35.9521V31.1186C39.05 26.6129 39.0773 26.2852 39.5416 26.4763C39.7873 26.5856 40.3881 26.8313 40.825 26.9952ZM27.9904 42.6425L30.6119 43.3798L29.1646 43.8986C24.2766 45.7283 23.1296 48.8686 26.3519 51.6813C27.69 52.8829 28.755 53.3744 33.4519 55.0129C38.3127 56.7059 40.6066 57.7163 41.89 58.6994C43.4739 59.9009 44.0746 61.8671 43.4193 63.6421L43.1189 64.3794L42.5727 63.2598C41.3166 60.7748 38.8043 59.2729 32.7419 57.4433C25.6693 55.3406 21.7096 52.6644 21.0542 49.5786C20.6719 47.8036 20.8631 46.5202 21.7369 45.0183C22.3104 44.0079 24.6316 41.9325 25.205 41.9052C25.3143 41.9052 26.5704 42.2329 27.9904 42.6425ZM36.6743 44.6359C36.7835 44.6359 36.8381 46.5748 36.8108 48.9233L36.7289 53.2379H35.6366H34.5443L34.4623 48.6775L34.4077 44.1444L35.4181 44.3902C35.9916 44.5267 36.5377 44.6359 36.6743 44.6359ZM32.1139 52.2002C31.8954 52.4459 28.755 50.944 27.7719 50.0975C25.8058 48.459 26.7616 46.8752 30.4208 45.7556L32.0866 45.2367L32.1685 48.6775C32.1958 50.5344 32.1958 52.1456 32.1139 52.2002ZM42.7366 46.4656C45.44 47.8309 45.0577 49.5786 41.6443 51.2717C40.9069 51.6267 40.0058 52.0363 39.6781 52.1183L39.05 52.3094V48.7594V45.2094L40.4973 45.6463C41.2619 45.8648 42.2996 46.2471 42.7366 46.4656ZM31.0216 59.1363C31.6769 59.3002 32.2231 59.5459 32.2231 59.6825C32.2231 59.819 32.1139 59.9283 31.9773 59.9283C31.4585 59.9283 29.11 62.304 28.6458 63.3144L28.1543 64.4067L27.8539 63.6148C27.4169 62.4952 27.6627 60.6929 28.3727 59.6825C29.0554 58.754 29.2466 58.6994 31.0216 59.1363ZM36.2646 60.7748C36.8381 60.9933 36.8654 61.1025 36.8654 65.0621C36.8654 69.2948 36.7562 69.759 35.6366 69.759C34.5169 69.759 34.4077 69.3221 34.4077 64.6252V60.174L35.0358 60.3652C35.3635 60.4744 35.9096 60.6383 36.2646 60.7748Z" fill="#004AAD"/>
<path d="M47.7339 23.6363C46.8328 24.1552 47.3243 25.5206 48.3893 25.5206C48.7989 25.5206 49.427 24.7833 49.427 24.319C49.427 24.1279 48.5805 23.336 48.3893 23.336C48.2801 23.336 47.9797 23.4725 47.7339 23.6363Z" fill="#004AAD"/>
<path d="M22.2831 23.7729C21.7643 24.2644 21.7643 24.319 22.1193 25.0017C22.447 25.5752 23.2116 25.6844 23.7031 25.1929C24.1947 24.7013 24.0854 23.9367 23.512 23.609C22.8293 23.254 22.7747 23.254 22.2831 23.7729Z" fill="#004AAD"/>
</g>
<defs>
<clipPath id="clip0_21_244">
<rect width="71" height="71" fill="white" transform="translate(0 0.943604)"/>
</clipPath>
</defs>
</svg>
