<svg width="71" height="72" viewBox="0 0 71 72" fill="none" xmlns="http://www.w3.org/2000/svg">
<g clip-path="url(#clip0_17_145)">
<path d="M24.8499 0.653564C24.0307 0.953949 22.9384 2.21011 22.7746 3.08395C22.5561 4.23087 23.2388 5.67818 24.3038 6.30626L25.123 6.77049V13.4882V20.1786L22.0099 26.1043C20.3169 29.354 17.3676 34.952 15.4834 38.584C13.5719 42.1886 11.9607 45.4928 11.8788 45.957C11.7696 46.5305 11.988 47.2951 12.698 48.7424C13.2169 49.862 13.6538 50.7905 13.6538 50.8178C13.6538 50.8724 12.7526 50.9543 11.6603 51.0363C1.91148 51.6643 -1.44737 64.5536 6.77225 69.7693C9.53033 71.517 8.27417 71.4624 38.1488 71.4624C67.7776 71.4624 66.2484 71.5443 67.8323 69.8786C68.4057 69.2505 68.6515 68.677 68.7607 67.6666L68.8699 66.3013L66.8765 66.2193L64.8557 66.1374L64.0638 64.5536C62.9715 62.369 62.9715 60.0751 64.0638 57.8905L64.8557 56.3066L66.7673 56.1701L68.6788 56.0336L68.7607 54.9686C68.8153 54.2313 68.6788 53.6578 68.1873 52.9205C67.013 51.1455 66.303 50.9816 60.3226 50.9816C55.1615 50.9816 55.0796 50.9816 55.5438 50.4628C56.7726 49.1247 56.7726 48.9336 56.7999 27.3059V6.77049L57.5919 6.36087C58.6023 5.81472 59.3669 4.23087 59.1484 3.08395C59.0392 2.59241 58.6023 1.8278 58.138 1.39088L57.3188 0.598953H51.0653C44.8392 0.598953 44.8392 0.598953 44.1292 1.25433C43.7469 1.63664 43.3099 2.34664 43.1461 2.8928C42.8184 4.12164 43.4465 5.54164 44.7026 6.33356L45.5765 6.87972L45.6038 20.8066C45.6038 28.8624 45.4946 34.597 45.358 34.4605C45.2215 34.2966 43.5011 31.1016 41.5349 27.3332L37.9576 20.479V13.5155C37.9576 6.8251 37.9849 6.52472 38.4765 6.38818C39.1865 6.22433 40.1423 4.64049 40.1423 3.65741C40.1423 2.5651 39.4323 1.36356 38.5038 0.872025C37.8484 0.544334 36.5376 0.46241 31.4857 0.489723C28.0723 0.489723 25.0684 0.57164 24.8499 0.653564ZM38.2307 2.8928C38.613 3.65741 38.5857 3.93049 37.9576 4.55856C37.4388 5.07742 37.0565 5.10472 31.4311 5.10472C24.9592 5.10472 24.5769 5.0228 24.5769 3.6301C24.5769 2.42857 24.8773 2.37395 31.5949 2.37395C37.5753 2.37395 37.9576 2.40126 38.2307 2.8928ZM57.0184 2.70164C57.4826 3.16587 57.428 4.17626 56.9092 4.66779C56.2538 5.32318 46.0134 5.32318 45.2761 4.64049C44.7026 4.14895 44.6207 3.19318 45.1123 2.70164C45.5765 2.23741 56.5542 2.23741 57.0184 2.70164ZM36.0461 13.6793V20.5882L36.8107 22.0628C37.2476 22.882 38.7496 25.722 40.1149 28.3982C42.6273 33.2043 42.6546 33.259 41.7534 32.822C40.2515 32.0301 37.9849 31.9755 36.4284 32.6855C34.7626 33.4228 32.9876 33.4228 31.4038 32.7128C29.8199 32.0028 28.2634 32.0028 26.3246 32.7128C24.5223 33.3955 23.1842 33.4228 21.7642 32.822L20.7265 32.3851L23.3753 27.2786C24.8226 24.4659 26.188 21.9263 26.4065 21.6259C26.6796 21.2163 26.7615 19.4686 26.7615 13.9251V6.74318H31.4038H36.0461V13.6793ZM54.8884 13.8432C54.8884 20.5609 54.8611 20.9432 54.3696 21.2163C53.523 21.6532 52.8676 21.544 51.1746 20.6428C49.8365 19.9601 49.3723 19.8509 48.4165 19.9874L47.2423 20.1513V13.4609V6.74318H51.0653H54.8884V13.8432ZM50.9561 22.4724C51.9119 23.0459 52.4307 23.1551 53.523 23.0732L54.9157 22.9913L54.8338 35.8805L54.7519 48.7697L53.9599 49.589C52.4853 51.1182 50.3007 51.3366 48.7442 50.1078C47.2696 48.9336 47.2423 48.797 47.2423 35.034C47.2423 23.237 47.2696 22.3086 47.7338 22.0628C48.5257 21.5713 49.6999 21.7351 50.9561 22.4724ZM31.5403 34.6243C33.0423 35.307 34.3803 35.2797 36.838 34.4332L38.9134 33.7505L41.3438 34.5424L43.8015 35.3616L44.6753 37.1093C45.5492 38.8024 45.5765 38.8843 45.6038 42.5709V46.3393H31.2673H16.9307V47.1586V47.9778H31.2126H45.4673L46.0134 49.2613C46.3138 49.9713 46.6142 50.654 46.6415 50.7632C46.6961 50.8724 39.8692 50.9816 31.4857 50.9816C19.6888 50.9816 16.1115 50.8997 15.7565 50.6266C15.2923 50.2716 13.6538 46.8309 13.6538 46.1755C13.6538 45.8478 19.443 34.5697 19.8526 34.0782C19.9072 33.9963 20.3988 34.1601 20.9449 34.4332C22.9111 35.389 24.5223 35.3343 27.4442 34.2147C28.673 33.7505 29.8472 33.8597 31.5403 34.6243ZM65.7842 53.0297C66.4396 53.3574 66.9038 53.9309 66.9038 54.4224C66.9038 54.477 54.2603 54.5316 38.8042 54.5316H10.7046L9.25725 55.2963C4.50571 57.7813 4.34186 64.3078 8.92956 67.0113L10.2403 67.7759L38.5857 67.8578C55.3526 67.8851 66.9038 68.0216 66.9038 68.1582C66.9038 68.2947 66.5761 68.677 66.1938 68.9774C65.4565 69.5509 65.3746 69.5509 37.8211 69.5509H10.1857L8.51994 68.7316C5.67994 67.2843 4.1234 64.9086 3.90494 61.6316C3.60456 57.6174 6.44456 53.849 10.4861 52.8659C10.9503 52.7566 23.4026 52.6747 38.1761 52.6474C61.2511 52.6201 65.1288 52.6747 65.7842 53.0297ZM62.2615 57.317L61.7426 58.4913L38.6403 58.5732L15.5653 58.6278V59.447V60.2663H38.5038H61.4423V61.222V62.1778H38.5038H15.5653V62.997V63.8163L38.6949 63.8709L61.7973 63.9528L62.2888 65.127L62.7803 66.274L36.9199 66.2193C12.0153 66.1374 11.0323 66.1101 9.99456 65.6186C8.49263 64.8813 7.37302 63.0243 7.37302 61.304C7.37302 59.0101 8.62917 57.2624 10.7865 56.4978C11.3326 56.3066 19.8526 56.1974 37.193 56.1974L62.7803 56.1701L62.2615 57.317Z" fill="#004AAD"/>
<path d="M28.1268 9.33738V10.2932H30.1749H32.223V9.33738V8.38161H30.1749H28.1268V9.33738Z" fill="#004AAD"/>
<path d="M28.1268 13.4336V14.3893H30.1749H32.223V13.4336V12.4778H30.1749H28.1268V13.4336Z" fill="#004AAD"/>
<path d="M28.1268 17.5297V18.4855H30.1749H32.223V17.5297V16.5739H30.1749H28.1268V17.5297Z" fill="#004AAD"/>
<path d="M48.6077 9.33738V10.2932H50.5192H52.4307V9.33738V8.38161H50.5192H48.6077V9.33738Z" fill="#004AAD"/>
<path d="M48.6077 13.4336V14.3893H50.5192H52.4307V13.4336V12.4778H50.5192H48.6077V13.4336Z" fill="#004AAD"/>
<path d="M48.6077 17.5297V18.4855H50.5192H52.4307V17.5297V16.5739H50.5192H48.6077V17.5297Z" fill="#004AAD"/>
</g>
<defs>
<clipPath id="clip0_17_145">
<rect width="71" height="71" fill="white" transform="translate(0 0.462402)"/>
</clipPath>
</defs>
</svg>
