<svg width="624" height="92" viewBox="0 0 624 92" fill="none" xmlns="http://www.w3.org/2000/svg">
<path d="M38.648 29.368C40.504 31.704 41.512 34.6 41.672 38.056C41.864 41.48 41.176 44.984 39.608 48.568C37.272 53.976 33.576 58.328 28.52 61.624C23.464 64.952 17.624 66.856 11 67.336C11 67.336 10.984 67.336 10.952 67.336C10.696 67.336 10.472 67.256 10.28 67.096C10.12 66.936 10.04 66.728 10.04 66.472C10.008 66.216 10.072 65.992 10.232 65.8C10.424 65.608 10.632 65.512 10.856 65.512C17.128 65.064 22.648 63.272 27.416 60.136C32.216 57.032 35.72 52.936 37.928 47.848C39.368 44.552 40.008 41.352 39.848 38.248C39.72 35.144 38.84 32.568 37.208 30.52C35.416 28.312 32.952 27 29.816 26.584C27.096 29.4 23.848 32.024 20.072 34.456C16.296 36.888 13.384 38.232 11.336 38.488C7.688 56.696 5.64 68.12 5.192 72.76C5.256 72.6 5.32 72.44 5.384 72.28C5.48 72.024 5.64 71.848 5.864 71.752C6.12 71.656 6.36 71.656 6.584 71.752C6.84 71.848 7.016 72.008 7.112 72.232C7.208 72.488 7.208 72.728 7.112 72.952C6.568 74.296 6.104 75.24 5.72 75.784C5.368 76.36 4.984 76.648 4.568 76.648C4.44 76.648 4.312 76.616 4.184 76.552C3.832 76.456 3.592 76.216 3.464 75.832C3.336 75.48 3.288 74.616 3.32 73.24C3.384 71.896 3.64 69.864 4.088 67.144C4.536 64.424 5.192 60.696 6.056 55.96C6.952 51.224 8.12 45.256 9.56 38.056C9.112 37.64 8.968 37.08 9.128 36.376C9.448 35.224 9.928 34.12 10.568 33.064C11.144 30.216 11.768 27.096 12.44 23.704C14.456 13.88 15.768 7.336 16.376 4.072C14.872 4.456 13.464 4.984 12.152 5.656C9.816 6.776 7.912 8.232 6.44 10.024C5 11.784 4.04 13.768 3.56 15.976C3.112 18.152 3.16 20.536 3.704 23.128C3.768 23.384 3.72 23.624 3.56 23.848C3.432 24.04 3.24 24.168 2.984 24.232C2.76 24.296 2.536 24.264 2.312 24.136C2.088 23.976 1.96 23.768 1.928 23.512C0.968 19.224 1.304 15.384 2.936 11.992C4.6 8.568 7.4 5.896 11.336 3.976C13.032 3.144 14.84 2.52 16.76 2.104C16.824 1.72 16.888 1.416 16.952 1.192C16.952 1.032 17 0.887999 17.096 0.76C17.224 0.631998 17.368 0.551998 17.528 0.52C17.688 0.455997 17.848 0.439997 18.008 0.471998C18.264 0.504 18.456 0.632 18.584 0.855999C18.744 1.048 18.792 1.272 18.728 1.528C18.728 1.56 18.728 1.608 18.728 1.672C18.728 1.704 18.728 1.72 18.728 1.72C22.024 1.24 25.144 1.4 28.088 2.2C31.064 3 33.32 4.344 34.856 6.232C35.784 7.352 36.392 8.584 36.68 9.928C37 11.272 37.064 12.552 36.872 13.768C36.712 14.984 36.36 16.264 35.816 17.608C35.272 18.92 34.696 20.056 34.088 21.016C33.512 21.976 32.872 22.92 32.168 23.848C31.912 24.232 31.608 24.616 31.256 25C34.36 25.64 36.824 27.096 38.648 29.368ZM11.72 36.568C13.384 36.088 15.784 34.888 18.92 32.968C22.056 31.048 24.872 28.888 27.368 26.488C26.12 26.488 24.808 26.632 23.432 26.92C21.224 27.368 19.096 28.168 17.048 29.32C15.032 30.472 13.448 31.944 12.296 33.736C12.072 34.888 11.88 35.832 11.72 36.568ZM29.096 24.664C29.704 24.024 30.248 23.384 30.728 22.744C33.064 19.576 34.472 16.68 34.952 14.056C35.432 11.432 34.936 9.224 33.464 7.432C32.056 5.736 29.96 4.552 27.176 3.88C24.392 3.208 21.448 3.144 18.344 3.688C17.736 6.984 16.376 13.768 14.264 24.04C13.784 26.376 13.384 28.36 13.064 29.992C15.688 27.528 19.032 25.896 23.096 25.096C25.208 24.68 27.208 24.536 29.096 24.664ZM66.3688 38.104C66.6248 38.008 66.8648 38.024 67.0888 38.152C67.3128 38.248 67.4728 38.424 67.5688 38.68C67.6648 38.904 67.6488 39.128 67.5208 39.352C66.6568 41.208 65.6808 43.112 64.5928 45.064C63.5048 47.016 62.3048 48.984 60.9928 50.968C59.7128 52.984 58.4328 54.616 57.1528 55.864C55.8728 57.144 54.7848 57.784 53.8888 57.784C53.6648 57.784 53.4568 57.736 53.2648 57.64C51.9528 57.128 51.5368 55.144 52.0168 51.688C52.4648 48.456 53.6488 43.88 55.5688 37.96C55.5368 37.96 55.5048 37.976 55.4728 38.008C55.4728 38.008 55.4568 38.008 55.4248 38.008C54.7208 38.488 54.1288 38.856 53.6488 39.112C53.2008 39.368 52.5768 39.656 51.7768 39.976C51.0088 40.296 50.2728 40.44 49.5688 40.408C48.8648 40.376 48.2088 40.152 47.6008 39.736C46.3848 38.872 45.7607 37.672 45.7287 36.136C45.6967 34.6 46.2728 32.92 47.4568 31.096C48.1928 29.944 49.0728 28.936 50.0968 28.072C51.1528 27.208 52.0488 27.016 52.7848 27.496C53.2328 27.752 53.4888 28.168 53.5528 28.744C53.6488 29.32 53.3768 30.44 52.7368 32.104C52.0968 33.736 51.0248 35.88 49.5208 38.536C50.5128 38.664 52.1448 37.976 54.4168 36.472C54.8328 36.184 55.1368 35.992 55.3288 35.896C55.5528 35.768 55.7928 35.64 56.0488 35.512C56.3368 35.384 56.5768 35.336 56.7688 35.368C56.9608 35.4 57.1528 35.48 57.3448 35.608C57.8248 35.992 57.9048 36.664 57.5848 37.624C54.3848 47.544 53.1208 53.56 53.7928 55.672C53.8568 55.8 53.9048 55.896 53.9368 55.96C54.1928 55.992 54.5768 55.784 55.0888 55.336C55.6328 54.888 56.2888 54.184 57.0568 53.224C57.8568 52.264 58.7048 51.112 59.6008 49.768C60.5288 48.424 61.5368 46.776 62.6248 44.824C63.7448 42.872 64.8168 40.792 65.8408 38.584C65.9688 38.328 66.1448 38.168 66.3688 38.104ZM47.7448 34.84C47.4568 35.96 47.5208 36.856 47.9368 37.528C50.2728 33.464 51.5208 30.712 51.6808 29.272C51.2968 29.496 50.8488 29.864 50.3368 30.376C49.8568 30.888 49.3448 31.56 48.8008 32.392C48.2888 33.192 47.9368 34.008 47.7448 34.84ZM78.2514 37.96C78.5074 37.896 78.7474 37.928 78.9714 38.056C79.1954 38.184 79.3234 38.376 79.3554 38.632C79.4194 38.888 79.3874 39.128 79.2594 39.352C78.3634 40.76 77.2754 42.232 75.9954 43.768C74.7474 45.272 73.3234 46.632 71.7234 47.848C70.1554 49.064 68.8274 49.672 67.7394 49.672C67.3554 49.672 67.0194 49.608 66.7314 49.48C64.5874 48.552 64.3634 44.792 66.0594 38.2C66.1234 37.944 66.2674 37.752 66.4914 37.624C66.7154 37.496 66.9394 37.464 67.1634 37.528C67.4194 37.592 67.6114 37.736 67.7394 37.96C67.8674 38.184 67.8994 38.408 67.8354 38.632C67.4514 40.168 67.1634 41.528 66.9714 42.712C66.8114 43.864 66.7314 44.744 66.7314 45.352C66.7634 45.96 66.8274 46.472 66.9234 46.888C67.0514 47.272 67.1474 47.512 67.2114 47.608C67.3074 47.672 67.3874 47.72 67.4514 47.752C68.2834 48.104 69.7874 47.272 71.9634 45.256C74.1714 43.24 76.0754 40.936 77.6754 38.344C77.8354 38.152 78.0274 38.024 78.2514 37.96ZM67.6434 34.216C66.7154 34.152 66.4274 33.768 66.7794 33.064C67.0994 32.488 67.5154 32.104 68.0274 31.912C68.8274 31.656 69.3074 31.864 69.4674 32.536C69.6274 33.176 69.3874 33.656 68.7474 33.976C68.4274 34.136 68.0594 34.216 67.6434 34.216ZM97.2628 8.92C98.0948 9.752 97.6788 12.696 96.0148 17.752C95.8868 18.136 95.7108 18.664 95.4868 19.336C94.7828 21.48 94.2068 23.192 93.7588 24.472C93.3108 25.752 92.6068 27.544 91.6468 29.848C90.6868 32.152 89.6468 34.36 88.5268 36.472C87.5988 40.888 86.7188 45.592 85.8868 50.584C84.4468 59.128 83.6788 64.92 83.5828 67.96C83.8388 67.864 84.0948 67.864 84.3508 67.96C84.5748 68.088 84.7188 68.264 84.7828 68.488C84.8788 68.744 84.8788 68.984 84.7828 69.208C84.2068 70.424 83.6308 71.032 83.0547 71.032C82.9268 71.032 82.7988 71.016 82.6708 70.984C82.3188 70.856 82.0628 70.616 81.9028 70.264C81.7748 69.944 81.7108 69.24 81.7108 68.152C81.7428 67.096 81.8868 65.528 82.1428 63.448C82.5268 60.12 83.1668 55.736 84.0628 50.296C84.5748 47.32 85.1028 44.424 85.6468 41.608C84.6548 43.208 83.5988 44.808 82.4788 46.408C80.3668 49.48 78.5268 50.584 76.9588 49.72C75.9347 48.984 75.4387 47.688 75.4707 45.832C75.5027 43.944 75.9667 42.04 76.8628 40.12C77.9188 37.88 79.1668 36.232 80.6068 35.176C82.0468 34.12 83.3268 33.768 84.4468 34.12C85.5668 34.44 86.2068 35.272 86.3668 36.616C86.5268 36.36 86.6708 36.104 86.7988 35.848C88.4948 27.816 90.1908 21.368 91.8868 16.504C93.6148 11.608 95.0228 8.984 96.1108 8.632C96.5588 8.472 96.9428 8.568 97.2628 8.92ZM80.9908 45.352C82.4948 43.176 83.8708 41 85.1188 38.824C84.6388 38.664 84.4468 38.344 84.5428 37.864C84.6708 36.68 84.4628 36.008 83.9188 35.848C83.8548 35.848 83.7588 35.848 83.6308 35.848C82.9588 35.848 82.1268 36.296 81.1348 37.192C80.1748 38.056 79.3108 39.304 78.5428 40.936C78.0308 41.992 77.6788 43.08 77.4868 44.2C77.3268 45.288 77.2948 46.184 77.3908 46.888C77.4868 47.56 77.6628 47.96 77.9188 48.088C78.0148 48.152 78.1588 48.152 78.3508 48.088C78.5748 47.992 78.9268 47.72 79.4068 47.272C79.8868 46.792 80.4148 46.152 80.9908 45.352ZM94.2388 17.176C94.8788 15.224 95.3428 13.56 95.6308 12.184C94.0628 15.48 92.3828 20.616 90.5908 27.592C91.4868 25.416 92.5268 22.488 93.7108 18.808C93.9348 18.104 94.1108 17.56 94.2388 17.176ZM113.222 37.96C113.478 38.024 113.67 38.168 113.798 38.392C113.958 38.584 114.006 38.808 113.942 39.064C113.91 39.32 113.782 39.512 113.558 39.64C107.798 43.384 103.27 46.664 99.9736 49.48C97.9576 61.64 95.6056 70.888 92.9176 77.224C90.2296 83.56 87.6056 87.08 85.0456 87.784C84.6936 87.88 84.3576 87.928 84.0376 87.928C83.0136 87.928 82.1336 87.48 81.3976 86.584C80.0216 84.856 79.5256 82.088 79.9096 78.28C80.3576 74.184 81.7496 69.992 84.0856 65.704C87.5096 59.528 92.2296 53.8 98.2456 48.52C98.6936 45.8 99.1096 42.952 99.4936 39.976C98.4696 41.512 97.5256 42.856 96.6616 44.008C95.3176 45.768 94.1656 46.504 93.2056 46.216C92.4376 45.992 91.9896 45.288 91.8616 44.104C91.7656 42.984 91.9256 41.544 92.3416 39.784C92.7896 37.992 93.5096 36.232 94.5016 34.504C95.4936 32.776 96.5816 31.624 97.7656 31.048C99.3976 30.216 100.982 30.488 102.518 31.864C102.71 32.056 102.806 32.28 102.806 32.536C102.838 32.76 102.758 32.968 102.566 33.16C102.406 33.352 102.198 33.464 101.942 33.496C101.686 33.496 101.462 33.416 101.27 33.256C100.118 32.2 98.9496 32.2 97.7656 33.256C96.4216 34.472 95.3496 36.408 94.5496 39.064C93.7496 41.688 93.4936 43.448 93.7816 44.344C94.1336 44.12 94.5976 43.64 95.1736 42.904C97.2216 40.216 98.8696 37.768 100.118 35.56C100.374 35.144 100.742 35.016 101.222 35.176C101.702 35.304 101.91 35.624 101.846 36.136C101.398 39.816 100.918 43.336 100.406 46.696C103.382 44.264 107.43 41.4 112.55 38.104C112.774 37.944 112.998 37.896 113.222 37.96ZM84.5176 86.008C85.3816 85.784 86.3256 85.016 87.3496 83.704C88.3416 82.392 89.4296 80.472 90.6136 77.944C91.7976 75.416 93.0136 71.864 94.2616 67.288C95.5416 62.712 96.7096 57.448 97.7656 51.496C92.7096 56.168 88.6936 61.208 85.7176 66.616C84.7576 68.344 83.9736 70.072 83.3656 71.8C82.7256 73.528 82.2776 75.096 82.0216 76.504C81.7656 77.912 81.6376 79.208 81.6376 80.392C81.6376 81.608 81.7496 82.632 81.9736 83.464C82.1976 84.296 82.4856 84.952 82.8376 85.432C83.3176 86.008 83.8776 86.2 84.5176 86.008ZM124.939 37.96C125.195 37.896 125.435 37.928 125.659 38.056C125.883 38.184 126.011 38.376 126.043 38.632C126.107 38.888 126.075 39.128 125.947 39.352C125.051 40.76 123.963 42.232 122.683 43.768C121.435 45.272 120.011 46.632 118.411 47.848C116.843 49.064 115.515 49.672 114.427 49.672C114.043 49.672 113.707 49.608 113.419 49.48C111.275 48.552 111.051 44.792 112.747 38.2C112.811 37.944 112.955 37.752 113.179 37.624C113.403 37.496 113.627 37.464 113.851 37.528C114.107 37.592 114.299 37.736 114.427 37.96C114.555 38.184 114.587 38.408 114.523 38.632C114.139 40.168 113.851 41.528 113.659 42.712C113.499 43.864 113.419 44.744 113.419 45.352C113.451 45.96 113.515 46.472 113.611 46.888C113.739 47.272 113.835 47.512 113.899 47.608C113.995 47.672 114.075 47.72 114.139 47.752C114.971 48.104 116.475 47.272 118.651 45.256C120.859 43.24 122.763 40.936 124.363 38.344C124.523 38.152 124.715 38.024 124.939 37.96ZM114.331 34.216C113.403 34.152 113.115 33.768 113.467 33.064C113.787 32.488 114.203 32.104 114.715 31.912C115.515 31.656 115.995 31.864 116.155 32.536C116.315 33.176 116.075 33.656 115.435 33.976C115.115 34.136 114.747 34.216 114.331 34.216ZM142.36 38.2C142.616 38.136 142.856 38.168 143.08 38.296C143.304 38.424 143.448 38.616 143.512 38.872C143.576 39.096 143.544 39.32 143.416 39.544C142.328 41.464 141.384 42.984 140.584 44.104C139.784 45.224 138.968 46.104 138.136 46.744C137.304 47.384 136.488 47.656 135.688 47.56C134.088 47.368 132.824 45.64 131.896 42.376C131.224 40.168 130.648 39.064 130.168 39.064C130.072 39.032 129.928 39.08 129.736 39.208C129.576 39.304 129.304 39.592 128.92 40.072C128.536 40.52 128.104 41.144 127.624 41.944C127.176 42.744 126.568 43.928 125.8 45.496C125.064 47.064 124.264 48.92 123.399 51.064C123.239 51.448 122.951 51.64 122.535 51.64C122.471 51.64 122.407 51.624 122.343 51.592C121.799 51.464 121.559 51.128 121.623 50.584C121.943 47.96 123.144 43.08 125.224 35.944C125.448 35.208 125.608 34.648 125.704 34.264C125.8 34.008 125.96 33.832 126.184 33.736C126.408 33.608 126.632 33.576 126.855 33.64C127.112 33.704 127.304 33.848 127.432 34.072C127.56 34.296 127.576 34.536 127.48 34.792C127.416 35.016 127.256 35.576 127 36.472C126.296 38.936 125.752 40.856 125.368 42.232C126.392 40.312 127.288 38.984 128.056 38.248C128.824 37.512 129.56 37.16 130.264 37.192C131.096 37.224 131.752 37.656 132.232 38.488C132.744 39.32 133.224 40.456 133.672 41.896C134.376 44.36 135.128 45.64 135.928 45.736C136.312 45.8 136.776 45.592 137.32 45.112C137.896 44.6 138.504 43.88 139.144 42.952C139.784 41.992 140.264 41.24 140.584 40.696C140.936 40.152 141.336 39.464 141.784 38.632C141.912 38.408 142.104 38.264 142.36 38.2ZM162.3 37.96C162.556 38.024 162.748 38.168 162.876 38.392C163.036 38.584 163.084 38.808 163.02 39.064C162.988 39.32 162.86 39.512 162.636 39.64C156.876 43.384 152.348 46.664 149.052 49.48C147.036 61.64 144.684 70.888 141.996 77.224C139.308 83.56 136.684 87.08 134.124 87.784C133.772 87.88 133.436 87.928 133.116 87.928C132.092 87.928 131.212 87.48 130.476 86.584C129.1 84.856 128.604 82.088 128.988 78.28C129.436 74.184 130.828 69.992 133.164 65.704C136.588 59.528 141.308 53.8 147.324 48.52C147.772 45.8 148.188 42.952 148.572 39.976C147.548 41.512 146.604 42.856 145.74 44.008C144.396 45.768 143.244 46.504 142.284 46.216C141.516 45.992 141.068 45.288 140.94 44.104C140.844 42.984 141.004 41.544 141.42 39.784C141.868 37.992 142.588 36.232 143.58 34.504C144.572 32.776 145.66 31.624 146.844 31.048C148.476 30.216 150.06 30.488 151.596 31.864C151.788 32.056 151.884 32.28 151.884 32.536C151.916 32.76 151.836 32.968 151.644 33.16C151.484 33.352 151.276 33.464 151.02 33.496C150.764 33.496 150.54 33.416 150.348 33.256C149.196 32.2 148.028 32.2 146.844 33.256C145.5 34.472 144.428 36.408 143.628 39.064C142.828 41.688 142.572 43.448 142.86 44.344C143.212 44.12 143.676 43.64 144.252 42.904C146.3 40.216 147.948 37.768 149.196 35.56C149.452 35.144 149.82 35.016 150.3 35.176C150.78 35.304 150.988 35.624 150.924 36.136C150.476 39.816 149.996 43.336 149.484 46.696C152.46 44.264 156.508 41.4 161.628 38.104C161.852 37.944 162.076 37.896 162.3 37.96ZM133.596 86.008C134.46 85.784 135.404 85.016 136.428 83.704C137.42 82.392 138.508 80.472 139.692 77.944C140.876 75.416 142.092 71.864 143.34 67.288C144.62 62.712 145.788 57.448 146.844 51.496C141.788 56.168 137.772 61.208 134.796 66.616C133.836 68.344 133.052 70.072 132.444 71.8C131.804 73.528 131.356 75.096 131.1 76.504C130.844 77.912 130.716 79.208 130.716 80.392C130.716 81.608 130.828 82.632 131.052 83.464C131.276 84.296 131.564 84.952 131.916 85.432C132.396 86.008 132.956 86.2 133.596 86.008ZM210.528 6.904C212.064 8.344 213.312 10.36 214.272 12.952C215.264 15.512 215.936 18.488 216.288 21.88C216.672 25.24 216.576 29.08 216 33.4C215.424 37.688 214.368 42.072 212.832 46.552C211.296 51.064 209.536 55.048 207.552 58.504C205.568 61.992 203.552 64.76 201.504 66.808C199.456 68.856 197.424 70.392 195.408 71.416C193.424 72.44 191.504 72.952 189.648 72.952C188.656 72.952 187.728 72.824 186.864 72.568C184.72 71.896 182.912 70.52 181.44 68.44C179.968 66.36 178.928 63.704 178.32 60.472C176.976 53.272 177.824 44.184 180.864 33.208C181.408 31.256 182.032 29.336 182.736 27.448C183.44 25.56 184.24 23.688 185.136 21.832C186.064 19.976 187.04 18.312 188.064 16.84C189.088 15.368 190.208 14.088 191.424 13C192.672 11.88 193.936 11.112 195.216 10.696C195.792 10.504 196.352 10.376 196.896 10.312C198.688 7.72 200.624 6.008 202.704 5.176C205.52 4.056 208.128 4.632 210.528 6.904ZM211.104 45.976C212.544 41.72 213.536 37.528 214.08 33.4C214.656 29.272 214.784 25.608 214.464 22.408C214.176 19.176 213.584 16.344 212.688 13.912C211.792 11.448 210.656 9.56 209.28 8.248C207.424 6.52 205.456 6.072 203.376 6.904C201.904 7.48 200.48 8.664 199.104 10.456C200.224 10.712 201.312 11.256 202.368 12.088C202.56 12.248 202.672 12.456 202.704 12.712C202.736 12.968 202.672 13.192 202.512 13.384C202.352 13.576 202.144 13.688 201.888 13.72C201.664 13.752 201.44 13.688 201.216 13.528C200.128 12.696 199.04 12.248 197.952 12.184C195.456 16.12 193.328 21.944 191.568 29.656C189.84 37.368 188.72 47 188.208 58.552C188.208 58.808 188.112 59.016 187.92 59.176C187.728 59.368 187.504 59.448 187.248 59.416C186.992 59.416 186.768 59.32 186.576 59.128C186.416 58.936 186.352 58.728 186.384 58.504C186.672 51.56 187.232 45.16 188.064 39.304C188.896 33.416 189.936 28.232 191.184 23.752C192.432 19.272 193.888 15.528 195.552 12.52C193.152 13.448 190.784 15.832 188.448 19.672C186.112 23.48 184.176 28.152 182.64 33.688C181.424 38.072 180.56 42.184 180.048 46.024C179.568 49.864 179.424 53.176 179.616 55.96C179.808 58.744 180.256 61.192 180.96 63.304C181.664 65.416 182.56 67.08 183.648 68.296C184.736 69.512 185.984 70.344 187.392 70.792C189.12 71.336 191.008 71.224 193.056 70.456C195.104 69.688 197.184 68.328 199.296 66.376C201.408 64.424 203.504 61.688 205.584 58.168C207.664 54.648 209.504 50.584 211.104 45.976ZM234.669 37.96C234.925 37.896 235.149 37.944 235.341 38.104C235.565 38.232 235.709 38.424 235.773 38.68C235.837 38.936 235.789 39.16 235.629 39.352C234.573 40.984 233.645 42.36 232.845 43.48C232.077 44.6 231.197 45.8 230.205 47.08C229.213 48.328 228.301 49.32 227.469 50.056C226.669 50.824 225.821 51.448 224.925 51.928C224.029 52.44 223.181 52.696 222.381 52.696C222.093 52.696 221.805 52.664 221.517 52.6C220.365 52.344 219.485 51.672 218.877 50.584C218.237 49.144 217.965 47.576 218.061 45.88C218.125 44.152 218.461 42.456 219.069 40.792C219.709 39.032 220.509 37.672 221.469 36.712C222.461 35.752 223.389 35.416 224.253 35.704C224.445 35.768 224.621 35.864 224.781 35.992C224.941 36.088 225.133 36.312 225.357 36.664C225.581 36.984 225.693 37.416 225.693 37.96C225.693 38.504 225.597 39.208 225.405 40.072C225.341 40.328 225.197 40.52 224.973 40.648C224.781 40.776 224.557 40.808 224.301 40.744C224.045 40.68 223.853 40.536 223.725 40.312C223.597 40.088 223.565 39.864 223.629 39.64C223.949 38.424 223.965 37.688 223.677 37.432C223.549 37.432 223.341 37.528 223.053 37.72C222.797 37.912 222.445 38.344 221.997 39.016C221.549 39.656 221.149 40.472 220.797 41.464C220.221 42.968 219.901 44.504 219.837 46.072C219.805 47.608 220.029 48.808 220.509 49.672C220.829 50.28 221.293 50.648 221.901 50.776C222.445 50.904 223.053 50.824 223.725 50.536C224.429 50.248 225.165 49.736 225.933 49C226.733 48.232 227.453 47.496 228.093 46.792C228.733 46.056 229.469 45.096 230.301 43.912C231.165 42.696 231.821 41.768 232.269 41.128C232.717 40.456 233.325 39.528 234.093 38.344C234.221 38.152 234.413 38.024 234.669 37.96ZM249.256 38.152C249.512 38.088 249.736 38.136 249.928 38.296C250.152 38.424 250.28 38.616 250.312 38.872C250.344 39.128 250.296 39.352 250.168 39.544C246.552 44.6 243.256 48.184 240.28 50.296C239.096 51.128 237.928 51.544 236.776 51.544C235.88 51.544 235.096 51.304 234.424 50.824C234.04 50.536 233.704 50.152 233.416 49.672C233.096 49.192 232.824 48.52 232.6 47.656C232.376 46.792 232.344 45.656 232.504 44.248C232.632 42.84 232.984 41.24 233.56 39.448V39.4C234.456 36.488 235.544 34.184 236.824 32.488C238.104 30.792 239.256 29.928 240.28 29.896C241.016 29.864 241.496 30.184 241.72 30.856C242.072 31.784 241.656 33.096 240.472 34.792C239.288 36.488 237.544 38.312 235.24 40.264C234.856 41.512 234.584 42.664 234.424 43.72C234.264 44.776 234.2 45.624 234.232 46.264C234.296 46.872 234.408 47.416 234.568 47.896C234.76 48.344 234.92 48.664 235.048 48.856C235.208 49.048 235.368 49.208 235.528 49.336C236.488 50.04 237.72 49.848 239.224 48.76C242.04 46.776 245.176 43.352 248.632 38.488C248.792 38.296 249 38.184 249.256 38.152ZM239.944 31.912C238.824 32.616 237.72 34.136 236.632 36.472C238.488 34.616 239.592 33.096 239.944 31.912ZM267.346 38.296C267.602 38.2 267.842 38.216 268.066 38.344C268.29 38.44 268.434 38.616 268.498 38.872C268.594 39.096 268.594 39.32 268.498 39.544C265.074 46.616 262.018 50.152 259.33 50.152C259.17 50.152 258.994 50.136 258.802 50.104C256.658 49.688 255.33 46.808 254.818 41.464C253.25 43.576 251.858 45.304 250.642 46.648C249.554 47.8 248.626 48.2 247.858 47.848C247.09 47.56 246.722 46.728 246.754 45.352C246.754 44.2 247.01 42.824 247.522 41.224C248.034 39.624 248.786 38.072 249.778 36.568C250.77 35.064 251.842 34.12 252.994 33.736C254.69 33.128 256.258 33.688 257.698 35.416C257.858 35.608 257.922 35.832 257.89 36.088C257.89 36.344 257.794 36.552 257.602 36.712C257.41 36.872 257.186 36.952 256.93 36.952C256.674 36.92 256.466 36.808 256.306 36.616C255.186 35.272 254.05 35.016 252.898 35.848C251.586 36.776 250.482 38.456 249.586 40.888C248.722 43.288 248.386 45 248.578 46.024C248.77 45.864 248.994 45.656 249.25 45.4C250.53 44.024 252.098 42.056 253.954 39.496C254.37 38.92 254.658 38.52 254.818 38.296C255.074 37.976 255.41 37.88 255.826 38.008C256.242 38.104 256.466 38.376 256.498 38.824C256.562 40.392 256.69 41.784 256.882 43C257.074 44.216 257.266 45.144 257.458 45.784C257.65 46.392 257.874 46.904 258.13 47.32C258.386 47.736 258.578 48.008 258.706 48.136C258.866 48.232 259.026 48.28 259.186 48.28C259.634 48.376 260.194 48.168 260.866 47.656C261.57 47.112 262.45 46.088 263.506 44.584C264.594 43.048 265.698 41.112 266.818 38.776C266.946 38.52 267.122 38.36 267.346 38.296ZM285 38.2C285.256 38.136 285.496 38.168 285.72 38.296C285.944 38.424 286.088 38.616 286.152 38.872C286.216 39.096 286.184 39.32 286.056 39.544C284.968 41.464 284.024 42.984 283.224 44.104C282.424 45.224 281.608 46.104 280.776 46.744C279.944 47.384 279.128 47.656 278.328 47.56C276.728 47.368 275.464 45.64 274.536 42.376C273.864 40.168 273.288 39.064 272.808 39.064C272.712 39.032 272.568 39.08 272.376 39.208C272.216 39.304 271.944 39.592 271.56 40.072C271.176 40.52 270.744 41.144 270.264 41.944C269.816 42.744 269.208 43.928 268.44 45.496C267.704 47.064 266.904 48.92 266.04 51.064C265.88 51.448 265.592 51.64 265.176 51.64C265.112 51.64 265.048 51.624 264.984 51.592C264.44 51.464 264.2 51.128 264.264 50.584C264.584 47.96 265.784 43.08 267.864 35.944C268.088 35.208 268.248 34.648 268.344 34.264C268.44 34.008 268.6 33.832 268.824 33.736C269.048 33.608 269.272 33.576 269.496 33.64C269.752 33.704 269.944 33.848 270.072 34.072C270.2 34.296 270.216 34.536 270.12 34.792C270.056 35.016 269.896 35.576 269.64 36.472C268.936 38.936 268.392 40.856 268.008 42.232C269.032 40.312 269.928 38.984 270.696 38.248C271.464 37.512 272.2 37.16 272.904 37.192C273.736 37.224 274.392 37.656 274.872 38.488C275.384 39.32 275.864 40.456 276.312 41.896C277.016 44.36 277.768 45.64 278.568 45.736C278.952 45.8 279.416 45.592 279.96 45.112C280.536 44.6 281.144 43.88 281.784 42.952C282.424 41.992 282.904 41.24 283.224 40.696C283.576 40.152 283.976 39.464 284.424 38.632C284.552 38.408 284.744 38.264 285 38.2ZM304.22 37.768C304.476 37.736 304.7 37.816 304.892 38.008C305.084 38.168 305.196 38.376 305.228 38.632C305.26 38.888 305.18 39.112 304.988 39.304C298.78 46.536 295.228 50.712 294.332 51.832C293.788 52.536 293.26 53.224 292.748 53.896C293.196 55.72 293.228 57.48 292.844 59.176C292.46 60.872 291.916 62.328 291.212 63.544C290.508 64.76 289.676 65.752 288.716 66.52C287.82 67.288 286.988 67.672 286.22 67.672C285.74 67.672 285.34 67.512 285.02 67.192C283.324 65.56 285.228 61 290.732 53.512C290.38 52.296 289.82 51.112 289.052 49.96C287.452 47.56 286.268 45.56 285.5 43.96C284.732 42.36 284.38 40.904 284.444 39.592C284.508 38.312 284.844 37.16 285.452 36.136C286.092 35.112 286.94 34.28 287.996 33.64C288.892 33.096 289.836 32.776 290.828 32.68C291.82 32.584 292.732 32.728 293.564 33.112C293.788 33.24 293.932 33.432 293.996 33.688C294.092 33.912 294.076 34.136 293.948 34.36C293.852 34.584 293.676 34.744 293.42 34.84C293.196 34.904 292.972 34.888 292.748 34.792C291.596 34.248 290.332 34.392 288.956 35.224C287.292 36.216 286.412 37.704 286.316 39.688C286.252 40.744 286.588 42.008 287.324 43.48C288.06 44.92 289.148 46.728 290.588 48.904C291.196 49.832 291.692 50.776 292.076 51.736C292.332 51.416 292.604 51.064 292.892 50.68C293.788 49.56 297.356 45.368 303.596 38.104C303.756 37.912 303.964 37.8 304.22 37.768ZM289.292 63.112C290.7 60.968 291.324 58.616 291.164 56.056C289.82 57.976 288.732 59.688 287.9 61.192C287.1 62.696 286.604 63.768 286.412 64.408C286.252 65.08 286.204 65.544 286.268 65.8C286.556 65.768 286.988 65.512 287.564 65.032C288.14 64.584 288.716 63.944 289.292 63.112ZM337.003 38.296C337.259 38.2 337.499 38.216 337.723 38.344C337.947 38.44 338.091 38.616 338.155 38.872C338.251 39.096 338.251 39.32 338.155 39.544C334.731 46.616 331.675 50.152 328.987 50.152C328.827 50.152 328.651 50.136 328.459 50.104C326.315 49.688 324.987 46.808 324.475 41.464C322.907 43.576 321.515 45.304 320.299 46.648C319.211 47.8 318.283 48.2 317.514 47.848C316.746 47.56 316.378 46.728 316.41 45.352C316.41 44.2 316.666 42.824 317.178 41.224C317.691 39.624 318.443 38.072 319.435 36.568C320.427 35.064 321.499 34.12 322.651 33.736C324.347 33.128 325.915 33.688 327.355 35.416C327.515 35.608 327.579 35.832 327.547 36.088C327.547 36.344 327.451 36.552 327.259 36.712C327.067 36.872 326.843 36.952 326.587 36.952C326.331 36.92 326.123 36.808 325.963 36.616C324.843 35.272 323.707 35.016 322.555 35.848C321.243 36.776 320.139 38.456 319.243 40.888C318.379 43.288 318.043 45 318.235 46.024C318.427 45.864 318.651 45.656 318.907 45.4C320.187 44.024 321.755 42.056 323.611 39.496C324.027 38.92 324.315 38.52 324.475 38.296C324.731 37.976 325.067 37.88 325.483 38.008C325.899 38.104 326.123 38.376 326.155 38.824C326.219 40.392 326.347 41.784 326.539 43C326.731 44.216 326.923 45.144 327.115 45.784C327.307 46.392 327.531 46.904 327.787 47.32C328.043 47.736 328.235 48.008 328.363 48.136C328.523 48.232 328.683 48.28 328.843 48.28C329.291 48.376 329.851 48.168 330.523 47.656C331.227 47.112 332.107 46.088 333.163 44.584C334.251 43.048 335.355 41.112 336.475 38.776C336.603 38.52 336.779 38.36 337.003 38.296ZM354.656 38.2C354.912 38.136 355.152 38.168 355.376 38.296C355.6 38.424 355.744 38.616 355.808 38.872C355.872 39.096 355.84 39.32 355.712 39.544C354.624 41.464 353.68 42.984 352.88 44.104C352.08 45.224 351.264 46.104 350.432 46.744C349.6 47.384 348.784 47.656 347.984 47.56C346.384 47.368 345.12 45.64 344.192 42.376C343.52 40.168 342.944 39.064 342.464 39.064C342.368 39.032 342.224 39.08 342.032 39.208C341.872 39.304 341.6 39.592 341.216 40.072C340.832 40.52 340.4 41.144 339.92 41.944C339.472 42.744 338.864 43.928 338.096 45.496C337.36 47.064 336.56 48.92 335.696 51.064C335.536 51.448 335.248 51.64 334.832 51.64C334.768 51.64 334.704 51.624 334.64 51.592C334.096 51.464 333.856 51.128 333.92 50.584C334.24 47.96 335.44 43.08 337.52 35.944C337.744 35.208 337.904 34.648 338 34.264C338.096 34.008 338.256 33.832 338.48 33.736C338.704 33.608 338.928 33.576 339.152 33.64C339.408 33.704 339.6 33.848 339.728 34.072C339.856 34.296 339.872 34.536 339.776 34.792C339.712 35.016 339.552 35.576 339.296 36.472C338.592 38.936 338.048 40.856 337.664 42.232C338.688 40.312 339.584 38.984 340.352 38.248C341.12 37.512 341.856 37.16 342.56 37.192C343.392 37.224 344.048 37.656 344.528 38.488C345.04 39.32 345.52 40.456 345.968 41.896C346.672 44.36 347.424 45.64 348.224 45.736C348.608 45.8 349.072 45.592 349.616 45.112C350.192 44.6 350.8 43.88 351.44 42.952C352.08 41.992 352.56 41.24 352.88 40.696C353.232 40.152 353.632 39.464 354.08 38.632C354.208 38.408 354.4 38.264 354.656 38.2ZM373.685 8.92C374.517 9.752 374.101 12.696 372.437 17.752C372.309 18.136 372.133 18.664 371.909 19.336C371.205 21.48 370.629 23.192 370.181 24.472C369.733 25.752 369.029 27.544 368.069 29.848C367.109 32.152 366.069 34.36 364.949 36.472C364.021 40.888 363.141 45.592 362.309 50.584C360.869 59.128 360.101 64.92 360.005 67.96C360.261 67.864 360.517 67.864 360.773 67.96C360.997 68.088 361.141 68.264 361.205 68.488C361.301 68.744 361.301 68.984 361.205 69.208C360.629 70.424 360.053 71.032 359.477 71.032C359.349 71.032 359.221 71.016 359.093 70.984C358.741 70.856 358.485 70.616 358.325 70.264C358.197 69.944 358.133 69.24 358.133 68.152C358.165 67.096 358.309 65.528 358.565 63.448C358.949 60.12 359.589 55.736 360.485 50.296C360.997 47.32 361.525 44.424 362.069 41.608C361.077 43.208 360.021 44.808 358.901 46.408C356.789 49.48 354.949 50.584 353.381 49.72C352.357 48.984 351.861 47.688 351.893 45.832C351.925 43.944 352.389 42.04 353.285 40.12C354.341 37.88 355.589 36.232 357.029 35.176C358.469 34.12 359.749 33.768 360.869 34.12C361.989 34.44 362.629 35.272 362.789 36.616C362.949 36.36 363.093 36.104 363.221 35.848C364.917 27.816 366.613 21.368 368.309 16.504C370.037 11.608 371.445 8.984 372.533 8.632C372.981 8.472 373.365 8.568 373.685 8.92ZM357.413 45.352C358.917 43.176 360.293 41 361.541 38.824C361.061 38.664 360.869 38.344 360.965 37.864C361.093 36.68 360.885 36.008 360.341 35.848C360.277 35.848 360.181 35.848 360.053 35.848C359.381 35.848 358.549 36.296 357.557 37.192C356.597 38.056 355.733 39.304 354.965 40.936C354.453 41.992 354.101 43.08 353.909 44.2C353.749 45.288 353.717 46.184 353.813 46.888C353.909 47.56 354.085 47.96 354.341 48.088C354.437 48.152 354.581 48.152 354.773 48.088C354.997 47.992 355.349 47.72 355.829 47.272C356.309 46.792 356.837 46.152 357.413 45.352ZM370.661 17.176C371.301 15.224 371.765 13.56 372.053 12.184C370.485 15.48 368.805 20.616 367.013 27.592C367.909 25.416 368.949 22.488 370.133 18.808C370.357 18.104 370.533 17.56 370.661 17.176ZM429.178 37.672C429.434 37.704 429.642 37.832 429.802 38.056C429.962 38.248 430.01 38.472 429.946 38.728C429.914 38.952 429.786 39.144 429.562 39.304C424.602 42.856 420.074 46.216 415.978 49.384C416.394 50.696 416.442 52.136 416.122 53.704C415.61 56.296 414.666 58.824 413.29 61.288C411.946 63.752 410.394 65.912 408.634 67.768C406.906 69.624 405.066 71.272 403.114 72.712C401.194 74.152 399.354 75.256 397.594 76.024C395.866 76.792 394.346 77.224 393.034 77.32C392.842 77.352 392.666 77.368 392.506 77.368C390.97 77.368 389.994 76.792 389.578 75.64C388.842 73.624 390.554 70.312 394.714 65.704C398.874 61.096 405.21 55.464 413.722 48.808C412.762 47.048 410.874 45.432 408.058 43.96C405.242 42.456 400.794 40.472 394.714 38.008C393.05 37.336 391.77 36.808 390.874 36.424C388.57 35.464 386.97 34.168 386.074 32.536C385.178 30.904 385.066 29.032 385.738 26.92C386.57 24.232 388.586 21.32 391.786 18.184C394.986 15.016 398.474 12.248 402.25 9.88C406.058 7.512 409.882 5.624 413.722 4.216C417.594 2.808 420.586 2.344 422.698 2.824C423.178 2.92 423.61 3.08 423.994 3.304C424.41 3.496 424.826 3.8 425.242 4.216C425.658 4.632 425.946 5.208 426.106 5.944C426.298 6.648 426.33 7.496 426.202 8.488C426.17 8.648 426.106 8.792 426.01 8.92C425.914 9.048 425.786 9.144 425.626 9.208C425.466 9.272 425.306 9.288 425.146 9.256C424.89 9.224 424.682 9.112 424.522 8.92C424.362 8.696 424.298 8.456 424.33 8.2C424.522 7.016 424.41 6.168 423.994 5.656C423.61 5.144 423.05 4.808 422.314 4.648C421.13 4.36 419.53 4.456 417.514 4.936C415.498 5.416 413.242 6.232 410.746 7.384C408.282 8.504 405.77 9.896 403.21 11.56C399.082 14.152 395.61 16.872 392.794 19.72C389.978 22.568 388.218 25.144 387.514 27.448C386.458 30.744 387.818 33.176 391.594 34.744C392.458 35.096 393.738 35.608 395.434 36.28C397.546 37.144 399.114 37.8 400.138 38.248C401.162 38.664 402.506 39.24 404.17 39.976C405.834 40.68 407.114 41.288 408.01 41.8C408.906 42.312 409.882 42.904 410.938 43.576C411.994 44.248 412.858 44.92 413.53 45.592C414.202 46.232 414.762 46.92 415.21 47.656C419.242 44.52 423.674 41.24 428.506 37.816C428.73 37.656 428.954 37.608 429.178 37.672ZM414.346 53.32C414.538 52.36 414.554 51.464 414.394 50.632C407.578 55.976 402.17 60.68 398.17 64.744C395.834 67.144 394.042 69.272 392.794 71.128C391.546 73.016 391.05 74.312 391.306 75.016C391.434 75.4 391.962 75.56 392.89 75.496C393.978 75.4 395.306 75 396.874 74.296C398.474 73.592 400.17 72.568 401.962 71.224C403.786 69.88 405.514 68.344 407.146 66.616C408.81 64.92 410.298 62.888 411.61 60.52C412.922 58.184 413.834 55.784 414.346 53.32ZM447.969 38.104C448.225 38.04 448.449 38.072 448.641 38.2C448.865 38.328 449.009 38.52 449.073 38.776C449.137 39.032 449.105 39.256 448.977 39.448C447.185 42.36 444.721 45.176 441.585 47.896C438.449 50.584 435.793 51.928 433.617 51.928C433.361 51.928 433.121 51.912 432.897 51.88C431.361 51.592 430.417 50.488 430.065 48.568C430.001 48.28 430.049 48.024 430.209 47.8C430.401 47.544 430.785 47.176 431.361 46.696C432.545 45.672 433.409 44.808 433.953 44.104C434.337 43.592 434.657 43.064 434.913 42.52C435.169 41.944 435.329 41.48 435.393 41.128C435.457 40.744 435.457 40.44 435.393 40.216C434.657 40.504 433.697 41.576 432.513 43.432C431.649 44.776 430.769 46.456 429.873 48.472C429.009 50.488 428.353 52.168 427.905 53.512C427.457 54.856 426.865 56.696 426.129 59.032L425.889 59.704C425.761 60.12 425.473 60.328 425.025 60.328C424.961 60.328 424.913 60.328 424.881 60.328C424.721 60.296 424.593 60.232 424.497 60.136C424.369 60.072 424.273 59.96 424.209 59.8C424.145 59.672 424.113 59.528 424.113 59.368C424.113 58.664 424.945 54.6 426.609 47.176C428.241 39.752 429.857 32.616 431.457 25.768C431.489 25.704 431.505 25.624 431.505 25.528C432.081 23.128 432.529 21.256 432.849 19.912C433.937 15.496 435.185 11.736 436.593 8.632C438.033 5.528 439.281 3.864 440.337 3.64C440.849 3.544 441.265 3.72 441.585 4.168C441.937 4.584 441.985 5.448 441.729 6.76C441.505 8.072 441.041 9.672 440.337 11.56C439.633 13.448 438.673 15.656 437.457 18.184C436.241 20.68 434.849 23.352 433.281 26.2C431.713 32.824 430.145 39.704 428.577 46.84C429.345 45.144 430.129 43.672 430.929 42.424C432.753 39.608 434.321 38.248 435.633 38.344C436.305 38.408 436.769 38.76 437.025 39.4C437.345 40.072 437.345 40.968 437.025 42.088C436.705 43.176 436.161 44.232 435.393 45.256C434.785 46.024 433.841 46.968 432.561 48.088C432.273 48.344 432.081 48.52 431.985 48.616C432.209 49.448 432.625 49.928 433.233 50.056C434.673 50.312 436.897 49.24 439.905 46.84C442.945 44.44 445.441 41.656 447.393 38.488C447.521 38.264 447.713 38.136 447.969 38.104ZM439.953 6.328C438.225 8.856 436.593 13.032 435.057 18.856C437.841 13.192 439.473 9.016 439.953 6.328ZM460.048 37.96C460.304 37.896 460.544 37.928 460.768 38.056C460.992 38.184 461.12 38.376 461.152 38.632C461.216 38.888 461.184 39.128 461.056 39.352C460.16 40.76 459.072 42.232 457.792 43.768C456.544 45.272 455.12 46.632 453.52 47.848C451.952 49.064 450.624 49.672 449.536 49.672C449.152 49.672 448.816 49.608 448.528 49.48C446.384 48.552 446.16 44.792 447.856 38.2C447.92 37.944 448.064 37.752 448.288 37.624C448.512 37.496 448.736 37.464 448.96 37.528C449.216 37.592 449.408 37.736 449.536 37.96C449.664 38.184 449.696 38.408 449.632 38.632C449.248 40.168 448.96 41.528 448.768 42.712C448.608 43.864 448.528 44.744 448.528 45.352C448.56 45.96 448.624 46.472 448.72 46.888C448.848 47.272 448.944 47.512 449.008 47.608C449.104 47.672 449.184 47.72 449.248 47.752C450.08 48.104 451.584 47.272 453.76 45.256C455.968 43.24 457.872 40.936 459.472 38.344C459.632 38.152 459.824 38.024 460.048 37.96ZM449.44 34.216C448.512 34.152 448.224 33.768 448.576 33.064C448.896 32.488 449.312 32.104 449.824 31.912C450.624 31.656 451.104 31.864 451.264 32.536C451.424 33.176 451.184 33.656 450.544 33.976C450.224 34.136 449.856 34.216 449.44 34.216ZM474.397 38.152C474.653 38.088 474.877 38.136 475.069 38.296C475.293 38.424 475.421 38.616 475.453 38.872C475.485 39.128 475.437 39.352 475.309 39.544C471.693 44.6 468.397 48.184 465.421 50.296C464.237 51.128 463.069 51.544 461.917 51.544C461.021 51.544 460.237 51.304 459.565 50.824C459.181 50.536 458.845 50.152 458.557 49.672C458.237 49.192 457.965 48.52 457.741 47.656C457.517 46.792 457.485 45.656 457.645 44.248C457.773 42.84 458.125 41.24 458.701 39.448V39.4C459.597 36.488 460.685 34.184 461.965 32.488C463.245 30.792 464.397 29.928 465.421 29.896C466.157 29.864 466.637 30.184 466.861 30.856C467.213 31.784 466.797 33.096 465.613 34.792C464.429 36.488 462.685 38.312 460.381 40.264C459.997 41.512 459.725 42.664 459.565 43.72C459.405 44.776 459.341 45.624 459.373 46.264C459.437 46.872 459.549 47.416 459.709 47.896C459.901 48.344 460.061 48.664 460.189 48.856C460.349 49.048 460.509 49.208 460.669 49.336C461.629 50.04 462.861 49.848 464.365 48.76C467.181 46.776 470.317 43.352 473.773 38.488C473.933 38.296 474.141 38.184 474.397 38.152ZM465.085 31.912C463.965 32.616 462.861 34.136 461.773 36.472C463.629 34.616 464.733 33.096 465.085 31.912ZM493.502 37.768C493.758 37.736 493.982 37.816 494.174 38.008C494.366 38.168 494.478 38.376 494.51 38.632C494.542 38.888 494.462 39.112 494.27 39.304C488.062 46.536 484.51 50.712 483.614 51.832C483.07 52.536 482.542 53.224 482.03 53.896C482.478 55.72 482.51 57.48 482.126 59.176C481.742 60.872 481.198 62.328 480.494 63.544C479.79 64.76 478.958 65.752 477.998 66.52C477.102 67.288 476.27 67.672 475.502 67.672C475.022 67.672 474.622 67.512 474.302 67.192C472.606 65.56 474.51 61 480.014 53.512C479.662 52.296 479.102 51.112 478.334 49.96C476.734 47.56 475.55 45.56 474.782 43.96C474.014 42.36 473.662 40.904 473.726 39.592C473.79 38.312 474.126 37.16 474.734 36.136C475.374 35.112 476.222 34.28 477.278 33.64C478.174 33.096 479.118 32.776 480.11 32.68C481.102 32.584 482.014 32.728 482.846 33.112C483.07 33.24 483.214 33.432 483.278 33.688C483.374 33.912 483.358 34.136 483.23 34.36C483.134 34.584 482.958 34.744 482.702 34.84C482.478 34.904 482.254 34.888 482.03 34.792C480.878 34.248 479.614 34.392 478.238 35.224C476.574 36.216 475.694 37.704 475.598 39.688C475.534 40.744 475.87 42.008 476.606 43.48C477.342 44.92 478.43 46.728 479.87 48.904C480.478 49.832 480.974 50.776 481.358 51.736C481.614 51.416 481.886 51.064 482.174 50.68C483.07 49.56 486.638 45.368 492.878 38.104C493.038 37.912 493.246 37.8 493.502 37.768ZM478.574 63.112C479.982 60.968 480.606 58.616 480.446 56.056C479.102 57.976 478.014 59.688 477.182 61.192C476.382 62.696 475.886 63.768 475.694 64.408C475.534 65.08 475.486 65.544 475.55 65.8C475.838 65.768 476.27 65.512 476.846 65.032C477.422 64.584 477.998 63.944 478.574 63.112ZM516.636 36.28C516.892 36.248 517.116 36.312 517.308 36.472C517.532 36.632 517.66 36.84 517.692 37.096C517.724 37.352 517.66 37.576 517.5 37.768C517.34 37.96 517.132 38.072 516.876 38.104C514.54 38.424 512.364 38.68 510.348 38.872C508.492 46.52 506.764 54.216 505.164 61.96C503.564 69.704 502.524 75.24 502.044 78.568C502.076 78.568 502.124 78.568 502.188 78.568C502.412 78.664 502.588 78.824 502.716 79.048C502.812 79.304 502.812 79.544 502.716 79.768C502.524 80.312 502.38 80.712 502.284 80.968C502.156 81.256 501.98 81.528 501.756 81.784C501.532 82.04 501.292 82.168 501.036 82.168C500.94 82.168 500.844 82.152 500.748 82.12C500.268 81.992 500.028 81.56 500.028 80.824C499.996 80.12 500.204 78.344 500.652 75.496C501.228 72.04 502.108 67.528 503.292 61.96C504.86 54.312 506.572 46.664 508.428 39.016C507.34 39.112 506.06 39.224 504.588 39.352C504.556 39.352 504.524 39.352 504.492 39.352C504.332 39.352 504.188 39.32 504.06 39.256C503.932 39.16 503.836 39.048 503.772 38.92C503.676 38.792 503.612 38.648 503.58 38.488C503.58 38.232 503.66 38.008 503.82 37.816C503.98 37.624 504.188 37.512 504.444 37.48C506.236 37.352 507.708 37.24 508.86 37.144C509.692 33.816 510.46 30.792 511.164 28.072C511.452 26.952 511.772 25.8 512.124 24.616C512.508 23.4 513.004 21.96 513.612 20.296C514.22 18.6 514.876 17.208 515.58 16.12C516.284 15 516.956 14.392 517.596 14.296C518.14 14.2 518.572 14.392 518.892 14.872C519.66 16.024 519.26 18.552 517.692 22.456C516.156 26.36 514.076 30.392 511.452 34.552C511.42 34.584 511.404 34.616 511.404 34.648C511.244 35.256 511.052 36.024 510.828 36.952C512.556 36.792 514.492 36.568 516.636 36.28ZM517.356 16.84C515.948 18.952 514.508 22.728 513.036 28.168C515.596 23.368 517.036 19.592 517.356 16.84ZM534.471 38.344C534.727 38.312 534.951 38.376 535.143 38.536C535.367 38.696 535.495 38.904 535.527 39.16C535.559 39.416 535.495 39.64 535.335 39.832C534.023 41.528 532.455 42.856 530.631 43.816C528.807 44.776 527.095 45.08 525.495 44.728C525.047 45.816 524.423 46.68 523.623 47.32C522.823 47.928 521.991 48.232 521.127 48.232H521.079C520.215 48.2 519.447 47.912 518.775 47.368C518.135 46.792 517.687 46.008 517.431 45.016C517.015 43.448 517.095 41.96 517.671 40.552C518.215 39.112 519.015 38.056 520.071 37.384C520.295 37.224 520.551 37.192 520.839 37.288C521.127 36.584 521.527 36.04 522.039 35.656C522.583 35.272 523.143 35.128 523.719 35.224C524.039 35.288 524.327 35.432 524.583 35.656C524.871 35.848 525.143 36.168 525.399 36.616C525.687 37.064 525.895 37.752 526.023 38.68C526.151 39.608 526.183 40.712 526.119 41.992C526.087 42.312 526.039 42.632 525.975 42.952C527.191 43.208 528.535 42.904 530.007 42.04C531.511 41.176 532.791 40.056 533.847 38.68C534.007 38.488 534.215 38.376 534.471 38.344ZM521.127 46.36C521.575 46.36 522.039 46.152 522.519 45.736C523.031 45.32 523.447 44.76 523.767 44.056C521.687 42.904 520.599 41.336 520.503 39.352C519.863 39.96 519.415 40.776 519.159 41.8C518.935 42.824 518.951 43.72 519.207 44.488C519.559 45.736 520.199 46.36 521.127 46.36ZM524.247 41.896C524.311 41.128 524.311 40.472 524.247 39.928C524.215 39.352 524.167 38.888 524.103 38.536C524.039 38.184 523.959 37.896 523.863 37.672C523.767 37.448 523.671 37.288 523.575 37.192C523.511 37.096 523.463 37.048 523.431 37.048H523.383C523.255 37.048 523.095 37.16 522.903 37.384C522.711 37.576 522.567 37.848 522.471 38.2C522.279 38.872 522.311 39.56 522.567 40.264C522.823 40.968 523.383 41.608 524.247 42.184C524.247 42.088 524.247 41.992 524.247 41.896ZM553.213 38.104C553.469 38.008 553.709 38.024 553.933 38.152C554.157 38.248 554.317 38.424 554.413 38.68C554.509 38.904 554.493 39.128 554.365 39.352C553.501 41.208 552.525 43.112 551.437 45.064C550.349 47.016 549.149 48.984 547.837 50.968C546.557 52.984 545.277 54.616 543.997 55.864C542.717 57.144 541.629 57.784 540.733 57.784C540.509 57.784 540.301 57.736 540.109 57.64C538.797 57.128 538.381 55.144 538.861 51.688C539.309 48.456 540.493 43.88 542.413 37.96C542.381 37.96 542.349 37.976 542.317 38.008C542.317 38.008 542.301 38.008 542.269 38.008C541.565 38.488 540.973 38.856 540.493 39.112C540.045 39.368 539.421 39.656 538.621 39.976C537.853 40.296 537.117 40.44 536.413 40.408C535.709 40.376 535.053 40.152 534.445 39.736C533.229 38.872 532.604 37.672 532.572 36.136C532.54 34.6 533.117 32.92 534.301 31.096C535.037 29.944 535.917 28.936 536.941 28.072C537.997 27.208 538.893 27.016 539.629 27.496C540.077 27.752 540.333 28.168 540.397 28.744C540.493 29.32 540.221 30.44 539.581 32.104C538.941 33.736 537.869 35.88 536.365 38.536C537.357 38.664 538.989 37.976 541.261 36.472C541.677 36.184 541.981 35.992 542.173 35.896C542.397 35.768 542.637 35.64 542.893 35.512C543.181 35.384 543.421 35.336 543.613 35.368C543.805 35.4 543.997 35.48 544.189 35.608C544.669 35.992 544.749 36.664 544.429 37.624C541.229 47.544 539.965 53.56 540.637 55.672C540.701 55.8 540.749 55.896 540.781 55.96C541.037 55.992 541.421 55.784 541.933 55.336C542.477 54.888 543.133 54.184 543.901 53.224C544.701 52.264 545.549 51.112 546.445 49.768C547.373 48.424 548.381 46.776 549.469 44.824C550.589 42.872 551.661 40.792 552.685 38.584C552.813 38.328 552.989 38.168 553.213 38.104ZM534.589 34.84C534.301 35.96 534.365 36.856 534.781 37.528C537.117 33.464 538.365 30.712 538.525 29.272C538.141 29.496 537.693 29.864 537.181 30.376C536.701 30.888 536.189 31.56 535.645 32.392C535.133 33.192 534.781 34.008 534.589 34.84ZM589.647 38.056C589.903 38.088 590.095 38.216 590.223 38.44C590.383 38.632 590.431 38.856 590.367 39.112C590.303 39.368 590.175 39.56 589.983 39.688C584.319 43.368 579.679 47.032 576.063 50.68C574.175 61.976 572.111 71.144 569.871 78.184C567.215 86.472 564.639 90.968 562.143 91.672C561.919 91.736 561.679 91.768 561.423 91.768C560.687 91.768 560.047 91.448 559.503 90.808C558.607 89.656 558.127 87.752 558.063 85.096C557.967 82.44 558.383 79.304 559.311 75.688C560.207 72.072 561.519 68.584 563.247 65.224C566.287 59.432 569.999 54.28 574.383 49.768C574.863 46.76 575.343 43.608 575.823 40.312C574.831 41.816 573.903 43.08 573.039 44.104C571.631 45.832 570.287 46.312 569.007 45.544C567.951 44.904 567.391 43.576 567.327 41.56C567.263 39.512 567.727 37.288 568.719 34.888C568.815 34.664 568.975 34.504 569.199 34.408C569.455 34.312 569.695 34.312 569.919 34.408C570.143 34.504 570.303 34.664 570.399 34.888C570.527 35.112 570.543 35.352 570.447 35.608C569.583 37.944 569.151 39.848 569.151 41.32C569.183 42.792 569.455 43.672 569.967 43.96C570.319 44.184 570.863 43.848 571.599 42.952C573.199 41.032 574.847 38.6 576.543 35.656C576.799 35.208 577.167 35.08 577.647 35.272C578.127 35.432 578.335 35.752 578.271 36.232C577.727 40.232 577.167 44.024 576.591 47.608C579.887 44.536 584.015 41.384 588.975 38.152C589.167 38.024 589.391 37.992 589.647 38.056ZM568.095 77.656C570.143 71.256 572.047 63.08 573.807 53.128C570.351 56.968 567.375 61.288 564.879 66.088C563.503 68.712 562.415 71.384 561.615 74.104C560.783 76.856 560.271 79.256 560.079 81.304C559.887 83.352 559.871 85.112 560.031 86.584C560.191 88.056 560.495 89.064 560.943 89.608C561.167 89.864 561.391 89.96 561.615 89.896C561.775 89.864 561.951 89.784 562.143 89.656C562.335 89.528 562.655 89.192 563.103 88.648C563.551 88.136 563.999 87.464 564.447 86.632C564.895 85.832 565.455 84.648 566.127 83.08C566.799 81.512 567.455 79.704 568.095 77.656ZM604.736 38.344C604.992 38.312 605.216 38.376 605.408 38.536C605.632 38.696 605.76 38.904 605.792 39.16C605.824 39.416 605.76 39.64 605.6 39.832C604.288 41.528 602.72 42.856 600.896 43.816C599.072 44.776 597.36 45.08 595.76 44.728C595.312 45.816 594.688 46.68 593.888 47.32C593.088 47.928 592.256 48.232 591.392 48.232H591.344C590.48 48.2 589.712 47.912 589.04 47.368C588.4 46.792 587.952 46.008 587.696 45.016C587.28 43.448 587.36 41.96 587.936 40.552C588.48 39.112 589.28 38.056 590.336 37.384C590.56 37.224 590.816 37.192 591.104 37.288C591.392 36.584 591.792 36.04 592.304 35.656C592.848 35.272 593.408 35.128 593.984 35.224C594.304 35.288 594.592 35.432 594.848 35.656C595.136 35.848 595.408 36.168 595.664 36.616C595.952 37.064 596.16 37.752 596.288 38.68C596.416 39.608 596.448 40.712 596.384 41.992C596.352 42.312 596.304 42.632 596.24 42.952C597.456 43.208 598.8 42.904 600.272 42.04C601.776 41.176 603.056 40.056 604.112 38.68C604.272 38.488 604.48 38.376 604.736 38.344ZM591.392 46.36C591.84 46.36 592.304 46.152 592.784 45.736C593.296 45.32 593.712 44.76 594.032 44.056C591.952 42.904 590.864 41.336 590.768 39.352C590.128 39.96 589.68 40.776 589.424 41.8C589.2 42.824 589.216 43.72 589.472 44.488C589.824 45.736 590.464 46.36 591.392 46.36ZM594.512 41.896C594.576 41.128 594.576 40.472 594.512 39.928C594.48 39.352 594.432 38.888 594.368 38.536C594.304 38.184 594.224 37.896 594.128 37.672C594.032 37.448 593.936 37.288 593.84 37.192C593.776 37.096 593.728 37.048 593.696 37.048H593.648C593.52 37.048 593.36 37.16 593.168 37.384C592.976 37.576 592.832 37.848 592.736 38.2C592.544 38.872 592.576 39.56 592.832 40.264C593.088 40.968 593.648 41.608 594.512 42.184C594.512 42.088 594.512 41.992 594.512 41.896ZM621.839 38.536C622.095 38.472 622.319 38.504 622.511 38.632C622.735 38.76 622.879 38.952 622.943 39.208C623.007 39.464 622.975 39.688 622.847 39.88C622.463 40.488 622.047 41.144 621.599 41.848C621.151 42.52 620.479 43.448 619.583 44.632C618.719 45.816 617.887 46.856 617.087 47.752C616.287 48.616 615.423 49.384 614.495 50.056C613.567 50.728 612.767 51.064 612.095 51.064C611.839 51.064 611.615 51.016 611.423 50.92C609.887 50.344 609.455 47.896 610.127 43.576C609.071 45.016 608.111 46.104 607.247 46.84C605.999 47.896 604.911 48.024 603.983 47.224C603.119 46.52 602.735 45.272 602.831 43.48C602.895 41.688 603.407 39.96 604.367 38.296C604.495 38.072 604.687 37.928 604.943 37.864C605.199 37.8 605.439 37.832 605.663 37.96C605.887 38.088 606.031 38.28 606.095 38.536C606.159 38.76 606.127 38.984 605.999 39.208C605.455 40.104 605.071 41.048 604.847 42.04C604.655 43.032 604.591 43.864 604.655 44.536C604.751 45.176 604.911 45.592 605.135 45.784C605.295 45.944 605.599 45.832 606.047 45.448C606.879 44.744 607.919 43.48 609.167 41.656C609.391 41.368 609.551 41.16 609.647 41.032C609.775 40.872 609.919 40.696 610.079 40.504C610.239 40.28 610.367 40.136 610.463 40.072C610.559 40.008 610.671 39.944 610.799 39.88C610.927 39.784 611.055 39.752 611.183 39.784C611.311 39.784 611.455 39.816 611.615 39.88C612.031 40.04 612.255 40.408 612.287 40.984C612.319 41.528 612.239 42.248 612.047 43.144C611.695 44.904 611.551 46.248 611.615 47.176C611.711 48.104 611.791 48.68 611.855 48.904C611.919 49.096 611.999 49.192 612.095 49.192C612.191 49.256 612.351 49.224 612.575 49.096C612.831 49 613.119 48.824 613.439 48.568C613.791 48.312 614.175 47.992 614.591 47.608C615.007 47.192 615.471 46.696 615.983 46.12C616.527 45.544 617.071 44.92 617.615 44.248C618.159 43.544 618.751 42.744 619.391 41.848C620.031 40.92 620.655 39.944 621.263 38.92C621.391 38.696 621.583 38.568 621.839 38.536Z" fill="#7A7A7A"/>
</svg>
