<svg width="72" height="73" viewBox="0 0 72 73" fill="none" xmlns="http://www.w3.org/2000/svg">
<path d="M9.22668 1.39477C6.11481 2.26934 3.75549 4.18121 2.43346 6.92697C1.55888 8.73714 1.27414 9.71341 1.07075 11.7473C0.908033 13.2524 1.33515 16.1609 1.986 18.1744C2.86058 20.7778 4.71142 23.849 6.76566 26.0863L7.70125 27.1032L7.13176 27.51C3.93854 29.788 1.41651 33.9168 0.58261 38.2897C0.440237 38.9609 0.236847 39.9575 0.135152 40.527C-0.108916 41.6863 -0.00722078 45.8761 0.318203 47.5439C1.13176 51.9778 2.75888 55.2321 5.46397 57.9168C7.82329 60.2558 10.3453 61.3744 13.2945 61.3744C16.3657 61.3744 19.2945 60.0727 21.5318 57.6727C22.386 56.7575 22.6097 56.7168 22.9148 57.449C23.2809 58.3439 25.1928 60.5812 26.2911 61.4355C27.7148 62.5134 29.5046 63.4083 31.1724 63.8355C33.8572 64.5473 37.7623 64.2422 39.8775 63.1643C40.325 62.9405 40.7114 62.8185 40.7724 62.8795C40.8335 62.9405 41.0979 63.4693 41.3216 64.0592C42.4199 66.7643 45.2267 70.1812 47.3826 71.4219C53.2809 74.8388 60.0741 72.3575 63.7962 65.4219C65.8504 61.5982 66.664 56.7371 66.0335 51.8151C65.7284 49.3541 64.8741 46.4049 64.0199 44.9609C63.5724 44.2083 63.6538 44.127 65.0572 43.5982C68.047 42.4999 70.7928 39.3066 71.586 36.0524C71.9318 34.527 71.9114 30.8049 71.525 29.1371C70.6097 25.2931 68.6572 21.8558 65.6063 18.7846C62.2504 15.4083 58.0606 13.171 54.1148 12.6422C53.1182 12.5202 53.0368 12.4592 52.8131 11.7676C51.7758 8.59476 49.2335 5.29985 46.4267 3.48968C41.8504 0.581207 36.3385 0.194763 31.5182 2.49307C29.7894 3.30663 28.8335 3.99815 27.064 5.70663L25.8029 6.94731L24.8267 6.03205C22.8741 4.20155 19.4165 2.26934 17.0368 1.67951C16.3046 1.49646 15.4301 1.2524 15.0843 1.1507C14.0267 0.845612 10.7724 0.967644 9.22668 1.39477ZM14.7792 4.03883C17.4843 4.46595 20.8606 6.19476 23.3216 8.41171L24.3589 9.34731L24.0335 10.0795C23.2809 11.849 22.9148 13.171 22.7114 14.9609C22.2233 19.4558 23.5657 23.9914 26.3724 27.1846C26.6165 27.4693 26.7792 27.8354 26.7589 27.9982C26.7182 28.1812 25.986 28.6897 25.1114 29.1371C23.6267 29.8693 23.3623 29.9507 21.5114 30.0117C18.3182 30.1541 15.7148 29.3609 12.5419 27.3066C9.87752 25.5778 7.03007 22.4456 5.64702 19.6795C4.10125 16.5676 3.47075 12.8049 4.08091 10.3846C5.36227 5.40154 9.20634 3.12358 14.7792 4.03883ZM41.8504 4.3846C45.8775 5.78799 48.7453 8.67612 50.108 12.6829C50.5758 14.0456 50.6572 14.6354 50.6572 16.6287C50.6572 19.4354 50.4335 20.4524 49.3148 22.7304C47.6267 26.2083 44.169 28.8117 40.325 29.5643C34.2843 30.7439 28.1826 27.0626 26.047 21.0015C25.5385 19.5371 25.4775 19.11 25.4775 16.7304C25.4775 14.371 25.5385 13.9236 26.0267 12.6015C27.6131 8.20833 31.2538 4.93375 35.5453 4.01849C36.9691 3.73375 40.5487 3.93714 41.8504 4.3846ZM56.1894 16.0388C61.6809 17.8287 66.6843 22.9338 68.4945 28.6287C69.0233 30.2761 69.2267 33.2253 68.9216 34.7914C68.6165 36.4795 67.5792 38.4524 66.5216 39.4287C66.0131 39.8965 64.9962 40.5473 64.264 40.8931C62.9826 41.5032 62.7589 41.5236 60.4606 41.5236C58.447 41.5236 57.7758 41.4422 56.5962 41.0558C52.9758 39.8354 49.925 37.6999 47.4233 34.6287C46.6301 33.6524 45.1046 31.2931 45.1046 31.049C45.1046 30.9677 45.6538 30.5812 46.325 30.1744C47.8911 29.1982 49.7013 27.3676 50.9826 25.4761C52.8335 22.71 53.586 19.9236 53.647 15.5507C53.647 15.327 54.6029 15.51 56.1894 16.0388ZM11.1996 29.8287C13.5792 31.4558 17.708 32.8999 19.986 32.8999C20.8199 32.8999 20.9419 32.9609 21.3894 33.6524C22.6097 35.5032 23.4843 38.31 23.7894 41.2388C24.2165 45.4287 23.4233 49.5575 21.5724 52.9338C20.5555 54.8049 18.3385 57.0422 16.7318 57.8355C15.6131 58.3643 15.3284 58.4253 13.3758 58.4253C10.5487 58.4253 9.47075 57.9575 7.27414 55.7202C5.4843 53.8897 4.14193 51.4287 3.36905 48.5609C2.75888 46.2626 2.7182 40.9338 3.28769 38.6965C4.04024 35.8083 5.34193 33.1846 6.90803 31.4354C7.82329 30.4185 9.45041 29.2388 9.93854 29.2388C10.1623 29.2388 10.7318 29.5032 11.1996 29.8287ZM30.4402 30.5405C31.0707 30.927 32.3114 31.4965 33.2063 31.8015C34.7114 32.3304 35.0775 32.3914 37.7826 32.3914C39.4097 32.3914 41.1589 32.31 41.6674 32.2287C42.5826 32.0456 42.6029 32.066 42.8674 32.6965C43.2945 33.7338 44.5352 35.5643 45.9182 37.1507L47.1996 38.6558L46.6097 39.0829C46.2843 39.3066 45.6335 39.8558 45.186 40.2626C44.7182 40.6897 44.2707 41.0354 44.1894 41.0354C44.108 41.0354 43.6199 40.6693 43.1114 40.2015C41.8504 39.1032 40.0402 38.127 38.1894 37.5371C34.9555 36.5405 30.6436 37.0897 27.8165 38.8795C26.7182 39.571 26.3928 39.6321 26.3928 39.1236C26.3928 38.5134 25.3148 35.1575 24.725 33.9371C24.0945 32.6354 24.1352 32.31 24.9284 32.2897C25.3758 32.2897 27.4707 31.1304 28.2233 30.4795C28.6097 30.1338 29.0165 29.8693 29.1182 29.849C29.1996 29.849 29.8097 30.1541 30.4402 30.5405ZM36.8267 40.1202C38.4538 40.466 40.1623 41.3405 41.5453 42.5405L42.5419 43.4151L41.6063 45.4287C40.0199 48.8049 39.7352 50.249 39.7148 54.7643C39.7148 56.8795 39.7758 58.9338 39.8572 59.2999C40.0199 59.971 39.9996 59.971 38.6979 60.5812C33.6335 62.8795 27.6131 60.6219 25.1318 55.5168C24.3385 53.8897 24.3182 53.8083 24.6233 53.1778C25.8029 50.7168 26.4741 48.0117 26.7182 44.9405L26.8606 43.049L27.9996 42.1744C30.7453 40.0592 33.5318 39.4083 36.8267 40.1202ZM50.7385 41.3609C53.1182 42.9473 55.9453 43.9846 58.9352 44.371L60.664 44.6151L61.5182 46.3236C62.9826 49.2321 63.2877 50.7168 63.2877 54.9677C63.2877 58.1202 63.2267 58.8524 62.8402 60.2558C61.6402 64.588 59.1792 67.9236 56.1284 69.3677C54.8877 69.9575 54.5826 70.0185 52.8335 70.0185C51.0436 70.0185 50.7996 69.9575 49.5182 69.327C46.0809 67.5982 43.5589 63.6727 42.6436 58.5473C42.1758 55.9846 42.1555 54.3575 42.5623 51.8151C43.1724 48.0524 44.4945 45.0422 46.4674 42.9473C47.1385 42.2151 49.1928 40.6287 49.4572 40.6287C49.5589 40.6287 50.1284 40.9541 50.7385 41.3609Z" fill="#004AAD"/>
<path d="M11.8505 6.25578C10.0606 6.52019 8.53521 7.69985 7.61995 9.51002C7.03012 10.7304 7.00978 12.866 7.61995 14.2083C8.90131 17.0761 12.4403 18.3982 15.1047 16.9948C17.1589 15.9168 18.3183 14.0456 18.3183 11.849C18.3183 8.37104 15.2878 5.74731 11.8505 6.25578ZM13.62 9.10324C15.125 9.53036 15.9386 11.3609 15.3081 12.927C14.4335 15.1032 11.7081 15.3676 10.3861 13.3948C9.45046 11.9914 9.99962 10.0388 11.5454 9.26595C12.3793 8.83883 12.603 8.81849 13.62 9.10324Z" fill="#004AAD"/>
<path d="M32.0877 10.3033C30.725 10.9948 29.4639 12.4592 28.8131 14.127C28.4063 15.1033 28.325 15.6728 28.325 17.5439C28.325 19.6999 28.3453 19.8422 29.0572 21.327C30.3182 23.9507 32.23 25.3745 34.5283 25.3745C37.5385 25.3745 39.9995 22.8321 40.7317 18.9473C40.9961 17.6253 40.9961 17.2592 40.7114 15.8761C40.325 14.0456 39.7555 12.805 38.7182 11.605C37.0504 9.69309 34.325 9.14394 32.0877 10.3033ZM36.0944 13.049C37.4775 13.9439 38.3521 16.527 37.9656 18.6016C37.5182 21.0422 36.1961 22.527 34.4877 22.527C33.0233 22.527 31.7826 21.1846 31.1521 18.9067C30.847 17.788 30.847 17.4829 31.0707 16.466C31.4165 14.9812 31.8843 14.0253 32.6572 13.3134C33.7148 12.2965 34.8334 12.2151 36.0944 13.049Z" fill="#004AAD"/>
<path d="M58.2233 27.5304C54.5216 29.3609 53.9521 34.3236 57.125 37.049C59.3622 38.9609 62.4131 38.7982 64.569 36.6423C65.3826 35.8287 65.6877 35.3406 65.9724 34.4253C66.8267 31.4355 65.3419 28.2626 62.6368 27.2863C61.3555 26.8389 59.3826 26.9406 58.2233 27.5304ZM61.7826 30.0117C63.8978 31.049 63.9589 34.2423 61.9046 35.2185C60.5012 35.8694 59.1589 35.4626 58.2639 34.0795C57.6131 33.0626 57.5724 32.5338 58.1012 31.5168C58.569 30.6016 59.1182 30.0931 59.8707 29.849C60.725 29.605 60.9894 29.6253 61.7826 30.0117Z" fill="#004AAD"/>
<path d="M10.8335 44.5337C9.06405 45.2049 7.74201 46.649 7.25388 48.4592C6.94879 49.5778 7.13184 51.5507 7.64032 52.5473C8.53523 54.3168 10.7318 55.6795 12.664 55.6795C14.881 55.6795 17.2403 53.9507 17.9522 51.8354C18.3996 50.4727 18.2776 48.6015 17.6878 47.4219C17.1793 46.4456 15.9996 45.2049 15.1251 44.7575C14.3522 44.3507 11.6674 44.2083 10.8335 44.5337ZM14.0471 47.4829C15.2878 48.1134 15.7556 49.8829 15.064 51.3473C14.3929 52.771 12.5827 53.2592 11.1996 52.4049C10.3047 51.8558 9.91828 51.0626 9.91828 49.8015C9.91828 48.9473 10.02 48.6626 10.5488 48.0524C11.5047 46.9541 12.6437 46.771 14.0471 47.4829Z" fill="#004AAD"/>
<path d="M30.481 49.0694C29.4437 49.6592 29.159 49.9643 28.6302 51.1033C27.2471 53.9507 29.7082 57.4083 32.8404 57.0422C34.1217 56.8999 35.5048 55.9643 36.0946 54.866C36.7861 53.5846 36.7048 51.6321 35.8912 50.4321C34.7319 48.6829 32.2709 48.0524 30.481 49.0694ZM33.3488 51.7541C33.8166 52.1609 33.837 53.3812 33.3692 53.8897C32.759 54.5609 31.6404 54.3371 31.1726 53.4219C30.7658 52.6694 30.7861 52.5677 31.376 51.9371C31.9454 51.327 32.7793 51.2456 33.3488 51.7541Z" fill="#004AAD"/>
<path d="M50.9419 55.8829C49.2538 56.31 47.8097 57.51 47.0571 59.1168C46.4673 60.4388 46.4877 62.7575 47.0978 63.9575C47.6673 65.0355 48.786 66.1338 49.8639 66.6626C51.1453 67.2727 53.3419 67.2321 54.6436 66.5812C57.9995 64.8727 58.8131 60.2355 56.23 57.5507C54.908 56.1677 52.6707 55.4558 50.9419 55.8829ZM53.3216 58.8117C54.8063 59.4422 55.4571 61.4558 54.6233 62.8795C53.4233 64.9134 50.7792 64.8524 49.7419 62.7778C49.0504 61.4355 49.4775 59.849 50.7792 58.9948C51.5724 58.466 52.3453 58.4049 53.3216 58.8117Z" fill="#004AAD"/>
</svg>
