<svg xmlns="http://www.w3.org/2000/svg" xmlns:xlink="http://www.w3.org/1999/xlink" width="500" zoomAndPan="magnify" viewBox="0 0 375 374.999991" height="500" preserveAspectRatio="xMidYMid meet" version="1.0"><defs><g/><clipPath id="ffa57b6312"><path d="M 130.238281 130.445312 L 244.988281 130.445312 L 244.988281 244.445312 L 130.238281 244.445312 Z M 130.238281 130.445312 " clip-rule="nonzero"/></clipPath><clipPath id="0986436d30"><path d="M 244.761719 143.792969 L 332.511719 143.792969 L 332.511719 231.542969 L 244.761719 231.542969 Z M 244.761719 143.792969 " clip-rule="nonzero"/></clipPath><clipPath id="7b255d7b52"><path d="M 42.503906 143.792969 L 130.253906 143.792969 L 130.253906 231.542969 L 42.503906 231.542969 Z M 42.503906 143.792969 " clip-rule="nonzero"/></clipPath><clipPath id="980e64b31e"><path d="M 21.535156 163.75 L 353.480469 163.75 L 353.480469 211.25 L 21.535156 211.25 Z M 21.535156 163.75 " clip-rule="nonzero"/></clipPath><clipPath id="ab39f6c5ad"><path d="M 33.535156 163.75 L 341.464844 163.75 C 348.089844 163.75 353.464844 169.121094 353.464844 175.75 L 353.464844 199.25 C 353.464844 205.878906 348.089844 211.25 341.464844 211.25 L 33.535156 211.25 C 26.910156 211.25 21.535156 205.878906 21.535156 199.25 L 21.535156 175.75 C 21.535156 169.121094 26.910156 163.75 33.535156 163.75 Z M 33.535156 163.75 " clip-rule="nonzero"/></clipPath><clipPath id="69c77d5583"><path d="M 21.546875 163.75 L 353.746094 163.75 L 353.746094 211 L 21.546875 211 Z M 21.546875 163.75 " clip-rule="nonzero"/></clipPath><clipPath id="b83f0b61e5"><path d="M 33.546875 163.75 L 341.449219 163.75 C 348.074219 163.75 353.449219 169.121094 353.449219 175.75 L 353.449219 199.246094 C 353.449219 205.875 348.074219 211.246094 341.449219 211.246094 L 33.546875 211.246094 C 26.917969 211.246094 21.546875 205.875 21.546875 199.246094 L 21.546875 175.75 C 21.546875 169.121094 26.917969 163.75 33.546875 163.75 Z M 33.546875 163.75 " clip-rule="nonzero"/></clipPath></defs><g clip-path="url(#ffa57b6312)"><path fill="#004aad" d="M 244.746094 186.746094 C 244.746094 184.320312 244.59375 181.929688 244.300781 179.585938 L 237.273438 177.515625 C 236.445312 173.113281 235.050781 168.914062 233.164062 164.992188 L 237.664062 159.144531 C 235.34375 154.933594 232.503906 151.042969 229.234375 147.566406 L 222.226562 150.058594 C 219.058594 147.074219 215.503906 144.492188 211.648438 142.394531 L 211.855469 134.921875 C 207.582031 132.90625 203.015625 131.410156 198.242188 130.5 L 194.003906 136.691406 C 191.871094 136.417969 189.699219 136.277344 187.492188 136.277344 C 185.285156 136.277344 183.113281 136.417969 180.980469 136.691406 L 176.742188 130.5 C 171.96875 131.410156 167.402344 132.90625 163.128906 134.921875 L 163.335938 142.394531 C 159.480469 144.492188 155.929688 147.074219 152.761719 150.058594 L 145.75 147.566406 C 142.480469 151.042969 139.644531 154.933594 137.324219 159.144531 L 141.824219 164.992188 C 139.933594 168.910156 138.539062 173.113281 137.710938 177.515625 L 130.683594 179.585938 C 130.390625 181.929688 130.238281 184.320312 130.238281 186.746094 C 130.238281 187 130.242188 187.253906 130.246094 187.503906 C 130.242188 187.757812 130.238281 188.011719 130.238281 188.265625 C 130.238281 190.6875 130.390625 193.078125 130.683594 195.425781 L 137.710938 197.496094 C 138.539062 201.894531 139.9375 206.097656 141.824219 210.019531 L 137.320312 215.867188 C 139.644531 220.078125 142.480469 223.96875 145.75 227.445312 L 152.761719 224.949219 C 155.929688 227.933594 159.480469 230.515625 163.335938 232.613281 L 163.128906 240.089844 C 167.402344 242.101562 171.96875 243.601562 176.742188 244.507812 L 180.980469 238.320312 C 183.113281 238.589844 185.285156 238.734375 187.492188 238.734375 C 189.699219 238.734375 191.871094 238.589844 194.003906 238.320312 L 198.242188 244.507812 C 203.015625 243.601562 207.582031 242.101562 211.855469 240.089844 L 211.648438 232.613281 C 215.503906 230.515625 219.054688 227.933594 222.222656 224.949219 L 229.234375 227.445312 C 232.503906 223.96875 235.339844 220.078125 237.660156 215.867188 L 233.160156 210.019531 C 235.050781 206.097656 236.445312 201.898438 237.273438 197.496094 L 244.300781 195.425781 C 244.59375 193.078125 244.746094 190.6875 244.746094 188.265625 C 244.746094 188.011719 244.742188 187.757812 244.738281 187.503906 C 244.742188 187.253906 244.746094 187 244.746094 186.746094 Z M 187.492188 234.855469 C 161.886719 234.855469 141.085938 214.277344 140.722656 188.757812 C 140.730469 188.757812 140.742188 188.757812 140.75 188.753906 C 140.734375 188.339844 140.730469 187.921875 140.726562 187.503906 C 140.730469 187.085938 140.734375 186.667969 140.75 186.253906 C 140.742188 186.253906 140.730469 186.253906 140.722656 186.25 C 141.085938 160.730469 161.886719 140.15625 187.492188 140.15625 C 213.097656 140.15625 233.898438 160.730469 234.261719 186.25 C 234.253906 186.253906 234.242188 186.253906 234.234375 186.253906 C 234.25 186.667969 234.253906 187.085938 234.257812 187.503906 C 234.253906 187.921875 234.25 188.339844 234.234375 188.753906 C 234.242188 188.757812 234.253906 188.757812 234.261719 188.757812 C 233.898438 214.277344 213.097656 234.855469 187.492188 234.855469 Z M 187.492188 234.855469 " fill-opacity="1" fill-rule="nonzero"/></g><g clip-path="url(#0986436d30)"><path fill="#004aad" d="M 332.480469 186.917969 C 332.480469 185.0625 332.367188 183.230469 332.140625 181.433594 L 326.757812 179.847656 C 326.121094 176.476562 325.050781 173.257812 323.605469 170.253906 L 327.054688 165.773438 C 325.277344 162.546875 323.101562 159.566406 320.597656 156.902344 L 315.226562 158.816406 C 312.800781 156.527344 310.082031 154.550781 307.125 152.945312 L 307.285156 147.21875 C 304.011719 145.675781 300.515625 144.527344 296.855469 143.832031 L 293.609375 148.574219 C 291.976562 148.363281 290.308594 148.257812 288.621094 148.257812 C 286.933594 148.257812 285.265625 148.363281 283.632812 148.574219 L 280.382812 143.832031 C 276.726562 144.527344 273.230469 145.675781 269.957031 147.21875 L 270.117188 152.945312 C 267.160156 154.550781 264.441406 156.527344 262.015625 158.816406 L 256.644531 156.902344 C 254.140625 159.566406 251.964844 162.546875 250.1875 165.773438 L 253.636719 170.253906 C 252.1875 173.257812 251.121094 176.476562 250.484375 179.847656 L 245.101562 181.433594 C 244.875 183.230469 244.761719 185.0625 244.761719 186.917969 C 244.761719 187.113281 244.765625 187.304688 244.765625 187.5 C 244.765625 187.695312 244.761719 187.886719 244.761719 188.082031 C 244.761719 189.9375 244.875 191.769531 245.101562 193.566406 L 250.484375 195.152344 C 251.121094 198.523438 252.1875 201.742188 253.636719 204.746094 L 250.1875 209.226562 C 251.964844 212.453125 254.140625 215.433594 256.644531 218.097656 L 262.015625 216.183594 C 264.441406 218.472656 267.160156 220.449219 270.117188 222.054688 L 269.957031 227.785156 C 273.230469 229.324219 276.726562 230.472656 280.386719 231.167969 L 283.632812 226.425781 C 285.265625 226.636719 286.933594 226.746094 288.621094 226.746094 C 290.308594 226.746094 291.976562 226.636719 293.609375 226.425781 L 296.859375 231.167969 C 300.515625 230.472656 304.011719 229.324219 307.285156 227.785156 L 307.125 222.054688 C 310.078125 220.449219 312.800781 218.472656 315.226562 216.183594 L 320.597656 218.097656 C 323.101562 215.433594 325.277344 212.453125 327.054688 209.226562 L 323.605469 204.746094 C 325.050781 201.742188 326.121094 198.527344 326.757812 195.152344 L 332.140625 193.566406 C 332.363281 191.769531 332.480469 189.9375 332.480469 188.082031 C 332.480469 187.886719 332.476562 187.695312 332.476562 187.5 C 332.476562 187.304688 332.480469 187.113281 332.480469 186.917969 Z M 288.621094 223.773438 C 269.007812 223.773438 253.070312 208.011719 252.792969 188.460938 C 252.800781 188.460938 252.804688 188.457031 252.8125 188.457031 C 252.800781 188.140625 252.800781 187.820312 252.796875 187.5 C 252.800781 187.179688 252.800781 186.859375 252.8125 186.542969 C 252.804688 186.542969 252.800781 186.539062 252.792969 186.539062 C 253.070312 166.992188 269.007812 151.226562 288.621094 151.226562 C 308.234375 151.226562 324.171875 166.988281 324.449219 186.539062 C 324.441406 186.539062 324.4375 186.542969 324.429688 186.542969 C 324.441406 186.859375 324.441406 187.179688 324.445312 187.5 C 324.441406 187.820312 324.441406 188.140625 324.429688 188.457031 C 324.4375 188.457031 324.441406 188.460938 324.449219 188.460938 C 324.171875 208.011719 308.234375 223.773438 288.621094 223.773438 Z M 288.621094 223.773438 " fill-opacity="1" fill-rule="nonzero"/></g><g clip-path="url(#7b255d7b52)"><path fill="#004aad" d="M 130.222656 186.917969 C 130.222656 185.0625 130.105469 183.230469 129.882812 181.433594 L 124.496094 179.847656 C 123.863281 176.476562 122.792969 173.257812 121.347656 170.253906 L 124.796875 165.773438 C 123.019531 162.546875 120.84375 159.566406 118.339844 156.902344 L 112.96875 158.816406 C 110.542969 156.527344 107.820312 154.550781 104.867188 152.945312 L 105.027344 147.21875 C 101.753906 145.675781 98.253906 144.527344 94.597656 143.832031 L 91.347656 148.574219 C 89.714844 148.363281 88.050781 148.257812 86.363281 148.257812 C 84.671875 148.257812 83.007812 148.363281 81.375 148.574219 L 78.125 143.832031 C 74.46875 144.527344 70.972656 145.675781 67.699219 147.21875 L 67.855469 152.945312 C 64.902344 154.550781 62.183594 156.527344 59.753906 158.816406 L 54.382812 156.902344 C 51.882812 159.566406 49.707031 162.546875 47.929688 165.773438 L 51.375 170.253906 C 49.929688 173.257812 48.859375 176.476562 48.226562 179.847656 L 42.84375 181.433594 C 42.617188 183.230469 42.503906 185.0625 42.503906 186.917969 C 42.503906 187.113281 42.503906 187.304688 42.507812 187.5 C 42.503906 187.695312 42.503906 187.886719 42.503906 188.082031 C 42.503906 189.9375 42.617188 191.769531 42.84375 193.566406 L 48.226562 195.152344 C 48.859375 198.523438 49.929688 201.742188 51.375 204.746094 L 47.925781 209.226562 C 49.707031 212.453125 51.882812 215.433594 54.382812 218.097656 L 59.753906 216.183594 C 62.183594 218.472656 64.902344 220.449219 67.855469 222.054688 L 67.699219 227.785156 C 70.972656 229.324219 74.46875 230.472656 78.125 231.167969 L 81.375 226.425781 C 83.007812 226.636719 84.671875 226.746094 86.363281 226.746094 C 88.050781 226.746094 89.714844 226.636719 91.347656 226.425781 L 94.597656 231.167969 C 98.253906 230.472656 101.753906 229.324219 105.023438 227.785156 L 104.867188 222.054688 C 107.820312 220.449219 110.542969 218.472656 112.96875 216.183594 L 118.339844 218.097656 C 120.84375 215.433594 123.019531 212.453125 124.792969 209.226562 L 121.347656 204.746094 C 122.792969 201.742188 123.863281 198.527344 124.496094 195.152344 L 129.882812 193.566406 C 130.105469 191.769531 130.222656 189.9375 130.222656 188.082031 C 130.222656 187.886719 130.21875 187.695312 130.214844 187.5 C 130.21875 187.304688 130.222656 187.113281 130.222656 186.917969 Z M 86.363281 223.773438 C 66.746094 223.773438 50.8125 208.011719 50.53125 188.460938 C 50.539062 188.460938 50.546875 188.457031 50.554688 188.457031 C 50.542969 188.140625 50.539062 187.820312 50.535156 187.5 C 50.539062 187.179688 50.542969 186.859375 50.554688 186.542969 C 50.546875 186.542969 50.539062 186.539062 50.53125 186.539062 C 50.8125 166.992188 66.746094 151.226562 86.363281 151.226562 C 105.976562 151.226562 121.910156 166.988281 122.191406 186.539062 C 122.183594 186.539062 122.175781 186.542969 122.167969 186.542969 C 122.179688 186.859375 122.183594 187.179688 122.1875 187.5 C 122.183594 187.820312 122.179688 188.140625 122.167969 188.457031 C 122.175781 188.457031 122.183594 188.460938 122.191406 188.460938 C 121.910156 208.011719 105.976562 223.773438 86.363281 223.773438 Z M 86.363281 223.773438 " fill-opacity="1" fill-rule="nonzero"/></g><g clip-path="url(#980e64b31e)"><g clip-path="url(#ab39f6c5ad)"><path fill="#ffffff" d="M 21.535156 163.75 L 353.480469 163.75 L 353.480469 211.25 L 21.535156 211.25 Z M 21.535156 163.75 " fill-opacity="1" fill-rule="nonzero"/></g></g><g clip-path="url(#69c77d5583)"><g clip-path="url(#b83f0b61e5)"><path stroke-linecap="butt" transform="matrix(0.75, 0, 0, 0.75, 21.547353, 163.74998)" fill="none" stroke-linejoin="miter" d="M 15.999364 0.0000260706 L 426.535849 0.0000260706 C 435.369183 0.0000260706 442.53585 7.161485 442.53585 16.000027 L 442.53585 47.328154 C 442.53585 56.166696 435.369183 63.328155 426.535849 63.328155 L 15.999364 63.328155 C 7.160822 63.328155 -0.000637127 56.166696 -0.000637127 47.328154 L -0.000637127 16.000027 C -0.000637127 7.161485 7.160822 0.0000260706 15.999364 0.0000260706 Z M 15.999364 0.0000260706 " stroke="#004aad" stroke-width="8" stroke-opacity="1" stroke-miterlimit="4"/></g></g><g fill="#004aad" fill-opacity="1"><g transform="translate(29.109378, 203.249987)"><g><path d="M 33.59375 -32 L 33.59375 -25.59375 L 8 -25.59375 L 8 -19.203125 L 27.203125 -19.203125 C 28.367188 -19.203125 29.4375 -18.914062 30.40625 -18.34375 C 31.382812 -17.769531 32.160156 -16.992188 32.734375 -16.015625 C 33.304688 -15.046875 33.59375 -13.972656 33.59375 -12.796875 L 33.59375 -6.40625 C 33.59375 -5.226562 33.304688 -4.148438 32.734375 -3.171875 C 32.160156 -2.203125 31.382812 -1.429688 30.40625 -0.859375 C 29.4375 -0.285156 28.367188 0 27.203125 0 L 1.59375 0 L 1.59375 -6.40625 L 27.203125 -6.40625 L 27.203125 -12.796875 L 8 -12.796875 C 6.820312 -12.796875 5.742188 -13.082031 4.765625 -13.65625 C 3.796875 -14.226562 3.023438 -15 2.453125 -15.96875 C 1.878906 -16.945312 1.59375 -18.023438 1.59375 -19.203125 L 1.59375 -25.59375 C 1.59375 -26.769531 1.878906 -27.84375 2.453125 -28.8125 C 3.023438 -29.789062 3.796875 -30.566406 4.765625 -31.140625 C 5.742188 -31.710938 6.820312 -32 8 -32 Z M 33.59375 -32 "/></g></g></g><g fill="#004aad" fill-opacity="1"><g transform="translate(64.305885, 203.249987)"><g><path d="M 27.203125 -19.203125 L 27.203125 -32 L 33.59375 -32 L 33.59375 -6.40625 C 33.59375 -5.226562 33.304688 -4.148438 32.734375 -3.171875 C 32.160156 -2.203125 31.382812 -1.429688 30.40625 -0.859375 C 29.4375 -0.285156 28.367188 0 27.203125 0 L 1.59375 0 L 1.59375 -6.40625 L 27.203125 -6.40625 L 27.203125 -12.796875 L 8 -12.796875 C 6.820312 -12.796875 5.742188 -13.082031 4.765625 -13.65625 C 3.796875 -14.226562 3.023438 -15 2.453125 -15.96875 C 1.878906 -16.945312 1.59375 -18.023438 1.59375 -19.203125 L 1.59375 -32 L 8 -32 L 8 -19.203125 Z M 27.203125 -19.203125 "/></g></g></g><g fill="#004aad" fill-opacity="1"><g transform="translate(99.502393, 203.249987)"><g><path d="M 8 -32 L 27.203125 -32 C 28.367188 -32 29.4375 -31.710938 30.40625 -31.140625 C 31.382812 -30.566406 32.160156 -29.789062 32.734375 -28.8125 C 33.304688 -27.84375 33.59375 -26.769531 33.59375 -25.59375 L 33.59375 0 L 27.203125 0 L 27.203125 -25.59375 L 20.796875 -25.59375 L 20.796875 0 L 14.40625 0 L 14.40625 -25.59375 L 8 -25.59375 L 8 0 L 1.59375 0 L 1.59375 -25.59375 C 1.59375 -26.769531 1.878906 -27.84375 2.453125 -28.8125 C 3.023438 -29.789062 3.796875 -30.566406 4.765625 -31.140625 C 5.742188 -31.710938 6.820312 -32 8 -32 Z M 8 -32 "/></g></g></g><g fill="#004aad" fill-opacity="1"><g transform="translate(134.698901, 203.249987)"><g><path d="M 33.59375 -25.59375 L 33.59375 -19.203125 C 33.59375 -18.316406 33.28125 -17.5625 32.65625 -16.9375 C 32.03125 -16.3125 31.28125 -16 30.40625 -16 C 31.28125 -16 32.03125 -15.6875 32.65625 -15.0625 C 33.28125 -14.4375 33.59375 -13.679688 33.59375 -12.796875 L 33.59375 -6.40625 C 33.59375 -5.257812 33.304688 -4.195312 32.734375 -3.21875 C 32.160156 -2.25 31.394531 -1.46875 30.4375 -0.875 C 29.476562 -0.289062 28.398438 0 27.203125 0 L 1.59375 0 L 1.59375 -32 L 27.203125 -32 C 28.398438 -32 29.476562 -31.703125 30.4375 -31.109375 C 31.394531 -30.523438 32.160156 -29.753906 32.734375 -28.796875 C 33.304688 -27.835938 33.59375 -26.769531 33.59375 -25.59375 Z M 27.203125 -25.59375 L 8 -25.59375 L 8 -19.203125 L 27.203125 -19.203125 Z M 8 -6.40625 L 27.203125 -6.40625 L 27.203125 -12.796875 L 8 -12.796875 Z M 8 -6.40625 "/></g></g></g><g fill="#004aad" fill-opacity="1"><g transform="translate(169.895408, 203.249987)"><g><path d="M 33.59375 0 L 1.59375 0 L 1.59375 -6.40625 L 14.40625 -6.40625 L 14.40625 -25.59375 L 1.59375 -25.59375 L 1.59375 -32 L 33.59375 -32 L 33.59375 -25.59375 L 20.796875 -25.59375 L 20.796875 -6.40625 L 33.59375 -6.40625 Z M 33.59375 0 "/></g></g></g><g fill="#004aad" fill-opacity="1"><g transform="translate(205.091916, 203.249987)"><g><path d="M 27.203125 0 L 8 0 C 6.820312 0 5.742188 -0.285156 4.765625 -0.859375 C 3.796875 -1.429688 3.023438 -2.203125 2.453125 -3.171875 C 1.878906 -4.148438 1.59375 -5.226562 1.59375 -6.40625 L 1.59375 -25.59375 C 1.59375 -26.769531 1.878906 -27.84375 2.453125 -28.8125 C 3.023438 -29.789062 3.796875 -30.566406 4.765625 -31.140625 C 5.742188 -31.710938 6.820312 -32 8 -32 L 27.203125 -32 C 28.367188 -32 29.4375 -31.710938 30.40625 -31.140625 C 31.382812 -30.566406 32.160156 -29.789062 32.734375 -28.8125 C 33.304688 -27.84375 33.59375 -26.769531 33.59375 -25.59375 L 33.59375 -6.40625 C 33.59375 -5.257812 33.304688 -4.195312 32.734375 -3.21875 C 32.160156 -2.25 31.394531 -1.46875 30.4375 -0.875 C 29.476562 -0.289062 28.398438 0 27.203125 0 Z M 8 -25.59375 L 8 -6.40625 L 27.203125 -6.40625 L 27.203125 -25.59375 Z M 8 -25.59375 "/></g></g></g><g fill="#004aad" fill-opacity="1"><g transform="translate(240.288424, 203.249987)"><g><path d="M 33.59375 0 L 8 0 C 6.820312 0 5.742188 -0.285156 4.765625 -0.859375 C 3.796875 -1.429688 3.023438 -2.203125 2.453125 -3.171875 C 1.878906 -4.148438 1.59375 -5.226562 1.59375 -6.40625 L 1.59375 -25.59375 C 1.59375 -26.769531 1.878906 -27.84375 2.453125 -28.8125 C 3.023438 -29.789062 3.796875 -30.566406 4.765625 -31.140625 C 5.742188 -31.710938 6.820312 -32 8 -32 L 33.59375 -32 L 33.59375 -25.59375 L 8 -25.59375 L 8 -6.40625 L 33.59375 -6.40625 Z M 33.59375 0 "/></g></g></g><g fill="#004aad" fill-opacity="1"><g transform="translate(275.484932, 203.249987)"><g><path d="M 27.203125 0 L 8 0 C 6.820312 0 5.742188 -0.285156 4.765625 -0.859375 C 3.796875 -1.429688 3.023438 -2.203125 2.453125 -3.171875 C 1.878906 -4.148438 1.59375 -5.226562 1.59375 -6.40625 L 1.59375 -25.59375 C 1.59375 -26.769531 1.878906 -27.84375 2.453125 -28.8125 C 3.023438 -29.789062 3.796875 -30.566406 4.765625 -31.140625 C 5.742188 -31.710938 6.820312 -32 8 -32 L 27.203125 -32 C 28.367188 -32 29.4375 -31.710938 30.40625 -31.140625 C 31.382812 -30.566406 32.160156 -29.789062 32.734375 -28.8125 C 33.304688 -27.84375 33.59375 -26.769531 33.59375 -25.59375 L 33.59375 -6.40625 C 33.59375 -5.257812 33.304688 -4.195312 32.734375 -3.21875 C 32.160156 -2.25 31.394531 -1.46875 30.4375 -0.875 C 29.476562 -0.289062 28.398438 0 27.203125 0 Z M 8 -25.59375 L 8 -6.40625 L 27.203125 -6.40625 L 27.203125 -25.59375 Z M 8 -25.59375 "/></g></g></g><g fill="#004aad" fill-opacity="1"><g transform="translate(310.681439, 203.249987)"><g><path d="M 8 0 L 1.59375 0 L 1.59375 -28.796875 C 1.59375 -29.679688 1.90625 -30.4375 2.53125 -31.0625 C 3.164062 -31.6875 3.921875 -32 4.796875 -32 C 5.679688 -32 6.441406 -31.679688 7.078125 -31.046875 L 27.203125 -10.921875 L 27.203125 -32 L 33.59375 -32 L 33.59375 -3.203125 C 33.59375 -2.316406 33.28125 -1.5625 32.65625 -0.9375 C 32.03125 -0.3125 31.28125 0 30.40625 0 C 29.519531 0 28.757812 -0.316406 28.125 -0.953125 L 8 -21.078125 Z M 8 0 "/></g></g></g></svg>