<svg width="71" height="72" viewBox="0 0 71 72" fill="none" xmlns="http://www.w3.org/2000/svg">
<g clip-path="url(#clip0_21_372)">
<path d="M5.67992 4.14932C5.9896 4.14739 6.29928 4.14545 6.61834 4.14346C6.95417 4.14414 7.28999 4.14481 7.63599 4.14551C7.99273 4.14412 8.34947 4.14272 8.71702 4.14128C9.69254 4.13763 10.668 4.13747 11.6436 4.13816C12.4593 4.13845 13.2749 4.13712 14.0906 4.13581C16.0155 4.13278 17.9405 4.13266 19.8654 4.13431C21.8484 4.13596 23.8314 4.1326 25.8145 4.12678C27.5198 4.12197 29.225 4.12033 30.9304 4.12122C31.9477 4.12172 32.9649 4.12101 33.9822 4.1172C35.117 4.11312 36.2517 4.11568 37.3864 4.11884C37.7217 4.11676 38.057 4.11467 38.4024 4.11252C40.7707 4.12713 42.4762 4.41867 44.2385 6.13205C45.1432 7.54881 45.1594 8.70891 45.1089 10.3306C45.1052 10.5577 45.1015 10.7847 45.0977 11.0186C45.0882 11.5745 45.0735 12.1302 45.0577 12.6859C45.2935 12.6832 45.2935 12.6832 45.534 12.6804C47.173 12.6622 48.8121 12.6499 50.4513 12.6409C51.0626 12.6368 51.6739 12.6312 52.2852 12.6241C53.1651 12.6141 54.0448 12.6095 54.9248 12.6059C55.3332 12.5996 55.3332 12.5996 55.7499 12.5931C58.0837 12.5925 59.3364 13.2225 60.9861 14.8466C61.2473 15.1103 61.2473 15.1103 61.5138 15.3793C61.6975 15.5622 61.8811 15.745 62.0703 15.9334C62.4566 16.3192 62.8419 16.706 63.2262 17.0937C63.8128 17.6847 64.4036 18.2712 64.995 18.8573C65.3709 19.2338 65.7466 19.6105 66.122 19.9875C66.3857 20.2487 66.3857 20.2487 66.6547 20.5152C66.8189 20.6819 66.983 20.8486 67.1521 21.0204C67.2957 21.1647 67.4393 21.309 67.5873 21.4576C68.5914 22.7171 68.9179 23.8034 68.9084 25.3993C68.9084 25.7491 68.9083 26.0989 68.9082 26.4592C68.9041 26.8368 68.8998 27.2145 68.8954 27.5921C68.8939 27.9816 68.8927 28.371 68.8919 28.7605C68.8888 29.7814 68.8808 30.8023 68.8717 31.8231C68.8633 32.8665 68.8596 33.91 68.8554 34.9534C68.8467 36.9976 68.8327 39.0417 68.8154 41.0859C69.0745 41.1591 69.3336 41.2323 69.6005 41.3078C70.4539 41.6321 70.4539 41.6321 71 42.4513C71.0749 43.1626 71.0749 43.1626 71.0837 44.0267C71.0881 44.3502 71.0924 44.6738 71.0969 45.0072C71.0991 45.532 71.0991 45.532 71.1014 46.0674C71.1038 46.4267 71.1063 46.786 71.1088 47.1561C71.1133 47.9169 71.1155 48.6776 71.1162 49.4383C71.1177 50.4115 71.128 51.3843 71.1405 52.3573C71.1506 53.2873 71.1509 54.2172 71.1526 55.1472C71.1579 55.496 71.1632 55.8448 71.1687 56.2041C71.155 58.8942 71.155 58.8942 70.3796 59.7408C69.652 60.1905 69.3243 60.3666 68.4858 60.3346C68.2808 60.3302 68.0757 60.3258 67.8645 60.3213C67.6545 60.3098 67.4445 60.2984 67.2282 60.2866C66.9053 60.2774 66.9053 60.2774 66.5759 60.268C66.0478 60.2519 65.52 60.2275 64.9923 60.2013C64.9464 60.3647 64.9005 60.5281 64.8531 60.6964C63.9606 63.7782 62.2275 65.7099 59.5201 67.3696C56.8773 68.8016 54.186 68.8992 51.2681 68.2581C48.8051 67.4554 46.4943 65.6159 45.0577 63.4782C43.9654 61.2709 43.9654 61.2709 43.9654 60.2013C38.3783 60.2013 32.7911 60.2013 27.0347 60.2013C26.7643 61.1024 26.494 62.0036 26.2154 62.9321C24.4875 65.6025 22.0636 67.7295 18.9106 68.496C16.2892 68.92 13.7754 68.6288 11.4693 67.3013C11.2616 67.1858 11.0539 67.0704 10.8399 66.9514C8.28142 65.4008 6.94707 63.269 6.00773 60.4744C5.68846 60.4705 5.36918 60.4666 5.04023 60.4626C4.61745 60.4498 4.19468 60.4366 3.77192 60.4232C3.56194 60.4216 3.35196 60.42 3.13563 60.4184C2.93058 60.4104 2.72553 60.4025 2.51427 60.3944C2.23326 60.3879 2.23326 60.3879 1.94658 60.3814C1.02051 60.0944 0.608493 59.5793 4.16189e-05 58.8359C-0.134173 58.0786 -0.184044 57.4891 -0.171502 56.7337C-0.17344 56.5241 -0.175377 56.3144 -0.177373 56.0984C-0.182174 55.3969 -0.17723 54.6957 -0.172298 53.9942C-0.173701 53.4908 -0.17569 52.9875 -0.178219 52.4842C-0.183279 51.1176 -0.179739 49.7512 -0.174372 48.3847C-0.169899 46.9546 -0.172303 45.5245 -0.173694 44.0944C-0.174929 41.6925 -0.170593 39.2907 -0.162965 36.8887C-0.154214 34.1123 -0.154215 31.3359 -0.158927 28.5594C-0.16326 25.8884 -0.16142 23.2174 -0.15676 20.5464C-0.154883 19.4098 -0.155165 18.2732 -0.157181 17.1366C-0.159275 15.7978 -0.15596 14.4591 -0.148484 13.1203C-0.146605 12.6291 -0.146577 12.1379 -0.148543 11.6467C-0.150919 10.9758 -0.146558 10.3052 -0.140501 9.63429C-0.142752 9.44024 -0.145002 9.24619 -0.147321 9.04625C-0.124598 7.68106 0.248032 6.91685 1.09235 5.85898C2.45148 4.57138 3.82759 4.1532 5.67992 4.14932ZM3.00389 7.77051C2.41198 8.65838 2.3899 8.89717 2.39206 9.92194C2.3913 10.1959 2.39055 10.4699 2.38978 10.7522C2.39174 11.0537 2.39371 11.3552 2.39573 11.6658C2.39567 11.988 2.3956 12.3102 2.39553 12.6422C2.39594 13.6876 2.4001 14.7329 2.4044 15.7783C2.4052 16.4227 2.40576 17.0672 2.40607 17.7116C2.40893 20.1041 2.41656 22.4965 2.4236 24.889C2.43486 30.234 2.44613 35.579 2.45773 41.0859C15.7047 41.0859 28.9517 41.0859 42.6 41.0859C42.6169 35.7973 42.6338 30.5086 42.6512 25.0597C42.6587 23.3899 42.6662 21.72 42.6738 19.9996C42.6766 18.5026 42.6766 18.5026 42.6782 17.0056C42.6795 16.3389 42.6824 15.6722 42.6865 15.0055C42.6925 13.9956 42.6934 12.9858 42.693 11.9758C42.696 11.6788 42.6989 11.3819 42.702 11.0759C42.7264 9.13533 42.7264 9.13533 41.7808 7.49744C40.9015 6.94767 40.2154 6.88227 39.1875 6.88009C38.7298 6.87719 38.7298 6.87719 38.2629 6.87423C37.7626 6.87525 37.7626 6.87525 37.2522 6.87628C36.9 6.87488 36.5478 6.87349 36.1849 6.87205C35.2195 6.8684 34.2542 6.86824 33.2888 6.86893C32.4826 6.86922 31.6764 6.86789 30.8702 6.86658C28.9681 6.86355 27.066 6.86343 25.1639 6.86508C23.2022 6.86673 21.2406 6.86337 19.279 6.85755C17.5941 6.85274 15.9093 6.8511 14.2244 6.85199C13.2184 6.85249 12.2124 6.85177 11.2064 6.84797C10.0846 6.8439 8.9628 6.84644 7.84094 6.84961C7.34146 6.84648 7.34146 6.84648 6.83189 6.84329C6.37304 6.84616 6.37304 6.84616 5.90493 6.84909C5.63978 6.84905 5.37463 6.849 5.10144 6.84895C4.2226 6.97178 3.71688 7.24864 3.00389 7.77051ZM45.0577 15.4167C45.0577 23.8875 45.0577 32.3584 45.0577 41.0859C51.9966 41.0859 58.9355 41.0859 66.0847 41.0859C66.1241 38.3374 66.1635 35.5889 66.2041 32.7571C66.2215 31.893 66.2389 31.029 66.2569 30.1388C66.2625 29.4499 66.2673 28.761 66.2713 28.0721C66.2811 27.7177 66.2909 27.3633 66.301 26.9982C66.3051 24.7776 66.3051 24.7776 65.2136 22.9166C64.8737 22.5938 64.5271 22.2778 64.1731 21.9705C63.9093 21.6992 63.6475 21.4259 63.3882 21.1503C63.0138 20.7754 63.0138 20.7754 62.6317 20.3929C62.4963 20.2572 62.3609 20.1215 62.2214 19.9817C61.9398 19.6999 61.6578 19.4184 61.3755 19.1373C60.9425 18.7058 60.511 18.2728 60.0796 17.8397C59.804 17.5642 59.5282 17.2888 59.2524 17.0135C59.0043 16.7657 58.7562 16.5179 58.5006 16.2626C55.2323 13.1842 49.5475 15.4167 45.0577 15.4167ZM2.45773 43.8167C2.45773 48.3224 2.45773 52.8282 2.45773 57.4705C3.53912 57.4705 4.6205 57.4705 5.73466 57.4705C5.79133 57.2097 5.84801 56.9488 5.9064 56.6801C6.58628 53.7519 7.61386 50.9853 10.0868 49.0809C12.9947 47.2799 16.1133 46.6824 19.4621 47.4072C22.4374 48.3351 24.5638 50.0363 26.0277 52.7599C26.8524 54.3778 26.9539 55.5246 27.3077 57.4705C32.7147 57.4705 38.1216 57.4705 43.6923 57.4705C43.9627 56.2089 44.233 54.9473 44.5116 53.6474C45.8378 50.9319 47.8693 48.6548 50.7924 47.6397C54.1561 46.6869 57.2828 47.0594 60.35 48.7321C62.8508 50.3866 64.2625 52.9724 64.9923 55.8321C65.0973 56.3757 65.195 56.9213 65.2654 57.4705C66.3468 57.4705 67.4282 57.4705 68.5424 57.4705C68.5424 52.9647 68.5424 48.459 68.5424 43.8167C46.7344 43.8167 24.9265 43.8167 2.45773 43.8167ZM12.5616 50.6436C12.3701 50.7562 12.1786 50.8689 11.9813 50.9849C10.3336 52.0834 9.18336 53.6565 8.56356 55.5462C8.10804 58.1407 8.46425 60.4564 9.91828 62.659C11.2717 64.3747 13.0207 65.4931 15.1793 65.8751C17.8333 66.1199 20.0166 65.4961 22.1299 63.8686C23.9087 62.2413 24.7135 60.2611 24.8575 57.8727C24.8302 55.4035 23.8743 53.6122 22.2291 51.802C20.6241 50.2918 18.702 49.507 16.5041 49.4147C14.9986 49.4784 13.8529 49.884 12.5616 50.6436ZM47.5154 53.1013C46.2449 55.0189 45.9194 57.3069 46.3207 59.5527C46.9366 61.8544 48.3432 63.4612 50.2462 64.8436C52.4099 66.0683 54.6208 66.1653 56.9878 65.5263C59.4415 64.6735 60.8195 63.3294 62.013 61.0514C62.8756 59.0487 62.8405 56.6856 62.0909 54.6544C60.9115 52.09 59.1892 50.9338 56.6763 49.7934C53.1103 48.5519 49.831 50.4767 47.5154 53.1013Z" fill="#004AAD"/>
<path d="M16.0433 9.4602C16.7456 10.0259 17.2535 10.5665 17.75 11.3205C17.75 11.681 17.75 12.0415 17.75 12.4128C17.9612 12.4656 18.1724 12.5184 18.39 12.5728C18.6744 12.644 18.9589 12.7151 19.2519 12.7883C19.5501 12.8615 19.8482 12.9348 20.1554 13.0102C20.6737 13.1421 21.1903 13.2816 21.7021 13.4369C22.3275 13.6354 22.3275 13.6354 23.2115 13.7782C23.7239 13.448 23.7239 13.448 24.0308 12.959C25.5142 12.4645 26.8265 12.4584 28.2464 13.1297C29.0424 13.8675 29.1911 14.394 29.4923 15.4167C32.2257 15.7176 32.2257 15.7176 34.6296 14.7511C34.9252 14.4047 34.9252 14.4047 35.2269 14.0513C36.0761 13.6267 36.7459 13.7 37.6846 13.7782C38.9888 14.4431 39.7603 15.1989 40.4154 16.509C40.6521 17.7167 40.5142 18.4997 39.9546 19.5982C39.1657 20.515 38.6054 21.0541 37.3817 21.2377C35.8952 21.315 35.0102 21.0709 33.8615 20.059C33.7207 19.8168 33.5799 19.5746 33.4348 19.3251C33.1034 18.6499 33.1034 18.6499 32.462 18.4717C32.2029 18.4548 31.9438 18.4379 31.6769 18.4205C31.4865 18.4005 31.296 18.3804 31.0998 18.3597C29.4129 18.2492 28.8754 18.6801 27.5808 19.7859C26.7624 19.9777 25.962 20.0385 25.1231 20.059C25.0442 20.2561 24.9654 20.4532 24.8841 20.6563C24.5769 21.4244 24.5769 21.4244 24.2185 22.1071C23.9402 22.8153 23.9402 22.8153 24.4062 23.5066C24.5527 23.7206 24.6991 23.9346 24.85 24.1551C24.85 24.4255 24.85 24.6958 24.85 24.9744C27.1149 25.2019 27.1149 25.2019 29.263 24.68C29.735 24.2734 29.735 24.2734 30.3115 23.609C31.2999 23.2795 32.0025 23.2478 33.0423 23.3359C34.0878 23.8989 34.928 24.4669 35.5 25.5205C35.9057 27.0564 35.7341 27.9652 34.9538 29.3436C34.1525 30.1921 33.4196 30.507 32.3255 30.8285C31.4683 31.0946 31.1678 31.216 30.5334 31.8866C30.2387 32.8616 30.5 33.3176 30.8577 34.259C30.9854 35.6896 30.8401 36.6065 30.0385 37.809C28.9181 38.8226 28.0065 39.0786 26.5375 39.0069C25.3058 38.7884 24.5709 38.1295 23.7918 37.1946C23.384 36.1977 23.3008 35.3102 23.4846 34.259C24.1433 32.9417 24.9246 32.2252 26.2154 31.5282C26.5026 31.4944 26.7899 31.4606 27.0858 31.4258C27.9244 31.3288 27.9244 31.3288 28.3829 30.5213C28.7043 29.5192 28.6054 28.9912 28.4 27.9782C27.7803 27.9414 27.16 27.9149 26.5397 27.8929C26.1943 27.877 25.849 27.8612 25.4932 27.8449C25.1908 27.8889 24.8885 27.9329 24.5769 27.9782C24.0773 28.6127 24.0773 28.6127 23.7577 29.3436C22.3723 30.3411 21.1069 30.78 19.3885 30.709C18.1574 30.4791 17.2523 30.048 16.4187 29.1047C15.7113 28.0643 15.2923 27.331 15.2923 26.0667C14.301 25.8865 13.3098 25.7062 12.2885 25.5205C12.1983 25.7909 12.1082 26.0612 12.0154 26.3398C11.3395 26.6101 11.3395 26.6101 10.65 26.8859C10.65 28.1475 10.65 29.4091 10.65 30.709C11.1006 30.8892 11.5511 31.0695 12.0154 31.2551C12.9546 32.5497 13.3409 33.4458 13.1077 35.0782C12.6992 36.1889 12.2263 36.8445 11.2473 37.5189C10.2288 37.8584 9.53288 37.9424 8.46537 37.809C7.42222 37.2473 6.5664 36.683 6.00768 35.6244C5.61302 34.0457 5.72434 33.1567 6.44503 31.7096C6.94702 31.1122 7.46121 30.9495 8.1923 30.709C8.29722 28.4349 8.29722 28.4349 7.55547 26.3856C7.14022 26.0835 6.71071 25.8013 6.28076 25.5205C5.62765 24.2427 5.61786 23.0576 6.00768 21.6975C6.618 20.7294 7.14592 20.2221 8.1923 19.7859C9.44073 19.5907 10.4087 19.6721 11.5546 20.2126C12.2251 20.8208 12.4207 21.0925 12.7834 21.8681C13.1227 22.5482 13.276 22.7481 13.9941 23.034C14.6095 23.1675 15.2124 23.2704 15.8385 23.3359C15.9409 23.2043 16.0433 23.0726 16.1489 22.937C17.6075 21.1367 17.6075 21.1367 18.8423 20.8782C19.0317 20.8972 19.2211 20.9162 19.4162 20.9358C20.103 21.0024 20.626 21.0379 21.3 20.8782C22.0069 20.141 22.479 19.3286 22.9385 18.4205C22.8483 18.2572 22.7582 18.0939 22.6654 17.9256C22.3923 17.3282 22.3923 17.3282 22.3923 16.509C22.2269 16.4759 22.0614 16.4428 21.8909 16.4087C21.6621 16.363 21.4333 16.3172 21.1976 16.2701C20.8248 16.1982 20.8248 16.1982 20.4445 16.125C19.9364 16.0198 19.4309 15.901 18.9298 15.7666C17.4463 15.3582 17.4463 15.3582 16.0603 15.9287C15.8069 16.1202 15.5534 16.3117 15.2923 16.509C13.8659 16.6873 12.9479 16.4667 11.7423 15.6898C10.8137 14.8114 10.4333 14.0092 10.3332 12.7201C10.4142 11.6455 10.8216 10.8062 11.4692 9.95515C12.8723 8.93471 14.4383 8.76715 16.0433 9.4602ZM13.1077 12.1398C13.1978 12.5903 13.2879 13.0409 13.3808 13.5051C14.0354 13.6907 14.0354 13.6907 14.7461 13.7782C14.9264 13.598 15.1066 13.4178 15.2923 13.2321C15.2048 12.5213 15.2048 12.5213 15.0192 11.8667C14.0673 11.5384 14.0143 11.5353 13.1077 12.1398ZM25.1231 15.6898C25.112 16.1448 25.1114 16.6002 25.1231 17.0551C25.7777 17.2407 25.7777 17.2407 26.4885 17.3282C26.6687 17.148 26.8489 16.9678 27.0346 16.7821C26.9471 16.0713 26.9471 16.0713 26.7615 15.4167C25.8633 15.3165 25.8633 15.3165 25.1231 15.6898ZM35.7731 16.7821C35.7614 17.237 35.762 17.6925 35.7731 18.1475C36.0643 18.5015 36.0643 18.5015 36.7459 18.4376C36.9656 18.432 37.1852 18.4263 37.4115 18.4205C37.5971 17.7659 37.5971 17.7659 37.6846 17.0551C37.5044 16.8749 37.3241 16.6947 37.1385 16.509C36.3396 16.4479 36.3396 16.4479 35.7731 16.7821ZM9.28461 22.2436C9.01426 22.4238 8.74391 22.6041 8.46537 22.7898C8.55549 23.2403 8.64561 23.6909 8.73845 24.1551C9.19071 24.2595 9.64632 24.3501 10.1038 24.4282C10.4578 24.137 10.4578 24.137 10.394 23.4554C10.3883 23.2357 10.3827 23.0161 10.3769 22.7898C10.0165 22.6095 9.65599 22.4293 9.28461 22.2436ZM18.5863 24.0015C17.9108 24.8408 17.8199 25.3101 17.8908 26.3654C18.0019 26.9624 18.0019 26.9624 18.6034 27.5686C19.534 28.0541 19.9934 28.172 21.0269 27.9782C21.9454 27.2993 22.3378 26.9093 22.5459 25.7765C22.3534 24.7714 22.1402 24.4637 21.3 23.8821C20.1806 23.5564 19.6414 23.4852 18.5863 24.0015ZM31.4038 26.0667C31.2236 26.2469 31.0434 26.4271 30.8577 26.6128C30.9447 27.1885 30.9447 27.1885 31.1308 27.7051C31.7854 27.8907 31.7854 27.8907 32.4961 27.9782C32.6764 27.798 32.8566 27.6178 33.0423 27.4321C32.9553 26.8564 32.9553 26.8564 32.7692 26.3398C32.1146 26.1542 32.1146 26.1542 31.4038 26.0667ZM8.73845 33.1667C8.55287 33.8213 8.55287 33.8213 8.46537 34.5321C8.64561 34.7123 8.82584 34.8925 9.01153 35.0782C9.72229 34.9907 9.72229 34.9907 10.3769 34.8051C10.3886 34.3502 10.388 33.8948 10.3769 33.4398C10.0857 33.0858 10.0857 33.0858 9.40408 33.1496C9.18442 33.1553 8.96476 33.1609 8.73845 33.1667ZM26.7615 34.259C26.5813 34.4392 26.4011 34.6195 26.2154 34.8051C26.3029 35.5159 26.3029 35.5159 26.4885 36.1705C26.9434 36.1822 27.3988 36.1816 27.8538 36.1705C28.2078 35.8793 28.2078 35.8793 28.144 35.1977C28.1383 34.978 28.1327 34.7584 28.1269 34.5321C27.4723 34.3465 27.4723 34.3465 26.7615 34.259Z" fill="#004AAD"/>
<path d="M52.5843 17.1746C52.8964 17.1575 53.2084 17.1405 53.53 17.1229C55.676 17.0824 56.8134 17.4768 58.3995 18.9306C58.5926 19.1228 58.7857 19.3149 58.9846 19.5128C59.1454 19.6604 59.3063 19.808 59.472 19.9601C60.3142 20.7387 61.1055 21.5694 61.8933 22.4025C62.2213 22.7475 62.5572 23.085 62.894 23.4213C63.9637 24.5968 64.3055 25.4744 64.3778 27.0737C64.3177 28.1681 64.2276 28.9508 63.5415 29.8215C62.5918 30.6166 61.9371 30.7429 60.7389 30.753C60.3602 30.7569 60.3602 30.7569 59.9738 30.7609C59.7015 30.7621 59.4293 30.7633 59.1488 30.7645C58.8684 30.766 58.5879 30.7676 58.2989 30.7692C57.7053 30.7718 57.1117 30.7735 56.5181 30.7746C55.6107 30.7772 54.7035 30.7857 53.7961 30.7943C53.2194 30.7961 52.6426 30.7975 52.0659 30.7986C51.7948 30.802 51.5237 30.8053 51.2443 30.8088C49.5024 30.8032 48.509 30.6103 47.2423 29.3436C47.1809 28.5533 47.1526 27.79 47.1505 26.999C47.1487 26.766 47.1469 26.5329 47.145 26.2929C47.1422 25.7993 47.141 25.3058 47.1411 24.8122C47.1399 24.0576 47.1299 23.3033 47.1196 22.5487C47.118 22.0694 47.1169 21.5901 47.1164 21.1108C47.1125 20.8852 47.1085 20.6596 47.1045 20.4271C47.1169 18.8631 47.1169 18.8631 47.7451 18.0135C49.1737 17.0146 50.9076 17.2143 52.5843 17.1746ZM49.973 20.059C49.973 22.6723 49.973 25.2857 49.973 27.9782C50.7841 27.9782 51.5951 27.9782 52.4307 27.9782C52.7818 26.9385 53.1318 25.8985 53.4808 24.8581C53.5997 24.5041 53.7189 24.1502 53.8384 23.7965C54.0099 23.2884 54.1804 22.7799 54.3508 22.2713C54.4538 21.9653 54.5567 21.6593 54.6628 21.344C54.915 20.6468 54.915 20.6468 54.8884 20.059C53.2663 20.059 51.6443 20.059 49.973 20.059ZM57.073 21.6975C56.7531 22.6414 56.435 23.586 56.1173 24.5306C55.9805 24.934 55.9805 24.934 55.841 25.3456C55.7547 25.6026 55.6685 25.8595 55.5796 26.1243C55.4996 26.3617 55.4195 26.5991 55.337 26.8436C55.1355 27.417 55.1355 27.417 55.1615 27.9782C57.2341 27.9782 59.3068 27.9782 61.4423 27.9782C61.6286 25.9854 61.6286 25.9854 61.0706 25.1696C60.9007 25.0094 60.7308 24.8493 60.5558 24.6842C60.3722 24.5065 60.1887 24.3287 59.9995 24.1455C59.8054 23.9685 59.6113 23.7914 59.4112 23.609C59.1216 23.3307 59.1216 23.3307 58.8262 23.0468C58.0532 22.1615 58.0532 22.1615 57.073 21.6975Z" fill="#004AAD"/>
<path d="M19.6925 52.4453C20.9839 53.4052 22.321 54.771 22.6654 56.3782C22.8736 58.2787 22.6582 59.7033 21.5731 61.2936C20.4311 62.6893 19.0876 63.5977 17.2913 63.8569C15.2506 63.9389 13.8211 63.5401 12.2949 62.1768C10.9744 60.7966 10.3703 59.5766 10.3801 57.6636C10.5244 55.7496 11.093 54.4841 12.5103 53.1695C14.5882 51.4613 17.3035 51.0836 19.6925 52.4453ZM13.6538 55.832C13.0799 56.693 12.9604 57.2261 12.985 58.2535C13.215 59.3452 13.9211 60.0363 14.7462 60.7474C15.6109 61.2796 16.0456 61.2959 17.0673 61.2595C18.2989 60.9516 18.9881 60.462 19.7469 59.4503C20.1783 58.0383 20.1224 57.0135 19.4567 55.7296C18.7498 54.9049 18.2337 54.5502 17.1633 54.3653C15.4958 54.3156 14.8071 54.6225 13.6538 55.832Z" fill="#004AAD"/>
<path d="M56.6976 52.0261C58.3698 52.986 59.7249 53.9125 60.3671 55.7979C60.7633 57.4799 60.6115 58.8861 60.0598 60.5085C59.0451 62.0142 57.7242 63.1914 55.9808 63.7513C53.8139 64.0675 52.0266 63.6682 50.2461 62.3859C49.6748 61.7971 49.2661 61.1963 48.8808 60.4744C48.7625 60.266 48.6442 60.0576 48.5223 59.8429C48.0505 57.9985 48.1435 56.3295 49.1016 54.6704C50.9426 51.9722 53.6114 51.1215 56.6976 52.0261ZM51.3896 55.8833C50.9655 56.8877 50.8818 57.7722 51.0654 58.8359C51.5936 59.9558 52.0035 60.3859 53.0793 61.0035C54.1699 61.3231 54.6408 61.3984 55.7077 61.0205C56.5688 60.4098 57.4145 59.7916 57.8923 58.8359C58.0767 57.3927 58.0767 57.3927 57.5456 56.0923C56.5692 54.8983 56.5692 54.8983 55.1647 54.4112C53.4914 54.3775 52.5048 54.5374 51.3896 55.8833Z" fill="#004AAD"/>
</g>
<defs>
<clipPath id="clip0_21_372">
<rect width="71" height="71" fill="white" transform="translate(0 0.943604)"/>
</clipPath>
</defs>
</svg>
