<svg width="71" height="72" viewBox="0 0 71 72" fill="none" xmlns="http://www.w3.org/2000/svg">
<path d="M6.47192 4.1386C6.36268 4.22053 6.28076 5.69514 6.28076 7.38822C6.28076 9.92783 6.36268 10.474 6.71768 10.6105C6.96345 10.6924 9.83076 10.7744 13.135 10.7744H19.1154V13.8328V16.9186L17.3404 17.8198C15.265 18.9121 13.5719 20.6598 12.6981 22.5986C11.7423 24.7559 11.6604 25.1382 12.1519 25.6298C12.5342 26.0121 13.7358 26.0667 22.0919 26.0667C32.9058 26.0667 32.5781 26.1213 31.9773 24.0732C31.2127 21.479 28.755 18.639 26.3519 17.574L25.1231 17.0278V13.9148V10.7744H35.5H45.8769V13.9148V17.0278L44.6481 17.574C42.245 18.639 39.7873 21.479 39.0227 24.0732C38.4219 26.1213 38.0942 26.0667 48.9081 26.0667C60.4592 26.0667 59.9404 26.2578 58.3019 22.5986C57.4281 20.6598 55.735 18.9121 53.6596 17.8198L51.8846 16.9186V13.8328V10.7744H57.9742C61.3058 10.7744 64.2004 10.6651 64.3915 10.5559C64.6373 10.3921 64.7192 9.51822 64.6646 7.19706L64.5827 4.08399L35.6092 4.00206C19.6888 3.97476 6.55384 4.02937 6.47192 4.1386ZM62.8077 7.36091V8.86283H35.5H8.1923V7.36091V5.85899H35.5H62.8077V7.36091ZM23.2115 13.6963V16.6455H22.1192H21.0269V13.6963V10.7744H22.1192H23.2115V13.6963ZM49.9731 13.6963V16.6455H48.8808H47.7885V13.6963V10.7744H48.8808H49.9731V13.6963ZM25.5327 19.349C27.1438 20.0863 28.7277 21.5882 29.4923 23.0901L30.0385 24.1551H22.1192C13.6265 24.1551 13.7085 24.1824 14.6642 22.7898C17.2311 18.9121 21.5458 17.5467 25.5327 19.349ZM51.9392 19.1305C53.8508 19.7586 56.8 22.6259 56.8 23.8548C56.8 24.0732 54.5881 24.1551 48.8808 24.1551H40.9615L41.4804 23.1174C42.1631 21.8067 43.8288 20.1409 45.1396 19.4582C47.2696 18.3932 49.345 18.284 51.9392 19.1305Z" fill="#004AAD"/>
<path d="M54.3422 30.6817C53.0041 31.0913 51.9118 31.8013 51.0107 32.8936L50.0549 33.9859H38.4764C27.9903 33.9859 26.8161 34.0405 25.9422 34.4775C25.2868 34.7778 24.9045 35.2148 24.7134 35.8155L24.4676 36.7167H17.4768C11.0595 36.7167 10.4587 36.7713 9.63951 37.2628C8.35605 38.0275 7.8099 39.2563 8.00105 41.004L8.1649 42.4513H4.91528H1.69298L0.846438 43.4071C-0.109331 44.4994 -0.24587 45.5644 0.409515 46.7932C1.22875 48.3771 1.72028 48.459 12.2611 48.459H21.8461V53.6475V58.8359H19.9345C17.5861 58.8359 16.3026 59.3275 15.5653 60.529C15.0737 61.3482 15.0191 61.8125 15.0737 65.1167L15.1557 68.8032H35.4999H55.8441L55.926 65.1167C55.9807 61.8125 55.926 61.3482 55.4345 60.529C54.6972 59.3275 53.4137 58.8359 51.0653 58.8359H49.1537V53.6475V48.459H58.7387C69.2795 48.459 69.771 48.3771 70.5903 46.7932C71.2457 45.5644 71.1091 44.4994 70.1534 43.4071L69.3068 42.4513H65.238C62.9987 42.4513 61.1691 42.3421 61.1691 42.2055C61.1691 42.069 61.333 41.8232 61.5514 41.6594C61.7699 41.4955 62.2068 40.7036 62.5345 39.939C63.7087 37.2355 62.8076 33.6855 60.541 31.9651C58.8207 30.6544 56.2264 30.1082 54.3422 30.6817ZM58.0834 32.7571C59.4487 33.3305 60.0495 33.904 60.6503 35.2148C61.7972 37.7271 60.8414 40.5125 58.3837 41.7959C57.2368 42.3967 54.943 42.2875 53.6595 41.5501C50.9834 40.0209 50.4918 35.8975 52.7584 33.7948C54.233 32.4294 56.3084 32.0198 58.0834 32.7571ZM49.4268 36.3071C49.4268 36.6621 48.4711 36.7167 42.5453 36.7167C36.2645 36.7167 35.5545 36.7713 34.7899 37.2355C33.5611 37.9728 32.933 39.4748 33.1514 41.1132L33.3426 42.4513H30.3387C28.7003 42.4513 27.1711 42.3694 26.9253 42.2875C26.5703 42.1509 26.4884 41.6048 26.4884 39.1744C26.4884 37.0717 26.5976 36.1705 26.8434 36.0886C27.0072 36.0067 32.1684 35.9248 38.3126 35.9248C48.0068 35.8975 49.4268 35.9521 49.4268 36.3071ZM24.5768 40.5671V42.4786L17.7226 42.3967C10.8957 42.3148 10.8684 42.3148 10.3495 41.6594C9.72144 40.8948 9.69413 40.0482 10.2676 39.229C10.6772 38.6282 10.7591 38.6282 17.6407 38.6282H24.5768V40.5671ZM50.1095 40.3486C50.5464 41.2771 50.9561 42.1236 51.0107 42.2328C51.1745 42.5878 37.3295 42.4786 36.3464 42.1509C34.9264 41.6594 34.4895 40.1848 35.4999 39.1744C36.0187 38.6555 36.4011 38.6282 42.6818 38.6282H49.2903L50.1095 40.3486ZM68.9245 44.7998C69.1703 45.4551 69.143 45.6463 68.6514 46.1105C68.2691 46.4928 64.883 46.5475 35.4999 46.5475C6.11682 46.5475 2.73067 46.4928 2.34836 46.1105C1.85682 45.6463 1.82951 45.4551 2.07528 44.7998C2.23913 44.4175 5.43413 44.3628 35.4999 44.3628C65.5657 44.3628 68.7607 44.4175 68.9245 44.7998ZM47.2422 53.6475V58.8359H35.4999H23.7576V53.6475V48.459H35.4999H47.2422V53.6475ZM53.4684 61.1844C54.0145 61.5667 54.0691 61.8125 54.0691 64.3248V67.0282H35.4999H16.9307V64.3248C16.9307 61.8125 16.9853 61.5667 17.5314 61.1844C18.0776 60.8021 20.2349 60.7475 35.4999 60.7475C50.7649 60.7475 52.9222 60.8021 53.4684 61.1844Z" fill="#004AAD"/>
</svg>
