<svg width="71" height="72" viewBox="0 0 71 72" fill="none" xmlns="http://www.w3.org/2000/svg">
<g clip-path="url(#clip0_17_131)">
<path d="M13.9269 0.8993C12.698 1.44545 11.5511 2.51046 10.8957 3.79391C9.77612 5.97853 10.4861 12.6416 12.3977 17.6935C14.2546 22.6908 17.4496 27.2239 22.7746 32.4943L26.2973 35.9624L23.0477 39.1847C21.2454 40.9324 19.2519 43.0351 18.6238 43.8543C17.5588 45.1924 17.5042 45.3835 17.8319 45.8751C18.46 46.8308 18.815 46.7216 20.1257 45.1924C22.8019 42.1339 27.1711 38.0378 32.66 33.5047C42.3542 25.4762 47.0784 20.3151 49.2904 15.3451C50.1915 13.2697 51.0653 9.74699 51.0653 7.97199C51.0927 5.73276 51.5023 4.50392 52.54 3.52084C53.3592 2.81084 53.7415 2.64699 54.7792 2.64699C57.6192 2.64699 58.93 4.55853 58.575 8.29969C58.3292 11.167 57.7284 14.0616 56.9092 16.3008C56.2538 18.1851 56.2538 18.8678 56.9638 19.1408C57.7011 19.4139 58.138 18.977 58.7115 17.4478C59.7765 14.6351 60.3773 11.5493 60.5411 8.24507C60.6777 5.26853 60.6504 4.85892 60.1315 3.87584C58.2473 0.161995 54.0965 -0.629929 50.9834 2.10084L49.7546 3.19315H35.5H21.2454L20.0165 2.10084C18.1596 0.489685 15.9204 0.0254555 13.9269 0.8993ZM17.8046 2.94738C18.3234 3.22046 18.3234 3.27507 17.5042 3.76661C14.1454 5.78738 15.5654 11.1124 19.4704 11.1124C20.235 11.1124 20.4807 11.2216 20.4807 11.5766C20.508 11.8497 20.7265 12.7508 21.0269 13.5701L21.5457 15.072L20.6992 15.7274C19.088 17.0108 18.6511 19.3593 19.7434 20.9705C20.6719 22.3631 21.8734 22.8547 24.4404 22.8547L26.625 22.882L30.2023 26.3501L33.8069 29.8455L30.9396 32.2212L28.0723 34.597L25.7238 32.467C24.4404 31.3201 22.4196 29.2447 21.2454 27.9066C15.8384 21.7351 13.2988 16.2462 12.5342 9.20084C12.2338 6.55199 12.2611 6.08776 12.6707 4.99546C13.2442 3.46622 14.4184 2.64699 16.0569 2.64699C16.7123 2.64699 17.5042 2.78353 17.8046 2.94738ZM36.92 6.2243C37.4934 6.98892 37.4115 7.78084 36.7015 8.51815C36.3465 8.87315 34.9538 8.92776 27.4715 8.92776C19.0607 8.92776 18.6238 8.90046 18.1596 8.38161C17.5315 7.69892 17.5588 6.60661 18.1596 5.92392C18.6511 5.37776 18.9788 5.37776 27.5261 5.43238L36.4011 5.5143L36.92 6.2243ZM49.1538 6.71584C49.1538 9.03699 49.4269 8.92776 43.9927 8.92776H39.1865V7.15276V5.37776H44.1838H49.1538V6.71584ZM48.2253 12.2593C48.0069 12.9147 47.7338 13.7612 47.5427 14.1708L47.2423 14.9355H35.5H23.7577L23.4573 14.1708C23.2661 13.7612 22.993 12.9147 22.7746 12.2593L22.4196 11.1124H35.5H48.5804L48.2253 12.2593ZM31.8134 18.8951V20.6701H27.0619C23.0204 20.6701 22.2284 20.6155 21.7915 20.2058C21.1907 19.6597 21.1634 18.2943 21.7642 17.6116C22.1465 17.1747 22.6927 17.1201 27.0073 17.1201H31.8134V18.8951ZM45.8769 17.2839C45.8769 17.3931 45.358 18.1851 44.73 19.0589L43.5557 20.6428L39.1319 20.6701C35.0357 20.6701 34.6261 20.6155 34.1346 20.1239C33.4246 19.4139 33.4519 18.7312 34.1619 17.8301L34.708 17.1201H40.3061C43.3646 17.1201 45.8769 17.202 45.8769 17.2839ZM38.5584 25.5855C37.0019 27.0874 35.6365 28.3162 35.5 28.3162C35.3634 28.3162 33.998 27.0874 32.4415 25.5855L29.6288 22.882H35.5H41.3711L38.5584 25.5855Z" fill="#004AAD"/>
<path d="M53.1681 23.592C49.7546 28.4528 46.6416 31.5386 36.8654 39.6762C28.2362 46.8855 23.8123 51.8009 21.6823 56.607C20.8085 58.6005 19.9346 62.2051 19.9346 63.9528C19.9073 66.192 19.4977 67.4209 18.46 68.3766C16.5758 70.1243 13.5992 69.3597 12.6708 66.9293C11.715 64.3897 13.0531 57.3716 15.4289 52.4289C16.7942 49.6436 16.8489 49.3159 16.2208 48.7697C15.5927 48.2509 15.0739 48.6878 14.0089 50.5993C11.0596 55.897 9.42116 65.2363 10.8958 68.1309C12.7527 71.7628 16.9308 72.5274 20.0165 69.8239L21.2454 68.7316H35.5H49.7546L50.9835 69.8239C54.0692 72.5274 58.2473 71.7628 60.1042 68.1309C61.2239 65.9463 60.5139 59.2832 58.6023 54.2313C56.7454 49.2339 53.5504 44.7009 48.2254 39.4305L44.7027 35.9624L47.9523 32.7401C51.2566 29.4905 53.7416 26.5959 55.38 24.0289C56.1446 22.8547 56.2266 22.527 55.9808 22.0628C55.4346 20.9978 54.7246 21.3801 53.1681 23.592ZM49.7546 44.0182C55.0523 50.0532 57.6192 55.5147 58.4385 62.3143C58.9027 66.3013 58.575 67.6393 56.8819 68.7589C56.0354 69.3324 54.0692 69.4416 53.1954 68.9774C52.6766 68.7043 52.6766 68.6497 53.4958 68.1582C56.8546 66.1374 55.4346 60.8124 51.5569 60.8124C50.765 60.8124 50.5192 60.7032 50.5192 60.3209C50.4919 60.0751 50.2735 59.1739 49.9731 58.3547L49.4542 56.8528L50.3008 56.1974C51.9119 54.9139 52.3489 52.5655 51.2566 50.9543C50.3281 49.5616 49.1266 49.0701 46.5596 49.0701L44.375 49.0428L40.7977 45.5747L37.1931 42.0793L40.0604 39.7036L42.9277 37.3278L45.2762 39.4578C46.5596 40.6047 48.5804 42.6528 49.7546 44.0182ZM38.5585 46.3393L41.3712 49.0428H35.5H29.6289L32.4416 46.3393C33.9981 44.8374 35.3635 43.6086 35.5 43.6086C35.6366 43.6086 37.0019 44.8374 38.5585 46.3393ZM36.8654 51.8009C37.5754 52.5109 37.5481 53.1936 36.8381 54.0947L36.2919 54.8047H30.6939C27.6354 54.8047 25.1231 54.7228 25.1231 54.6409C25.1231 54.5316 25.6419 53.7397 26.2973 52.8659L27.4442 51.282L31.8954 51.2547C35.9642 51.2547 36.3739 51.3093 36.8654 51.8009ZM49.2085 51.7189C49.8092 52.2651 49.8366 53.6305 49.2358 54.3132C48.8535 54.7501 48.3073 54.8047 43.9927 54.8047H39.1866V53.0297V51.2547H43.9381C47.9796 51.2547 48.7716 51.3093 49.2085 51.7189ZM47.5427 57.7266C47.7339 58.1636 48.0069 59.0101 48.2254 59.6382L48.5804 60.8124H35.5H22.4196L22.7746 59.6382C22.9931 59.0101 23.2662 58.1636 23.4573 57.7266L23.7577 56.9893H35.5H47.2423L47.5427 57.7266ZM31.8135 64.772V66.547H26.8435H21.8462V65.2089C21.8462 62.8878 21.5731 62.997 27.0073 62.997H31.8135V64.772ZM52.8404 63.5432C53.0862 63.8163 53.3319 64.3897 53.3319 64.772C53.3319 65.1543 53.0862 65.7278 52.8404 66.0009C52.3762 66.5197 51.9392 66.547 43.5285 66.547H34.7081L34.1346 65.8097C33.4792 64.9905 33.5885 63.9255 34.3258 63.3247C34.6808 63.0789 36.9746 62.997 43.5558 62.997C51.9392 62.997 52.3762 63.0243 52.8404 63.5432Z" fill="#004AAD"/>
</g>
<defs>
<clipPath id="clip0_17_131">
<rect width="71" height="71" fill="white" transform="translate(0 0.462402)"/>
</clipPath>
</defs>
</svg>
