<svg width="71" height="72" viewBox="0 0 71 72" fill="none" xmlns="http://www.w3.org/2000/svg">
<g clip-path="url(#clip0_21_296)">
<path d="M33.4246 2.00861C32.2504 2.71861 31.95 3.81092 31.95 7.14246C31.95 11.0748 32.7419 12.4128 35.0084 12.4128H36.0461V14.5702C36.0461 15.7717 35.9096 17.0825 35.7731 17.4648C35.6092 17.8744 34.3804 19.5402 33.0423 21.1513C31.7042 22.7898 30.2023 24.674 29.7108 25.384L28.8096 26.6675L28.7277 38.6829L28.6458 50.6982L28.045 50.5344C27.7173 50.4525 27.2804 50.3705 27.1165 50.3705C26.8708 50.3705 26.7615 49.9063 26.7615 49.0052C26.7615 47.4759 26.2154 46.1652 25.4234 45.7282C25.0958 45.5644 21.6277 45.4552 16.1661 45.4552H7.45499L6.74498 46.1105C5.81652 46.9844 5.65268 47.6944 5.84383 50.2613C6.03498 53.1013 6.03498 53.1559 5.84383 55.7775C5.7346 57.3067 5.78922 58.2898 6.00768 58.8632C6.63575 60.3652 7.07268 60.4744 11.9061 60.4744H16.3027L16.4665 62.0855C17.0946 69.0763 24.9592 73.4455 31.2946 70.3052C33.5065 69.2402 35.8004 66.7825 36.565 64.7071C36.8927 63.8605 37.1384 62.9594 37.1384 62.6863C37.1384 62.4132 37.2204 61.7852 37.3023 61.3209L37.4934 60.4744H49.0992C60.3227 60.4744 60.7596 60.4471 61.9065 59.9009C63.2992 59.2182 64.5281 57.8255 64.965 56.4055C65.1561 55.6682 65.2654 51.0532 65.2654 41.3863C65.2654 29.7532 65.2108 27.2682 64.8558 26.449C64.6373 25.9302 63.1081 23.8548 61.4423 21.8613C59.8038 19.8405 58.3292 17.8744 58.1654 17.4648C58.0288 17.0825 57.8923 15.7717 57.8923 14.5702V12.4128H58.93C60.2135 12.4128 61.1146 11.8121 61.6061 10.6105C62.125 9.38169 62.125 4.52092 61.6061 3.26477C60.8415 1.46246 60.9508 1.48977 46.9146 1.48977C34.9811 1.48977 34.2165 1.51707 33.4246 2.00861ZM59.64 3.83823C59.9677 4.16592 60.0769 4.84861 60.0769 6.84207C60.0769 8.28938 59.9404 9.68208 59.8038 9.98246C59.5308 10.474 59.0938 10.5013 46.9692 10.5013C34.8446 10.5013 34.4077 10.474 34.1346 9.98246C33.9981 9.68208 33.8615 8.28938 33.8615 6.84207C33.8615 4.84861 33.9708 4.16592 34.2984 3.83823C34.6808 3.45592 36.21 3.40131 46.9692 3.40131C57.7285 3.40131 59.2577 3.45592 59.64 3.83823ZM55.9808 14.6248C55.9808 15.8536 56.1173 17.3282 56.3084 17.9017C56.4723 18.5298 57.8377 20.4959 59.7219 22.7625C61.415 24.8652 62.9442 26.9132 63.0808 27.2955C63.2446 27.7052 63.3538 29.289 63.3538 30.8729V33.7129H60.6231H57.8923V30.3267C57.8923 27.0771 57.865 26.8859 57.1823 26.094C56.8 25.6298 56.0354 25.1382 55.4892 24.9744C54.1784 24.6194 39.7873 24.6194 38.4765 24.9744C37.9577 25.1382 37.2204 25.5752 36.8381 25.9575C36.2373 26.6129 36.1827 26.8859 36.1008 30.1902L35.9915 33.7129H33.2881H30.5846V30.8455C30.5846 28.9613 30.7211 27.6505 30.9669 27.0771C31.1854 26.5855 32.6873 24.6194 34.2984 22.6532C35.9096 20.7144 37.3842 18.7209 37.6027 18.2294C37.7938 17.7105 37.9577 16.3178 37.9577 14.8705V12.4128H46.9692H55.9808V14.6248ZM55.6531 27.2136C56.0627 27.6232 56.1173 50.8075 55.7077 51.4629C55.3254 52.0909 39.5688 52.2275 38.6131 51.5994L37.9577 51.1898V39.3655C37.9577 30.5452 38.0396 27.4594 38.2854 27.2136C38.7496 26.7494 55.1888 26.7494 55.6531 27.2136ZM36.0461 39.3109V42.9975H33.3154H30.5846V39.3109V35.6244H33.3154H36.0461V39.3109ZM63.3538 39.3109V42.9975H60.6231H57.8923V39.3109V35.6244H60.6231H63.3538V39.3109ZM36.0461 48.3498C36.0461 51.9271 36.3465 52.8009 37.8484 53.5109C39.1319 54.1117 54.8065 54.1117 56.09 53.5109C57.5919 52.8009 57.8923 51.9271 57.8923 48.3498V45.1821H60.6504H63.3811L63.2992 50.5617C63.2173 55.6409 63.19 56.0232 62.6165 56.8152C61.3604 58.5629 61.3604 58.5629 48.4984 58.5629C38.2308 58.5629 36.8654 58.5082 36.8654 58.1532C36.8654 57.3886 35.5 54.9855 34.3531 53.7567C33.725 53.074 32.6327 52.2002 31.8954 51.7905L30.5846 51.0532V48.104V45.1821H33.3154H36.0461V48.3498ZM24.7954 49.0598C24.8773 50.589 24.85 50.6436 24.1127 50.8075C23.7031 50.9167 22.8838 51.2171 22.3377 51.4902C21.4365 51.9544 20.6173 52.009 14.8008 52.009C10.1038 52.009 8.2196 51.9271 7.97383 51.6813C7.64614 51.3536 7.5096 48.5682 7.80999 47.8036C7.97383 47.394 8.90229 47.3667 16.3573 47.4213L24.7134 47.5032L24.7954 49.0598ZM29.5742 52.8829C30.1204 53.0467 30.5846 53.2652 30.5846 53.3471C30.5846 53.429 28.0177 56.0779 24.8773 59.2182L19.17 64.9255L18.7331 63.4782C17.8865 60.6655 18.3781 58.044 20.1804 55.6955C22.3377 52.8555 25.8877 51.7905 29.5742 52.8829ZM18.8423 54.0844C18.8423 54.1663 18.5419 54.6305 18.1596 55.1221C17.7773 55.6136 17.2858 56.5967 17.04 57.3067L16.6031 58.5629H12.2884C8.60191 58.5629 7.94652 58.5082 7.80999 58.1259C7.5096 57.3613 7.64614 54.5759 7.97383 54.2482C8.2196 54.0025 9.83075 53.9205 13.5719 53.9205C16.4665 53.9205 18.8423 54.0025 18.8423 54.0844ZM27.335 61.4029C21.6004 67.1375 21.2727 67.4105 20.8358 66.9463C20.3715 66.5094 20.6446 66.1817 26.3519 60.4744C32.0592 54.7671 32.3596 54.494 32.8511 54.9309C33.3154 55.3679 33.0696 55.6682 27.335 61.4029ZM34.8446 58.1532C35.3634 59.4094 35.3361 62.2494 34.79 63.8605C34.1892 65.6082 32.0592 67.8748 30.2569 68.694C28.5638 69.4313 25.6419 69.5679 23.9215 68.9671L22.8838 68.6121L28.5638 62.9048C31.7042 59.7644 34.2984 57.1975 34.3531 57.1975C34.4077 57.1975 34.6261 57.6344 34.8446 58.1532Z" fill="#004AAD"/>
<path d="M43.8834 32.2382C43.7742 32.3475 43.6923 33.2213 43.6923 34.1771V35.8975H41.9719C40.9888 35.8975 40.115 36.034 39.9238 36.2252C39.4596 36.6894 39.4869 42.0144 39.9511 42.3967C40.1423 42.5606 41.0434 42.7244 41.9173 42.779L43.5557 42.8609L43.6377 44.4994C43.7469 46.6294 43.9927 46.8206 46.9146 46.8206C50.055 46.8206 50.2461 46.684 50.2461 44.4994V42.7244H51.9665C52.9496 42.7244 53.8234 42.5879 54.0146 42.3967C54.4515 41.9598 54.4515 36.6621 54.0146 36.2252C53.8234 36.034 52.9496 35.8975 51.9665 35.8975H50.2734L50.1915 34.0406L50.1096 32.2109L47.0784 32.129C45.44 32.1017 43.9927 32.1563 43.8834 32.2382ZM48.3346 35.5698C48.3346 36.4436 48.4711 37.2902 48.6623 37.4813C48.8534 37.6725 49.7273 37.809 50.7103 37.809H52.4307V39.3109V40.8129H50.6557C48.5803 40.8129 48.3346 41.0859 48.3346 43.2432V44.6359H46.9692H45.6038V43.0521C45.6038 42.1782 45.4673 41.3317 45.2761 41.1406C45.085 40.9494 44.2111 40.8129 43.228 40.8129H41.5077V39.3109V37.809H43.228C44.2111 37.809 45.085 37.6725 45.2761 37.4813C45.4673 37.2902 45.6038 36.4436 45.6038 35.5698V33.9859H46.9692H48.3346V35.5698Z" fill="#004AAD"/>
<path d="M16.9308 20.9055C15.7838 21.2605 7.04538 29.7532 6.25346 31.3098C5.62538 32.5386 5.59807 33.8767 6.17153 35.324C6.49922 36.1432 6.52653 36.6075 6.30807 37.4267C5.78922 39.4201 6.66307 41.4955 8.49269 42.5878C9.33923 43.0794 9.99461 43.134 15.5654 43.2159C18.9515 43.2705 22.2285 43.2432 22.8838 43.134C24.2492 42.9428 25.9423 41.5775 26.4885 40.2667C27.0073 39.0378 26.7069 36.9078 25.8604 35.8155C24.6861 34.259 23.7304 33.9859 19.7708 33.9859H16.2481L19.3065 30.9001C20.9723 29.2344 22.4742 27.5686 22.6381 27.2409C23.075 26.3671 22.9931 24.2371 22.4742 23.1448C21.6277 21.3151 19.0335 20.2775 16.9308 20.9055ZM19.525 22.899C20.6173 23.3632 21.0269 24.0459 21.0269 25.4113C21.0269 26.2851 20.7811 26.6675 18.9788 28.4971L16.9581 30.5725L15.0192 28.6609L13.1077 26.7767L14.8281 25.029C16.3027 23.4998 17.6408 22.5713 18.3781 22.5167C18.4873 22.5167 19.0061 22.6805 19.525 22.899ZM13.7085 30.0809L15.5654 31.9105L14.555 32.9482C13.5719 33.9586 13.49 33.9859 11.5238 33.9859C10.2677 33.9859 9.22999 34.1498 8.73846 34.3955C7.94653 34.8051 7.91922 34.7778 7.75538 34.1225C7.45499 32.9209 7.89192 32.0471 9.74884 30.1082C10.7592 29.0978 11.6331 28.2513 11.715 28.2513C11.7969 28.2513 12.6981 29.0705 13.7085 30.0809ZM15.5654 38.6282V41.359H13.1077C9.36653 41.359 8.1923 40.6763 8.1923 38.4917C8.1923 37.7544 8.41076 37.2901 8.98423 36.6894C9.77615 35.9248 9.85807 35.8975 12.6708 35.8975H15.5654V38.6282ZM23.8942 36.5255C24.3585 36.9078 24.6588 37.5086 24.7681 38.2459C24.9046 39.229 24.7954 39.5021 24.0854 40.294L23.2661 41.2225L20.3715 41.3044L17.4769 41.4136V38.6555V35.8975H20.3169C22.8838 35.8975 23.2661 35.9521 23.8942 36.5255Z" fill="#004AAD"/>
</g>
<defs>
<clipPath id="clip0_21_296">
<rect width="71" height="71" fill="white" transform="translate(0 0.943604)"/>
</clipPath>
</defs>
</svg>
