<svg width="71" height="72" viewBox="0 0 71 72" fill="none" xmlns="http://www.w3.org/2000/svg">
<g clip-path="url(#clip0_21_307)">
<path d="M31.8135 1.10746C23.1023 2.44553 16.5212 5.72246 10.65 11.5936C5.48889 16.7548 2.18466 22.7625 0.655425 29.8898C-0.0545752 33.1121 -0.0545752 39.7752 0.655425 42.9975C2.18466 50.1248 5.48889 56.1325 10.65 61.2936C15.8112 66.4548 21.8189 69.759 28.9462 71.2882C32.1685 71.9982 38.8316 71.9982 42.0539 71.2882C49.1812 69.759 55.1889 66.4548 60.35 61.2936C65.5112 56.1325 68.8154 50.1248 70.3447 42.9975C71.0547 39.7752 71.0547 33.1121 70.3447 29.8898C68.8154 22.7625 65.5112 16.7548 60.35 11.5936C55.2981 6.51438 49.5089 3.29208 42.6 1.73553C40.3335 1.21669 33.6431 0.834381 31.8135 1.10746ZM39.05 3.94746C46.5323 4.87592 53.0316 8.07092 58.4658 13.4778C71.437 26.4763 71.437 46.4109 58.4658 59.4094C45.4674 72.3805 25.5327 72.3805 12.5343 59.4094C-0.436883 46.4109 -0.436883 26.4763 12.5343 13.4778C19.7708 6.26862 29.465 2.77323 39.05 3.94746Z" fill="#004AAD"/>
<path d="M25.7785 10.2282C20.8085 13.4506 17.5043 19.4036 17.477 25.1109V26.7494L15.8112 28.0602C12.9985 30.3267 10.6501 33.9859 9.69428 37.6725C9.47582 38.5463 9.28467 40.4032 9.28467 41.7959C9.28467 43.844 9.36659 44.3629 9.77621 44.7179C10.8139 45.6736 11.797 44.9909 12.152 43.134C12.7801 39.5294 15.4289 36.5529 18.9516 35.4879L20.1531 35.1329L20.3443 36.6621C20.5901 38.7375 21.6004 41.6048 22.6654 43.2706C23.867 45.1275 26.6797 47.6944 28.5093 48.5956C29.3558 49.0052 30.0385 49.4694 30.0385 49.6059C30.0385 50.2613 27.1712 52.8009 25.5874 53.5383C24.1127 54.2209 23.5666 54.3302 21.5731 54.3029C19.6616 54.3029 18.9789 54.1663 17.6408 53.5656C15.9204 52.7736 15.2104 52.8009 14.7462 53.6748C14.3639 54.3848 14.7189 55.0129 16.1662 56.1871C17.832 57.4979 18.9789 58.1259 21.3001 58.9998C23.1843 59.7098 23.6485 59.7644 27.1712 59.7644C30.8031 59.7644 31.1035 59.7098 33.2608 58.9179L35.5001 58.044L37.7666 58.9179C39.8966 59.7098 40.197 59.7644 43.8289 59.7644C47.3516 59.7644 47.8158 59.7098 49.7001 58.9998C52.0212 58.1259 53.1681 57.4979 54.8339 56.1871C56.2812 55.0129 56.6362 54.3848 56.2539 53.6748C55.7897 52.8009 55.0797 52.7736 53.3593 53.5656C52.0212 54.1663 51.3385 54.3029 49.427 54.3029C47.4335 54.3302 46.8874 54.2209 45.4127 53.5383C43.8289 52.8009 40.9616 50.2613 40.9616 49.6059C40.9616 49.4694 41.6443 49.0052 42.4908 48.5956C44.3204 47.6944 47.1331 45.1275 48.3347 43.2706C49.3997 41.6048 50.4101 38.7375 50.6558 36.6621L50.847 35.1329L52.0485 35.4879C55.5712 36.5529 58.2201 39.5294 58.8481 43.134C59.2031 45.0183 60.3227 45.7283 61.2512 44.6906C61.852 44.0352 61.8793 39.939 61.3058 37.6725C60.3501 33.9859 58.0016 30.3267 55.1889 28.0602L53.5231 26.7494V25.1656C53.5231 21.0421 51.6116 16.2906 48.6897 13.2321C46.6689 11.0748 43.9108 9.13594 42.8731 9.13594C41.1801 9.13594 41.0708 10.5286 42.6001 12.2763C43.9927 13.8875 44.6754 15.2256 45.0031 16.9733C45.3308 18.7756 44.812 22.7079 44.2931 22.4621C44.1839 22.4075 43.3101 21.9706 42.327 21.479C40.4154 20.5233 37.4662 19.7859 35.5001 19.7859C33.5339 19.7859 30.5847 20.5233 28.6731 21.479C27.6901 21.9706 26.8162 22.4075 26.707 22.4621C26.1881 22.7079 25.6693 18.7756 25.997 16.9733C26.3247 15.2256 27.0074 13.8875 28.4001 12.2763C29.4924 10.9929 29.7654 10.0644 29.1647 9.46363C28.5639 8.86287 27.4716 9.10863 25.7785 10.2282ZM23.0751 17.7925C22.8566 19.4856 23.4847 22.544 24.4404 24.4556C26.1062 27.7325 29.902 30.4359 33.6977 31.0094C38.7224 31.8013 44.2658 28.9613 46.5597 24.4556C47.5154 22.5167 48.1435 19.4856 47.9251 17.7379C47.7066 16.0994 47.9524 16.2632 49.1539 18.6117C50.1643 20.6598 50.847 23.9367 50.7377 26.3125L50.6558 28.0602L52.6493 29.6167C54.6154 31.1186 56.1993 32.8663 56.9639 34.3136L57.3462 35.0782L56.0627 34.259C53.1135 32.3748 49.1539 31.8559 45.8224 32.8936C36.7289 35.7063 33.9435 46.9298 40.6885 53.6748C41.9447 54.9309 44.8666 56.6513 45.7404 56.6513C45.9589 56.6513 46.1501 56.7606 46.1501 56.9244C46.1501 57.3067 42.1904 57.2521 40.4154 56.8425C39.5962 56.624 38.1489 56.1325 37.2204 55.6956L35.5001 54.9309L33.9162 55.6409C33.0697 56.0233 31.6224 56.5421 30.7212 56.7879C28.9189 57.2521 24.8501 57.3613 24.8501 56.9244C24.8501 56.7606 25.0412 56.6513 25.287 56.6513C26.1608 56.6513 29.0827 54.849 30.4754 53.4563C36.4831 47.4759 34.6535 37.2083 26.8981 33.549C23.1024 31.7467 18.4601 32.0198 14.9374 34.2317L13.6539 35.0782L14.0362 34.3136C14.8008 32.8663 16.3847 31.1186 18.3508 29.6167L20.3443 28.0602L20.2624 26.5036C20.1531 24.4009 20.6447 21.3971 21.3547 19.6767C22.0101 18.1748 22.9112 16.509 23.1024 16.509C23.1843 16.509 23.157 17.0825 23.0751 17.7925ZM39.6508 23.3359C40.4427 23.6363 41.5351 24.1279 42.0539 24.4556L43.0097 25.0563L42.0539 25.8483C41.5351 26.3125 40.3335 27.0498 39.3777 27.4867C36.1008 29.0432 32.3051 28.4971 29.192 26.0394C28.3727 25.4113 28.1816 25.1109 28.4001 24.8379C28.8097 24.3463 31.7316 23.0902 33.097 22.7898C34.7901 22.4348 37.9577 22.6806 39.6508 23.3359ZM25.6147 35.9248C29.1647 37.454 32.032 42.5333 31.2674 45.974L31.0762 46.8206L29.7381 46.0833C25.997 44.0625 23.7577 40.7582 23.0751 36.2252L22.8839 35.0509L23.6758 35.2421C24.0854 35.3513 24.9593 35.6517 25.6147 35.9248ZM47.9251 36.2252C47.2424 40.7582 45.0031 44.0625 41.262 46.1106L39.8966 46.8479L39.7054 45.8648C39.1593 42.8609 41.0435 38.8467 44.0474 36.6621C44.7301 36.1706 47.297 35.1056 47.8704 35.0782C48.007 35.0782 48.0343 35.5971 47.9251 36.2252Z" fill="#004AAD"/>
<path d="M34.5716 34.1498C33.725 34.969 34.3258 36.4436 35.5 36.4436C36.6743 36.4436 37.275 34.969 36.4285 34.1498C36.21 33.904 35.7731 33.7128 35.5 33.7128C35.2269 33.7128 34.79 33.904 34.5716 34.1498Z" fill="#004AAD"/>
</g>
<defs>
<clipPath id="clip0_21_307">
<rect width="71" height="71" fill="white" transform="translate(0 0.943604)"/>
</clipPath>
</defs>
</svg>
