<svg width="72" height="73" viewBox="0 0 72 73" fill="none" xmlns="http://www.w3.org/2000/svg">
<g clip-path="url(#clip0_17_119)">
<path d="M40.0455 1.206C40.5536 1.30764 41.8343 1.53124 42.8913 1.69386C43.9484 1.87682 45.8795 2.36468 47.1805 2.81189C50.2296 3.82828 55.3725 6.38956 55.9417 7.18233C56.4296 7.85315 55.6571 9.03216 54.905 8.74757C54.722 8.68659 53.8276 8.17839 52.9129 7.64987C50.006 5.94234 46.9162 4.76334 42.8913 3.78761C41.1635 3.38106 40.4317 3.3404 35.9799 3.32008C30.6337 3.32008 29.7596 3.44205 25.6128 4.74302C17.6647 7.24332 10.7533 12.8944 6.48444 20.3953C3.84184 25.0097 2.45956 29.8884 2.29694 35.1329C2.1953 38.1211 2.21564 38.3447 2.64252 39.1984C3.13038 40.1945 4.00447 41.2312 4.35004 41.2312C4.51266 41.2312 4.55332 40.1132 4.51266 37.7552C4.45168 34.7873 4.59397 32.3887 4.95987 30.7625C6.05756 25.7822 8.07001 21.3914 11.0378 17.5495C12.3795 15.8216 15.2457 13.057 17.2581 11.5528C21.3237 8.48331 26.7511 6.26759 31.5688 5.65776C33.6626 5.3935 38.6835 5.3935 40.5536 5.65776C50.6565 7.0807 60.0072 13.9718 64.4387 23.2412C64.9672 24.3592 65.6787 26.1481 66.0242 27.2051C66.5731 28.8923 66.7357 29.4818 67.0203 30.8641C67.6504 33.9132 67.6504 40.0115 67.0203 43.0607C66.7357 44.443 66.5731 45.0325 66.0242 46.7197C65.1908 49.342 63.5036 52.7367 61.9587 54.9524C59.804 58.0422 55.4132 62.2704 53.0958 63.4697C52.3437 63.8559 51.7542 63.673 51.5306 62.9818C51.3476 62.3923 51.5712 62.1281 53.5634 60.6238C60.1699 55.6639 64.337 48.4882 65.2518 40.5197C66.2885 31.291 63.3003 22.6517 56.7955 16.1468C51.185 10.5364 43.8467 7.48725 35.9799 7.48725C28.0928 7.48725 20.9171 10.4551 15.2253 16.0655C9.18803 22.0215 6.1592 29.868 6.58608 38.487C6.76904 42.3899 6.64707 42.1663 9.1677 43.1623C16.5873 46.1099 22.3604 50.8869 26.6902 57.6357C27.9302 59.5871 28.7636 61.2336 29.78 63.7746C30.776 66.2952 30.5524 66.1733 34.4553 66.3562C38.4802 66.5595 42.4644 65.9903 45.7372 64.7707C48.5018 63.7543 49.0303 63.7746 49.1523 64.9739C49.2132 65.5228 49.1116 65.6448 48.4408 65.9903C47.7903 66.3156 45.229 67.1693 42.7897 67.8605C41.3464 68.2874 38.4192 68.4906 35.1871 68.4296C32.8291 68.389 31.7111 68.4296 31.7111 68.5923C31.7111 68.9378 32.7478 69.8119 33.7439 70.2998C34.5976 70.7267 34.8212 70.747 37.8094 70.6454C46.1234 70.3811 53.726 67.0067 59.8853 60.8678C64.7029 56.0298 67.3862 51.1105 69.1547 43.8738C69.5816 42.1256 69.6222 41.4955 69.6222 36.9624C69.6019 32.531 69.5612 31.7788 69.1547 30.051C67.5082 23.0989 64.7029 17.956 59.9056 13.057C59.0112 12.1626 58.2184 11.2682 58.0964 11.0649C57.8322 10.5974 58.4014 9.7233 58.9705 9.7233C59.9259 9.7233 63.5036 13.5042 65.8006 16.9396C68.3822 20.8019 70.598 26.1277 71.2484 30.051C71.4111 31.108 71.655 32.4903 71.7566 33.1205C72.0209 34.5637 72.0209 39.3407 71.7566 40.8043C70.6996 46.9839 70.1508 48.8947 68.4026 52.5334C64.1947 61.254 56.4702 68.0841 47.3634 71.0926C45.6559 71.6618 44.0297 72.0276 39.8218 72.7391C38.0127 73.0644 34.0691 72.9831 32.8698 72.6172C31.2639 72.1293 30.2882 71.7024 29.1295 70.9909C27.7472 70.1168 2.84579 45.2154 1.95137 43.8128C1.32121 42.8168 0.752037 41.4548 0.223518 39.7879C-0.0610657 38.8935 -0.0610657 34.645 0.203194 33.1205C1.26023 26.9612 1.80907 25.0707 3.55726 21.3914C7.74476 12.6505 15.4286 5.88137 24.5964 2.83221C26.3039 2.26304 27.9302 1.89714 32.138 1.18567C33.4796 0.941734 38.7445 0.962067 40.0455 1.206ZM5.08184 44.2397C5.08184 44.5243 28.6416 67.9418 28.7839 67.7995C29.0075 67.5759 27.9098 64.5674 26.7105 62.0468C22.8076 53.9767 16.2621 48.0816 7.52116 44.7682C5.75265 44.1177 5.08184 43.9551 5.08184 44.2397Z" fill="#004AAD"/>
<path d="M46.9365 14.1954C49.4165 14.7239 51.8761 16.5534 52.9738 18.6878C53.9699 20.6596 54.0715 21.4117 54.0715 27.1035C54.0715 33.9132 53.8276 35.0109 51.7338 37.3283C49.3962 39.9099 45.5136 40.8856 42.3628 39.6456L41.3464 39.2391L40.452 39.8286C38.9681 40.8246 37.2809 40.5807 36.1222 39.1984C35.0855 37.9991 35.1668 36.5152 36.3051 35.0109C36.9963 34.1165 36.9963 34.0962 36.793 32.8359C36.5287 31.2096 36.5287 23.2615 36.793 21.432C37.2605 18.2812 39.5779 15.5777 42.7287 14.5206C43.9077 14.1141 45.8388 13.9718 46.9365 14.1954ZM42.4238 16.9193C41.0618 17.6104 39.9844 18.7285 39.3543 20.0701C38.9477 20.9645 38.9274 21.3101 38.9274 27.0018C38.9274 30.2949 39.0087 33.4254 39.1104 33.9742C39.2933 34.9296 39.273 34.9296 38.3379 35.946C37.8297 36.4948 37.4028 37.0234 37.4028 37.125C37.4028 37.4909 38.2566 38.3853 38.5818 38.3853C38.7851 38.3853 39.3746 38.0194 39.9235 37.5722C40.452 37.125 40.9805 36.7591 41.0618 36.7591C41.1635 36.7591 41.7123 37.003 42.3018 37.308C43.2775 37.8161 43.6028 37.8771 45.4323 37.8771C47.77 37.8771 48.5627 37.5722 49.9857 36.1289C51.7948 34.2791 52.1201 32.7139 51.9981 26.0871L51.9371 21.3914L51.2663 20.0294C50.006 17.4885 47.8919 16.1875 45.1274 16.2891C43.9077 16.3298 43.3588 16.4518 42.4238 16.9193Z" fill="#004AAD"/>
<path d="M46.9569 18.7894C47.8716 19.196 48.7254 19.9888 49.2133 20.9442C49.5588 21.6353 49.5995 22.1842 49.5995 27.2661V32.8562L48.9287 33.8319C47.77 35.5598 45.2087 36.3729 43.8264 35.4785C43.2166 35.0719 43.115 34.3198 43.6231 33.8929C43.7858 33.7506 44.0704 33.3644 44.233 33.0392C44.5176 32.5106 44.5176 32.409 44.2127 31.9415C43.8874 31.4739 43.8061 31.4333 42.7694 31.5756C41.0009 31.7992 41.0619 31.9415 41.0619 26.514C41.0619 22.3874 41.1228 21.7166 41.4481 21.0052C42.4238 18.9114 44.9038 17.895 46.9569 18.7894ZM44.4159 20.8222C43.2776 21.3507 43.0946 22.0419 43.0946 25.7618V29.0346L43.6435 29.2582C45.6356 30.0307 46.652 31.169 46.469 32.4293C46.3471 33.2628 46.591 33.4254 47.0789 32.8765C47.4244 32.4903 47.4651 32.0024 47.5261 27.3881C47.587 21.7776 47.5261 21.432 46.3064 20.8425C45.473 20.4157 45.2494 20.4157 44.4159 20.8222Z" fill="#004AAD"/>
<path d="M27.1374 14.1954C30.0239 14.7239 32.3413 16.5331 33.6219 19.257L34.2521 20.5986V27.2051V33.8116L33.5 35.2549C32.5242 37.1454 31.1826 38.4464 29.2718 39.3814C27.8489 40.0522 27.6253 40.1132 25.8161 40.1132C23.5394 40.1132 22.4823 39.7676 20.5919 38.4464C19.2299 37.4909 17.7867 35.5395 17.563 34.3808C17.1362 32.1448 18.986 30.1933 21.1814 30.5389C22.1978 30.7015 23.0109 31.291 23.702 32.409C24.6574 33.9133 26.0194 34.1572 27.1577 33.0189C27.8082 32.3684 27.8489 32.2261 27.8489 31.0267C27.8489 29.5428 28.2148 28.8314 28.9669 28.8314C29.8206 28.8314 30.1662 29.6445 30.0239 31.2707C29.8613 33.2628 29.1092 34.5841 27.7472 35.2956C25.6331 36.3933 23.4377 35.7631 21.9538 33.6084C21.2627 32.592 20.7545 32.348 20.1243 32.7343C19.2096 33.3034 19.4129 34.2588 20.8358 35.9054C21.9945 37.247 23.3158 37.8365 25.4705 37.9382C27.1577 38.0195 27.3203 37.9991 28.5603 37.3893C29.9833 36.6778 30.9996 35.6411 31.7518 34.1369C32.199 33.2221 32.2193 33.0595 32.2193 27.2051V21.2085L31.6908 20.0905C31.0606 18.7285 29.9629 17.6105 28.5807 16.8787C27.6862 16.4111 27.3 16.3298 25.7144 16.3298C24.1899 16.3298 23.7223 16.4111 22.8889 16.8177C20.9781 17.7731 19.2502 20.0498 19.6975 21.0255C19.8194 21.2898 20.1447 21.5744 20.4496 21.6354C21.0391 21.7777 21.0797 21.737 22.401 20.0498C23.6614 18.3829 26.3446 17.9967 28.0725 19.196C29.3938 20.0905 29.9223 21.2288 30.0442 23.3226C30.1256 24.9691 30.1052 25.152 29.6987 25.5586C29.1702 26.0871 28.7839 26.1074 28.2554 25.5789C27.9098 25.2334 27.8489 24.9081 27.8489 23.5868C27.8489 21.8386 27.6253 21.3101 26.5885 20.7816C25.4095 20.1718 24.6168 20.558 23.2955 22.4281C22.4214 23.6681 20.6122 24.1153 19.2502 23.4242C18.4575 22.9973 18.2339 22.7737 17.807 21.9809C16.4247 19.2977 20.0024 14.9882 24.2712 14.2158C25.5925 13.9718 25.9177 13.9718 27.1374 14.1954Z" fill="#004AAD"/>
<path d="M31.5078 44.3007C32.077 44.565 33.3373 45.6423 34.9838 47.2482L37.5451 49.7892L38.6225 48.7525C40.0454 47.3702 40.6959 47.0653 42.1798 47.0653C43.6434 47.0653 44.4159 47.4108 45.3916 48.5695C46.5503 49.9112 46.7942 51.7406 46.0421 53.2246C45.5746 54.1393 40.391 59.2619 39.4763 59.7498C38.5005 60.2376 37.0776 60.3189 35.9596 59.953C35.4514 59.7904 33.8862 58.3471 30.5524 54.9931C26.1006 50.521 25.8567 50.2161 25.6128 49.22C25.2469 47.6548 25.6128 46.3741 26.7715 45.2155C28.0521 43.9145 29.8613 43.5486 31.5078 44.3007ZM28.1131 46.862C27.7878 47.2686 27.6456 47.6954 27.6456 48.3256C27.6456 49.22 27.6659 49.2403 31.7517 53.3669C34.0284 55.6639 36.1222 57.656 36.4271 57.8186C36.732 57.9812 37.3215 58.1032 37.7484 58.1032C38.4599 58.1032 38.7038 57.9203 41.4074 55.1963C44.2736 52.3098 44.3143 52.2488 44.3143 51.3544C44.3143 50.6226 44.1923 50.338 43.6841 49.8095C43.1556 49.2607 42.8913 49.159 42.1392 49.159C41.2854 49.159 41.1431 49.2403 39.5372 50.7852C38.6022 51.6797 37.6874 52.4115 37.4842 52.4115C37.2809 52.4115 35.736 51.0292 34.0488 49.3623C32.138 47.4515 30.7354 46.2318 30.3695 46.1302C29.5564 45.9066 28.6416 46.2115 28.1131 46.862Z" fill="#004AAD"/>
</g>
<defs>
<clipPath id="clip0_17_119">
<rect width="71.96" height="71.96" fill="white" transform="matrix(-1 0 0 1 71.96 0.982422)"/>
</clipPath>
</defs>
</svg>
