<svg width="71" height="72" viewBox="0 0 71 72" fill="none" xmlns="http://www.w3.org/2000/svg">
<g clip-path="url(#clip0_21_350)">
<path d="M58.9847 0.943608C59.531 1.26855 59.531 1.26855 59.9596 1.7223C60.1198 1.8874 60.28 2.05249 60.445 2.22259C60.6052 2.39754 60.7653 2.57249 60.9303 2.75274C61.0926 2.92136 61.2549 3.08997 61.4221 3.26369C61.8928 3.75726 62.3504 4.26074 62.8077 4.76668C62.9499 4.91303 63.092 5.05938 63.2384 5.21017C63.6248 5.62645 63.6248 5.62645 64.1731 6.40515C64.1236 7.67807 63.554 8.24531 62.6669 9.11031C62.4152 9.35848 62.1636 9.60665 61.9042 9.86234C61.6366 10.1209 61.3688 10.3794 61.101 10.6378C60.8373 10.8961 60.5738 11.1546 60.3106 11.4133C59.8225 11.8919 59.3332 12.3694 58.8425 12.8454C58.1557 13.5146 57.4772 14.1915 56.8001 14.8705C56.3607 15.307 55.9212 15.7432 55.4816 16.1794C54.9881 16.6704 54.4945 17.1614 54.001 17.6525C53.749 17.9023 53.4969 18.152 53.2373 18.4093C52.9979 18.6478 52.7585 18.8863 52.5119 19.132C52.1839 19.4579 52.1839 19.4579 51.8492 19.7904C51.3242 20.2951 51.3242 20.2951 51.0654 20.8782C51.359 20.8739 51.6525 20.8696 51.9549 20.8652C53.0434 20.8504 54.132 20.841 55.2206 20.8332C55.6918 20.8291 56.1631 20.8235 56.6342 20.8164C57.3114 20.8065 57.9885 20.8018 58.6657 20.7982C58.8765 20.794 59.0873 20.7898 59.3045 20.7854C60.7417 20.785 60.7417 20.785 61.3865 21.1741C61.8756 21.9523 62.2719 22.7638 62.6552 23.5973C62.7445 23.7879 62.8339 23.9786 62.9259 24.1751C63.2125 24.7878 63.4965 25.4016 63.7806 26.0155C64.0516 26.5956 64.323 27.1755 64.5945 27.7553C64.7838 28.1624 64.9713 28.5703 65.1567 28.9791C65.6717 30.113 66.2077 31.2269 66.7895 32.3281C68.7124 36.0716 69.1837 39.1079 69.0746 43.2748C69.0708 43.8535 69.0685 44.4323 69.0676 45.011C69.0625 46.515 69.0428 48.0184 69.0181 49.5222C68.9787 51.9391 68.9528 54.3559 68.9446 56.7732C68.9382 57.6106 68.9198 58.4471 68.9004 59.2844C68.8087 62.7651 68.8087 62.7651 70.568 65.6755C71.3776 66.6752 71.2133 67.8667 71.1366 69.0934C71.1303 69.3392 71.1239 69.5851 71.1174 69.8385C71.0585 71.6121 71.0585 71.6121 70.727 71.9436C70.113 71.9713 69.4982 71.9793 68.8836 71.9801C68.6886 71.9807 68.4936 71.9814 68.2927 71.982C67.6344 71.9837 66.9761 71.9835 66.3178 71.9833C65.8478 71.9841 65.3779 71.985 64.9079 71.9861C63.6277 71.9885 62.3476 71.9891 61.0674 71.9893C60.0005 71.9895 58.9337 71.9905 57.8668 71.9915C55.3509 71.9937 52.8349 71.9944 50.3189 71.9942C47.7193 71.994 45.1197 71.9969 42.5201 72.0012C40.2919 72.0048 38.0637 72.0063 35.8355 72.0061C34.503 72.006 33.1706 72.0068 31.8381 72.0097C30.5854 72.0123 29.3328 72.0124 28.0801 72.0104C27.6192 72.0101 27.1584 72.0107 26.6976 72.0124C26.0706 72.0145 25.4436 72.0132 24.8166 72.0111C24.2893 72.0114 24.2893 72.0114 23.7513 72.0116C22.9385 71.9436 22.9385 71.9436 22.3924 71.3975C22.0342 69.0131 21.9577 66.8306 23.3569 64.7836C23.9956 63.9461 24.6501 63.132 25.3962 62.3859C26.1441 62.3617 26.8852 62.3545 27.6331 62.3592C27.857 62.3596 28.0808 62.36 28.3115 62.3604C29.0294 62.362 29.7473 62.3654 30.4652 62.3689C30.9507 62.3702 31.4363 62.3715 31.9218 62.3726C33.1146 62.3756 34.3073 62.3803 35.5001 62.3859C35.4858 61.9223 35.4858 61.9223 35.4713 61.4493C35.4636 61.0447 35.4561 60.6401 35.4489 60.2354C35.442 60.0316 35.4351 59.8278 35.4281 59.6178C35.4201 59.0258 35.4201 59.0258 35.5001 58.0167C36.3582 57.4446 36.5682 57.4006 37.5481 57.3912C37.796 57.3877 38.0439 57.3842 38.2993 57.3806C38.7 57.3797 38.7 57.3797 39.1087 57.3788C39.3838 57.377 39.6589 57.3752 39.9423 57.3733C40.5242 57.3705 41.1061 57.3692 41.688 57.3693C42.5786 57.3681 43.469 57.3582 44.3596 57.3479C44.9248 57.3463 45.4899 57.3452 46.0551 57.3447C46.3217 57.3407 46.5882 57.3368 46.8629 57.3328C48.6995 57.3452 48.6995 57.3452 49.5969 57.9656C50.1457 58.8368 50.0791 59.525 50.0414 60.5426C50.0315 60.8876 50.0217 61.2326 50.0115 61.588C49.9989 61.8513 49.9862 62.1146 49.9731 62.3859C50.6039 62.3859 51.2347 62.3859 51.8847 62.3859C51.8847 60.133 51.8847 57.8801 51.8847 55.559C50.7495 55.5633 50.7495 55.5633 49.5914 55.5677C47.0944 55.5767 44.5973 55.5827 42.1002 55.5873C40.5858 55.5901 39.0715 55.594 37.5571 55.6002C36.0964 55.6061 34.6357 55.6094 33.1749 55.6108C32.6169 55.6118 32.0589 55.6138 31.5009 55.6167C30.7209 55.6207 29.9409 55.6213 29.1608 55.621C28.9288 55.623 28.6969 55.6249 28.4579 55.6269C27.3867 55.6232 26.8541 55.6207 25.9424 55.0128C25.8407 54.3829 25.8407 54.3829 25.8432 53.6048C25.8433 53.3256 25.8435 53.0465 25.8437 52.7589C25.8481 52.4664 25.8525 52.1738 25.857 51.8725C25.8561 51.5799 25.8553 51.2874 25.8544 50.986C25.8695 48.8049 25.8695 48.8049 26.4885 48.1859C27.2948 48.1345 28.0754 48.1172 28.8818 48.1239C29.1296 48.1238 29.3774 48.1238 29.6327 48.1237C30.4542 48.1241 31.2757 48.1283 32.0973 48.1326C32.6659 48.1336 33.2345 48.1344 33.8031 48.1349C35.3016 48.137 36.8002 48.1424 38.2987 48.1484C39.8271 48.154 41.3554 48.1565 42.8838 48.1592C45.8841 48.1651 48.8844 48.1744 51.8847 48.1859C51.8783 47.9194 51.872 47.653 51.8655 47.3784C51.8605 47.031 51.8556 46.6835 51.8505 46.3256C51.8442 45.9803 51.8379 45.6349 51.8313 45.2791C51.8847 44.3628 51.8847 44.3628 52.4308 43.5436C53.7826 43.5436 55.1343 43.5436 56.527 43.5436C56.527 38.8576 56.527 34.1716 56.527 29.3436C54.229 29.4788 54.229 29.4788 51.8847 29.6167C52.1606 29.8768 52.4366 30.137 52.721 30.405C53.0796 30.7508 53.438 31.0967 53.7962 31.4429C53.9785 31.6138 54.1609 31.7847 54.3488 31.9608C54.5212 32.1289 54.6937 32.2969 54.8714 32.4701C55.1117 32.6996 55.1117 32.6996 55.3568 32.9338C55.8278 33.6128 55.8321 33.9943 55.7077 34.8051C55.3534 35.3362 55.3534 35.3362 54.8597 35.8345C54.6811 36.0149 54.5024 36.1953 54.3184 36.3812C54.1292 36.5651 53.9399 36.7491 53.745 36.9386C53.5611 37.1278 53.3772 37.317 53.1877 37.5119C52.917 37.7799 52.917 37.7799 52.641 38.0533C52.4765 38.2162 52.3121 38.3791 52.1426 38.547C51.4488 39.0099 51.0655 39.0283 50.2462 38.9013C49.7403 38.5504 49.7403 38.5504 49.2766 38.065C49.1085 37.8925 48.9404 37.72 48.7672 37.5423C48.5963 37.36 48.4254 37.1776 48.2493 36.9898C48.0732 36.8074 47.897 36.6251 47.7154 36.4372C47.2814 35.9871 46.8509 35.5342 46.4231 35.0782C46.4177 35.2491 46.4123 35.4199 46.4067 35.596C46.3808 36.3679 46.3508 37.1396 46.3207 37.9114C46.3123 38.1803 46.3038 38.4493 46.2951 38.7264C46.2846 38.9833 46.274 39.2403 46.2631 39.5051C46.2545 39.7424 46.246 39.9798 46.2371 40.2244C46.1501 40.8128 46.1501 40.8128 45.6039 41.359C44.6139 41.4898 43.6148 41.4601 42.6171 41.4614C42.3399 41.4681 42.0627 41.4748 41.7771 41.4817C41.5111 41.4827 41.2452 41.4838 40.9712 41.4849C40.7273 41.4871 40.4833 41.4894 40.232 41.4917C39.5962 41.359 39.5962 41.359 39.1094 40.8788C38.7538 40.224 38.6636 39.8237 38.6372 39.0848C38.6276 38.8665 38.6179 38.6483 38.6079 38.4234C38.5987 38.0855 38.5987 38.0855 38.5892 37.7407C38.5799 37.5112 38.5706 37.2817 38.561 37.0452C38.5385 36.4807 38.5207 35.916 38.5039 35.3513C37.9632 35.892 37.9632 35.892 37.4116 36.4436C36.635 36.0955 36.0086 35.7742 35.5001 35.0782C35.6255 33.6882 36.6752 32.9161 37.6703 32.0516C39.1334 31.1331 40.5775 31.241 42.2587 31.3063C45.1272 31.4874 45.1272 31.4874 47.5154 30.1628C47.6056 29.9826 47.6957 29.8024 47.7885 29.6167C44.8147 29.5266 41.8409 29.4365 38.777 29.3436C38.777 28.5326 38.777 27.7215 38.777 26.8859C41.931 26.8859 45.0851 26.8859 48.3347 26.8859C48.3347 25.8045 48.3347 24.7231 48.3347 23.609C45.6312 23.609 42.9277 23.609 40.1424 23.609C40.1424 22.7078 40.1424 21.8067 40.1424 20.8782C42.8458 20.8782 45.5493 20.8782 48.3347 20.8782C48.0643 19.7968 48.0643 19.7968 47.7885 18.6936C47.7885 17.6013 47.7885 17.6013 48.4371 16.8503C49.1539 16.2359 49.1539 16.2359 49.7001 16.2359C49.9704 16.5063 50.2407 16.7766 50.5193 17.0551C52.5919 14.9825 54.6646 12.9098 56.8001 10.7744C56.3471 9.86851 56.094 9.45786 55.4005 8.79457C55.1415 8.54675 54.8824 8.29893 54.6154 8.04361C53.7851 8.41099 53.2554 8.8055 52.6499 9.479C52.4854 9.65937 52.321 9.83975 52.1515 10.0256C51.9754 10.2199 51.7994 10.4142 51.618 10.6144C51.234 11.0239 50.8492 11.4328 50.4638 11.8411C49.8597 12.482 49.2603 13.1252 48.6725 13.7812C45.2255 17.6125 45.2255 17.6125 43.1283 17.8901C41.9183 17.9412 40.7835 17.8348 39.5962 17.6013C39.3231 17.3282 39.3231 17.3282 39.289 16.3725C39.3231 15.4167 39.3231 15.4167 39.5962 15.1436C39.9359 15.1543 39.9359 15.1543 40.2825 15.1652C41.9302 15.1961 43.12 15.0698 44.3948 13.9514C45.1124 13.2556 45.7939 12.5312 46.4722 11.7973C46.7739 11.4846 47.0765 11.1728 47.38 10.8618C48.1721 10.0465 48.9546 9.22269 49.7345 8.39579C50.9864 7.0699 52.2482 5.75387 53.5179 4.44509C53.958 3.98756 54.3912 3.52422 54.8242 3.05998C55.0939 2.77899 55.3638 2.49823 55.634 2.21772C55.8665 1.97114 56.0989 1.72455 56.3384 1.47049C57.2796 0.795509 57.8505 0.817662 58.9847 0.943608ZM57.8924 3.94745C57.6056 4.25885 57.3282 4.57896 57.0561 4.90322C56.8317 5.16934 56.8317 5.16935 56.6027 5.44084C56.4876 5.57883 56.3725 5.71682 56.2539 5.85899C57.6615 7.42455 57.6615 7.42455 59.5308 8.31668C59.8913 7.95622 60.2517 7.59576 60.6231 7.22438C60.2299 6.34706 59.741 5.6895 59.1041 4.97149C58.9348 4.77859 58.7655 4.58569 58.5911 4.38694C58.4506 4.24191 58.3101 4.09688 58.1654 3.94745C58.0753 3.94745 57.9852 3.94745 57.8924 3.94745ZM51.0654 23.609C51.0654 24.6904 51.0654 25.7718 51.0654 26.8859C51.4107 26.8962 51.4107 26.8962 51.763 26.9066C52.6144 26.9326 53.4658 26.9597 54.3172 26.9876C54.6862 26.9994 55.0552 27.0108 55.4242 27.0217C55.9536 27.0374 56.483 27.055 57.0123 27.0726C57.3312 27.0826 57.6501 27.0926 57.9787 27.1029C58.7116 27.159 58.7116 27.159 58.9847 27.4321C59.0184 27.9346 59.0333 28.4384 59.0407 28.9421C59.0462 29.2646 59.0516 29.5871 59.0572 29.9195C59.0618 30.2705 59.0664 30.6215 59.0711 30.9831C59.0767 31.3404 59.0824 31.6976 59.0883 32.0656C59.1034 33.0169 59.1168 33.9682 59.13 34.9195C59.1437 35.8896 59.1589 36.8597 59.174 37.8298C59.2034 39.7344 59.231 41.639 59.2577 43.5436C61.5106 43.5436 63.7635 43.5436 66.0847 43.5436C66.3276 39.3063 66.0536 36.827 64.0481 33.1596C63.2417 31.6043 62.5499 29.9943 61.8391 28.3936C61.4219 27.454 61.0018 26.5158 60.5805 25.5781C60.4374 25.2579 60.2943 24.9377 60.1468 24.6078C59.871 23.9185 59.871 23.9185 59.5308 23.609C58.9051 23.585 58.2786 23.5798 57.6524 23.5823C57.4648 23.5827 57.2773 23.5831 57.0841 23.5835C56.4831 23.585 55.8821 23.5885 55.2811 23.5919C54.8745 23.5933 54.4679 23.5945 54.0613 23.5957C53.0627 23.5987 52.0641 23.6034 51.0654 23.609ZM49.1198 32.3475C48.9508 32.5277 48.7818 32.7079 48.6077 32.8936C48.9851 33.7703 49.4063 34.2725 50.1438 34.8734C50.3163 35.0156 50.4888 35.1578 50.6665 35.3044C50.7981 35.41 50.9298 35.5156 51.0654 35.6244C51.516 35.0837 51.9666 34.543 52.4308 33.9859C52.0798 33.6202 51.7267 33.2564 51.3727 32.8936C51.1762 32.6908 50.9798 32.4881 50.7774 32.2792C50.0127 31.5912 49.8673 31.6439 49.1198 32.3475ZM41.5077 34.259C41.5077 35.7008 41.5077 37.1427 41.5077 38.6282C42.2287 38.6282 42.9496 38.6282 43.6924 38.6282C43.6924 37.1864 43.6924 35.7445 43.6924 34.259C42.9714 34.259 42.2505 34.259 41.5077 34.259ZM54.6154 46.0013C54.6154 51.4082 54.6154 56.8151 54.6154 62.3859C58.4003 62.3859 62.1851 62.3859 66.0847 62.3859C66.0847 56.979 66.0847 51.5721 66.0847 46.0013C62.2998 46.0013 58.515 46.0013 54.6154 46.0013ZM28.4001 50.9167C28.4001 51.5475 28.4001 52.1783 28.4001 52.8282C36.15 52.8282 43.8999 52.8282 51.8847 52.8282C51.8847 52.1974 51.8847 51.5666 51.8847 50.9167C44.1347 50.9167 36.3848 50.9167 28.4001 50.9167ZM37.9577 60.2013C37.9577 60.9222 37.9577 61.6431 37.9577 62.3859C41.0217 62.3859 44.0856 62.3859 47.2424 62.3859C47.2424 61.665 47.2424 60.9441 47.2424 60.2013C44.1784 60.2013 41.1145 60.2013 37.9577 60.2013ZM25.3464 66.5615C25.0179 67.5211 25.0179 67.5211 25.1231 69.4859C39.4515 69.4859 53.7798 69.4859 68.5424 69.4859C68.5745 67.1554 68.5745 67.1554 67.5044 65.3351C66.2379 64.2984 64.6191 64.5034 63.059 64.5256C62.6659 64.5223 62.2728 64.5179 61.8797 64.5125C60.8149 64.5014 59.7507 64.5057 58.6858 64.5135C57.5703 64.5197 56.4547 64.5139 55.3392 64.5101C53.4659 64.5056 51.5929 64.5115 49.7197 64.5232C47.5556 64.5366 45.392 64.5322 43.228 64.5187C41.3682 64.5075 39.5085 64.506 37.6487 64.5124C36.5387 64.5162 35.4289 64.5168 34.3189 64.5086C33.2751 64.5015 32.2319 64.5065 31.1881 64.5207C30.8057 64.5239 30.4233 64.523 30.0409 64.5176C27.8354 64.4891 26.5149 64.5715 25.3464 66.5615Z" fill="#004AAD"/>
<path d="M30.2532 4.31132C31.2484 5.12975 32.1496 6.02333 33.0424 6.95128C33.2842 7.1852 33.2842 7.1852 33.5309 7.42383C36.6348 10.6522 38.0344 15.4334 38.0772 19.82C37.9067 25.0805 36.2075 29.233 32.7693 33.1667C32.4945 33.5295 32.2212 33.8934 31.9501 34.259C32.1004 34.5482 32.2507 34.8374 32.4056 35.1354C32.9632 36.2111 33.515 37.2896 34.0651 38.3691C34.3038 38.8356 34.5441 39.3012 34.786 39.766C35.1338 40.435 35.4758 41.1068 35.8169 41.7793C35.9258 41.9858 36.0347 42.1924 36.1469 42.4053C36.7531 43.6165 37.0215 44.3731 36.5924 45.7282C36.3193 46.0013 36.3193 46.0013 35.5822 46.0962C34.4022 45.9719 33.9699 45.5426 33.0936 44.7554C32.804 44.5012 32.5143 44.2473 32.2242 43.9937C32.0838 43.869 31.9434 43.7443 31.7987 43.6159C31.1005 43.0051 30.3632 42.4482 29.6236 41.8891C29.075 41.4598 28.5483 41.0193 28.0214 40.5643C27.8559 40.4252 27.6904 40.2861 27.5199 40.1429C27.1923 39.8674 26.8685 39.5872 26.5494 39.3019C25.6673 38.5706 25.6673 38.5706 24.576 38.3221C24.0165 38.3891 23.4858 38.4949 22.9385 38.6282C17.7821 39.5688 12.6369 38.7282 8.19236 35.8974C7.00513 34.9917 5.95797 33.9595 4.91544 32.8936C4.73345 32.7204 4.55146 32.5472 4.36395 32.3688C0.852445 28.7859 -0.142879 23.8069 -0.135087 18.9884C-0.07411 16.5033 0.403851 14.4198 1.36544 12.1397C1.46717 11.8835 1.5689 11.6272 1.67371 11.3632C2.50038 9.49671 3.7799 8.13098 5.18851 6.67821C5.37367 6.46665 5.55883 6.25509 5.7496 6.03712C11.7666 -0.581533 23.2595 -0.906252 30.2532 4.31132ZM6.42909 9.29484C3.51914 12.5584 2.33707 16.2655 2.38307 20.6265C2.70499 25.2437 4.66059 28.8098 7.91928 32.0744C8.15003 32.3099 8.15003 32.3099 8.38543 32.5501C11.3269 35.3127 15.1245 36.2322 19.0301 36.2559C19.3952 36.2582 19.3952 36.2582 19.7677 36.2605C20.8884 36.2482 21.9111 36.1872 22.995 35.8921C25.3526 35.2827 25.3526 35.2827 26.4536 35.9205C26.9998 36.3294 27.5127 36.7606 28.0246 37.2116C28.3746 37.5099 28.7251 37.8076 29.0763 38.1045C29.322 38.3134 29.322 38.3134 29.5726 38.5265C30.1487 38.9899 30.7555 39.3665 31.4039 39.7205C30.9309 38.1366 30.1678 36.8097 29.3452 35.3843C28.7434 34.0988 28.7434 34.0988 28.9462 33.1667C29.5265 32.5106 29.5265 32.5106 30.3116 31.8183C33.412 28.9137 35.2611 24.8449 35.5086 20.5881C35.4564 15.6808 33.8696 11.6798 30.5164 8.12893C27.001 4.76197 22.8186 3.30019 18.0103 3.34261C13.2295 3.60244 9.61137 5.83955 6.42909 9.29484Z" fill="#004AAD"/>
<path d="M61.7154 50.6436C62.8525 51.1605 63.2531 51.5637 63.8829 52.6405C64.2865 54.0411 64.1581 54.9911 63.5587 56.31C62.8423 57.231 62.257 57.6418 61.0967 57.8599C59.711 57.9683 58.8416 57.7932 57.7387 56.9244C57.0357 56.2228 56.6557 55.6904 56.4928 54.7056C56.5418 53.1858 56.8333 52.449 57.8923 51.3775C59.0895 50.4103 60.2352 50.3627 61.7154 50.6436ZM59.582 53.4256C59.1886 53.907 59.1886 53.907 59.343 54.5179C59.405 54.6812 59.4669 54.8446 59.5308 55.0128C60.0324 55.2238 60.0324 55.2238 60.6231 55.2859C61.1465 54.9901 61.1465 54.9901 61.4423 54.4667C61.3802 53.876 61.3802 53.876 61.1692 53.3744C60.348 53.058 60.348 53.058 59.582 53.4256Z" fill="#004AAD"/>
<path d="M16.9308 30.709C17.2677 30.7776 17.2677 30.7776 17.6114 30.8477C19.6309 31.2161 21.2352 31.289 23.2116 30.709C23.6622 31.3398 24.1127 31.9706 24.577 32.6205C23.3273 33.8701 21.7797 34.2184 20.0264 34.2878C18.4114 34.1803 17.2354 33.6955 15.8385 32.8936C16.1456 32.082 16.4455 31.4369 16.9308 30.709Z" fill="#004AAD"/>
<path d="M32.0353 15.8092C33.1184 16.8121 33.1898 18.2112 33.3069 19.6142C33.3269 21.3 32.9312 22.7725 31.95 24.1551C31.1384 23.8481 30.4933 23.5481 29.7654 23.0628C29.8143 22.8382 29.8632 22.6137 29.9137 22.3823C30.3155 20.2734 30.3273 18.7708 29.4923 16.7821C31.217 15.6544 31.217 15.6544 32.0353 15.8092Z" fill="#004AAD"/>
<path d="M14.4731 13.5052C14.744 13.9713 14.744 13.9713 14.9851 14.5463C15.6097 15.8737 16.3516 16.5247 17.6988 17.1234C17.8959 17.191 18.0931 17.2586 18.2962 17.3282C18.206 18.2294 18.1159 19.1305 18.0231 20.059C15.6555 19.5 13.9903 18.7434 12.6693 16.6253C11.7423 14.8466 11.7423 14.8466 11.7423 13.7782C13.5514 13.1979 13.5514 13.1979 14.4731 13.5052Z" fill="#004AAD"/>
<path d="M22.6653 15.6898C22.7551 15.9026 22.7551 15.9026 22.8467 16.1196C23.6201 17.8206 24.4403 18.8034 26.1812 19.5982C26.3727 19.6601 26.5642 19.7221 26.7615 19.7859C26.5813 20.597 26.401 21.408 26.2153 22.2436C24.2676 22.0975 22.7998 21.1177 21.4877 19.7176C20.6401 18.6714 20.2682 17.5264 19.9346 16.2359C21.7437 15.6898 21.7437 15.6898 22.6653 15.6898Z" fill="#004AAD"/>
<path d="M12.0154 8.86282C12.1956 9.67386 12.3758 10.4849 12.5615 11.3205C12.3968 11.4032 12.2321 11.486 12.0623 11.5712C10.2314 12.5309 9.15453 13.4067 8.46538 15.4167C7.65434 15.3266 6.84331 15.2364 6.00769 15.1436C6.08808 12.8928 6.97563 11.6696 8.58485 10.1429C9.66121 9.43405 10.6993 8.86282 12.0154 8.86282Z" fill="#004AAD"/>
<path d="M17.75 21.9705C18.6511 22.0606 19.5523 22.1508 20.4807 22.2436C20.0705 24.6675 19.3958 26.0847 17.3745 27.5345C16.2954 28.2141 15.4675 28.4704 14.2 28.5244C14.1098 27.7133 14.0197 26.9023 13.9269 26.0667C14.1145 25.9642 14.3021 25.8618 14.4954 25.7563C14.7415 25.6165 14.9875 25.4768 15.2411 25.3328C15.485 25.1966 15.729 25.0603 15.9803 24.92C17.0949 24.1107 17.4205 23.2883 17.75 21.9705Z" fill="#004AAD"/>
<path d="M18.5693 4.76669C19.8299 5.81721 20.1196 6.90014 20.2781 8.46603C20.3586 10.3658 19.942 11.8039 19.1154 13.5052C18.0486 13.1124 17.4231 12.7171 16.6577 11.8667C16.7232 11.7178 16.7887 11.5689 16.8561 11.4155C17.645 9.409 17.319 8.11604 16.6577 6.13208C17.2885 5.6815 17.9193 5.23092 18.5693 4.76669Z" fill="#004AAD"/>
<path d="M5.1885 18.6936C5.39689 18.7837 5.60528 18.8738 5.81999 18.9667C7.66206 19.4662 9.44548 19.4914 11.1962 18.6936C11.4253 18.9997 11.6525 19.3071 11.8789 19.6152C12.069 19.8719 12.069 19.8719 12.2629 20.1337C12.5616 20.6051 12.5616 20.6051 12.5616 21.1513C9.98186 22.2499 7.96008 22.7486 5.2909 21.6974C4.89056 21.5201 4.49147 21.3397 4.09619 21.1513C4.09619 20.0592 4.56749 19.5669 5.1885 18.6936Z" fill="#004AAD"/>
<path d="M24.85 7.22437C25.6616 7.53144 26.3067 7.8314 27.0346 8.31667C26.992 8.46557 26.9494 8.61448 26.9055 8.76789C26.4971 10.3504 26.4853 11.6288 26.7615 13.2321C26.8122 13.5531 26.8629 13.8741 26.9151 14.2049C26.9546 14.4246 26.994 14.6442 27.0346 14.8705C26.2666 15.4337 26.2666 15.4337 25.3961 15.9628C24.5769 15.6897 24.5769 15.6897 24.1161 14.8193C23.4004 12.7026 23.3951 10.2613 24.3038 8.21427C24.4787 7.88041 24.6579 7.54857 24.85 7.22437Z" fill="#004AAD"/>
<path d="M9.2846 25.2475C9.40393 25.4946 9.40393 25.4946 9.52567 25.7467C10.2498 27.1586 10.8293 28.0523 12.2884 28.7975C12.6489 28.8876 13.0094 28.9777 13.3808 29.0705C13.2005 29.9717 13.0203 30.8728 12.8346 31.8013C10.7607 31.218 8.96975 30.5381 7.75281 28.6684C7.15825 27.5344 6.8269 26.8202 6.8269 25.5205C7.6685 25.2712 8.40981 25.2358 9.2846 25.2475Z" fill="#004AAD"/>
<path d="M22.6654 24.1552C25.0321 24.7838 26.4343 25.8109 27.9733 27.7052C28.4548 28.6296 28.5904 29.4022 28.6731 30.4359C27.8621 30.526 27.051 30.6162 26.2154 30.709C26.0183 30.3711 25.8212 30.0331 25.6181 29.685C24.7123 28.2408 23.742 27.4423 22.1193 26.8859C22.2995 25.9848 22.4797 25.0836 22.6654 24.1552Z" fill="#004AAD"/>
</g>
<defs>
<clipPath id="clip0_21_350">
<rect width="71" height="71" fill="white" transform="translate(0 0.943604)"/>
</clipPath>
</defs>
</svg>
